G04 Layer_Physical_Order=3*
G04 Layer_Color=128*
%FSLAX25Y25*%
%MOIN*%
G70*
G01*
G75*
%ADD28C,0.00500*%
%ADD30C,0.01000*%
%ADD39C,0.04000*%
%ADD40C,0.06331*%
%ADD41C,0.05150*%
%ADD42C,0.05937*%
%ADD43C,0.02800*%
%ADD44C,0.04400*%
%ADD45R,0.10600X0.10300*%
%ADD46O,0.11449X0.04756*%
D28*
X-100Y8300D02*
X145000D01*
X147700Y11000D01*
Y23300D01*
X138600Y32400D02*
X147700Y23300D01*
X138600Y32400D02*
Y63900D01*
X141600Y66900D01*
Y74500D01*
D30*
X29500Y76000D02*
X29529Y75971D01*
D39*
X182200Y11200D02*
G03*
X177200Y6200I0J-5000D01*
G01*
Y68600D02*
G03*
X182200Y63600I5000J0D01*
G01*
Y11200D02*
X183200D01*
Y63600D01*
X182200D02*
X183200D01*
X0Y-787D02*
Y75590D01*
X177200D01*
Y68600D02*
Y75590D01*
Y-787D02*
Y6200D01*
X0Y-787D02*
X177200D01*
D40*
X172100Y46258D02*
D03*
Y28542D02*
D03*
D41*
X46677Y53933D02*
D03*
D42*
X14000Y18500D02*
D03*
D43*
X125000Y21000D02*
D03*
X103000Y55000D02*
D03*
X140000Y10000D02*
D03*
X68000Y22000D02*
D03*
X170000Y23000D02*
D03*
X177000Y39000D02*
D03*
X5000Y55000D02*
D03*
X38000Y5500D02*
D03*
X157000Y60000D02*
D03*
X160000Y58000D02*
D03*
X133000D02*
D03*
Y62000D02*
D03*
X157000Y16000D02*
D03*
X6000Y69000D02*
D03*
X133700Y32000D02*
D03*
X98000Y29400D02*
D03*
X92000D02*
D03*
X85600Y69900D02*
D03*
X7000Y6000D02*
D03*
X141800Y49037D02*
D03*
X103000Y6000D02*
D03*
X34000Y5000D02*
D03*
X79500Y53100D02*
D03*
X94000Y70000D02*
D03*
X90000Y60000D02*
D03*
X18700Y12400D02*
D03*
X144800Y43132D02*
D03*
X102500Y15500D02*
D03*
X88200Y5000D02*
D03*
X126900Y57000D02*
D03*
X90100Y19700D02*
D03*
X55000Y17000D02*
D03*
X43100Y58700D02*
D03*
X141800Y47069D02*
D03*
X144800Y45100D02*
D03*
X141800Y43132D02*
D03*
X144800Y49037D02*
D03*
Y47069D02*
D03*
X141800Y45100D02*
D03*
X95000Y29400D02*
D03*
X94601Y5070D02*
D03*
X150100Y62500D02*
D03*
Y60000D02*
D03*
X5000Y41000D02*
D03*
X67000Y33623D02*
D03*
X56000Y54000D02*
D03*
X114000Y6000D02*
D03*
X177000Y52000D02*
D03*
Y50000D02*
D03*
D44*
X18900Y63862D02*
D03*
D45*
X5400Y5250D02*
D03*
D46*
X172100Y60431D02*
D03*
Y14368D02*
D03*
M02*
