G04 Layer_Physical_Order=1*
G04 Layer_Color=255*
%FSLAX25Y25*%
%MOIN*%
G70*
G01*
G75*
%ADD10R,0.07874X0.04724*%
%ADD11R,0.15748X0.08268*%
%ADD12R,0.04134X0.03937*%
%ADD13R,0.08661X0.04134*%
%ADD14R,0.02500X0.05000*%
%ADD15R,0.05905X0.03150*%
%ADD16R,0.03150X0.05905*%
%ADD17R,0.04331X0.04331*%
%ADD18R,0.02756X0.02362*%
%ADD19R,0.02756X0.02362*%
%ADD20R,0.03858X0.13386*%
%ADD21R,0.02028X0.02362*%
%ADD22R,0.02362X0.02028*%
%ADD23R,0.03347X0.02559*%
%ADD24R,0.05000X0.02500*%
G04:AMPARAMS|DCode=25|XSize=31.5mil|YSize=31.5mil|CornerRadius=15.75mil|HoleSize=0mil|Usage=FLASHONLY|Rotation=90.000|XOffset=0mil|YOffset=0mil|HoleType=Round|Shape=RoundedRectangle|*
%AMROUNDEDRECTD25*
21,1,0.03150,0.00000,0,0,90.0*
21,1,0.00000,0.03150,0,0,90.0*
1,1,0.03150,0.00000,0.00000*
1,1,0.03150,0.00000,0.00000*
1,1,0.03150,0.00000,0.00000*
1,1,0.03150,0.00000,0.00000*
%
%ADD25ROUNDEDRECTD25*%
%ADD26C,0.00700*%
%ADD27C,0.01200*%
%ADD28C,0.00500*%
%ADD29C,0.01500*%
%ADD30C,0.01000*%
%ADD31C,0.01600*%
%ADD32R,0.05750X0.09901*%
%ADD33R,0.04900X0.08100*%
%ADD34R,0.04400X0.06700*%
%ADD35O,0.15748X0.07874*%
%ADD36C,0.03937*%
%ADD37C,0.02000*%
%ADD38C,0.03600*%
G36*
X174000Y65279D02*
X169891D01*
Y60431D01*
Y55584D01*
X174000D01*
Y53325D01*
X166342D01*
Y53542D01*
X166183Y53924D01*
X165801Y54083D01*
X157927D01*
X157544Y53924D01*
X157386Y53542D01*
Y48817D01*
X157544Y48435D01*
X157927Y48276D01*
X165801D01*
X166183Y48435D01*
X166283Y48674D01*
X170013D01*
X170178Y48180D01*
X170089Y48120D01*
X169610Y47404D01*
X169589Y47298D01*
X169529Y47209D01*
X169361Y46364D01*
X169382Y46258D01*
X169361Y46153D01*
X169529Y45308D01*
X169589Y45218D01*
X169610Y45113D01*
X170089Y44396D01*
X170178Y44337D01*
X170238Y44247D01*
X170954Y43769D01*
X171060Y43748D01*
X171150Y43688D01*
X171994Y43520D01*
X172049Y43530D01*
X172100Y43509D01*
X172151Y43530D01*
X172206Y43520D01*
X173050Y43688D01*
X173140Y43748D01*
X173246Y43769D01*
X173500Y43939D01*
X174000Y43671D01*
Y31129D01*
X173500Y30861D01*
X173246Y31031D01*
X173140Y31052D01*
X173050Y31112D01*
X172206Y31280D01*
X172151Y31269D01*
X172100Y31291D01*
X172049Y31269D01*
X171994Y31280D01*
X171150Y31112D01*
X171060Y31052D01*
X170954Y31031D01*
X170238Y30553D01*
X170178Y30463D01*
X170089Y30404D01*
X169610Y29687D01*
X169589Y29582D01*
X169529Y29492D01*
X169361Y28647D01*
X169382Y28542D01*
X169361Y28436D01*
X169529Y27591D01*
X169589Y27502D01*
X169610Y27396D01*
X170089Y26680D01*
X170178Y26620D01*
X170238Y26531D01*
X170954Y26052D01*
X171060Y26031D01*
X171150Y25971D01*
X171994Y25803D01*
X172049Y25814D01*
X172100Y25793D01*
X172151Y25814D01*
X172206Y25803D01*
X173050Y25971D01*
X173140Y26031D01*
X173246Y26052D01*
X173500Y26222D01*
X174000Y25955D01*
Y19216D01*
X169891D01*
Y14368D01*
X169541D01*
Y14018D01*
X160953D01*
Y11723D01*
X160453Y11439D01*
X160000Y11529D01*
X159415Y11413D01*
X158919Y11081D01*
X158587Y10585D01*
X158471Y10000D01*
X158587Y9415D01*
X158919Y8919D01*
X159395Y8600D01*
X159403Y8562D01*
X159281Y8100D01*
X141116D01*
X140965Y8600D01*
X141226Y8774D01*
X141601Y9337D01*
X141664Y9650D01*
X138336D01*
X138399Y9337D01*
X138774Y8774D01*
X139035Y8600D01*
X138884Y8100D01*
X136200D01*
Y30523D01*
X136662Y30714D01*
X139397Y27979D01*
X139727Y27758D01*
X140118Y27680D01*
X151639D01*
Y27044D01*
X151190Y26955D01*
X150504Y26496D01*
X150045Y25810D01*
X149884Y25000D01*
X150045Y24190D01*
X150504Y23504D01*
X151190Y23045D01*
X152000Y22884D01*
X152810Y23045D01*
X153496Y23504D01*
X153955Y24190D01*
X154116Y25000D01*
X153955Y25810D01*
X153678Y26223D01*
Y27680D01*
X165200D01*
X165590Y27758D01*
X165921Y27979D01*
X168921Y30979D01*
X169142Y31310D01*
X169220Y31700D01*
Y39800D01*
X169142Y40190D01*
X168921Y40521D01*
X167384Y42058D01*
X167053Y42279D01*
X166663Y42357D01*
X166342D01*
Y43699D01*
X166183Y44082D01*
X165801Y44240D01*
X157927D01*
X157544Y44082D01*
X157386Y43699D01*
Y38975D01*
X157544Y38592D01*
X157927Y38434D01*
X165801D01*
X166183Y38592D01*
X166342Y38975D01*
Y39563D01*
X166804Y39754D01*
X167180Y39378D01*
Y32122D01*
X166804Y31746D01*
X166342Y31937D01*
Y35825D01*
X166183Y36208D01*
X165801Y36366D01*
X157927D01*
X157544Y36208D01*
X157386Y35825D01*
Y34483D01*
X153020D01*
X152955Y34810D01*
X152496Y35496D01*
X151810Y35955D01*
X151000Y36116D01*
X150190Y35955D01*
X149504Y35496D01*
X149045Y34810D01*
X148884Y34000D01*
X149045Y33190D01*
X149142Y33046D01*
X147715Y31620D01*
X140922D01*
X138920Y33622D01*
Y42300D01*
X138842Y42690D01*
X138621Y43021D01*
X136200Y45442D01*
Y55166D01*
X138864D01*
X139247Y55324D01*
X139405Y55707D01*
Y66700D01*
X143795D01*
Y55707D01*
X143953Y55324D01*
X144336Y55166D01*
X148194D01*
X148577Y55324D01*
X148735Y55707D01*
Y56959D01*
X151800D01*
X152183Y57117D01*
X152341Y57500D01*
Y64200D01*
X152183Y64583D01*
X151800Y64741D01*
X148735D01*
Y66700D01*
X174000D01*
Y65279D01*
D02*
G37*
G36*
X122000Y61942D02*
X120344D01*
Y59654D01*
X119644D01*
Y61942D01*
X118914D01*
X118543Y62410D01*
Y65012D01*
X116254D01*
Y65362D01*
X115904D01*
Y69029D01*
X114680D01*
X114406Y68974D01*
X114317Y68915D01*
X113881Y68698D01*
X113498Y68856D01*
X110349D01*
X109966Y68698D01*
X109550D01*
X109443Y68742D01*
X109168Y68856D01*
X106018D01*
X105635Y68698D01*
X105220D01*
X105113Y68742D01*
X104837Y68856D01*
X101687D01*
X101305Y68698D01*
X100889D01*
X100782Y68742D01*
X100506Y68856D01*
X97357D01*
X96974Y68698D01*
X96558D01*
X96451Y68742D01*
X96176Y68856D01*
X95641D01*
X95374Y69356D01*
X95413Y69415D01*
X95529Y70000D01*
X95527Y70013D01*
X95844Y70400D01*
X122000D01*
Y61942D01*
D02*
G37*
G36*
X84093Y70013D02*
X84071Y69900D01*
X84187Y69315D01*
X84028Y68810D01*
X83530Y68713D01*
X83459Y68742D01*
X83183Y68856D01*
X80034D01*
X79651Y68698D01*
X79236D01*
X79128Y68742D01*
X78853Y68856D01*
X75703D01*
X75321Y68698D01*
X74884Y68915D01*
X74795Y68974D01*
X74522Y69029D01*
X73297D01*
Y65362D01*
Y61696D01*
X74522D01*
X74795Y61750D01*
X74884Y61810D01*
X75321Y62027D01*
X75703Y61868D01*
X78853D01*
X79236Y62027D01*
X79651D01*
X79758Y61982D01*
X80034Y61868D01*
X80442D01*
Y55268D01*
X79753Y54579D01*
X79500Y54629D01*
X78915Y54513D01*
X78419Y54181D01*
X78087Y53685D01*
X77971Y53100D01*
X78087Y52515D01*
X78419Y52019D01*
X78915Y51687D01*
X79500Y51571D01*
X80085Y51687D01*
X80581Y52019D01*
X80913Y52515D01*
X81029Y53100D01*
X80979Y53353D01*
X81921Y54296D01*
X82109Y54577D01*
X82175Y54909D01*
Y55471D01*
X82267Y55571D01*
X82675Y55813D01*
X82790Y55790D01*
X84605D01*
Y58669D01*
X84955D01*
Y59019D01*
X87834D01*
Y60835D01*
X87780Y61108D01*
X87625Y61339D01*
X87556Y61386D01*
X87546Y61505D01*
X87633Y61917D01*
X87897Y62027D01*
X88313D01*
X88420Y61982D01*
X88695Y61868D01*
X89003D01*
X89083Y61787D01*
X89020Y61150D01*
X88919Y61081D01*
X88587Y60585D01*
X88471Y60000D01*
X88587Y59415D01*
X88919Y58919D01*
X89415Y58587D01*
X89518Y58566D01*
X89768Y58399D01*
X90100Y58333D01*
X90432Y58399D01*
X90713Y58587D01*
X90883Y58757D01*
X90917Y58809D01*
X91081Y58919D01*
X91413Y59415D01*
X91529Y60000D01*
X91413Y60585D01*
X91137Y60999D01*
Y61868D01*
X91845D01*
X92228Y62027D01*
X92643D01*
X92750Y61982D01*
X93026Y61868D01*
X96176D01*
X96473Y61991D01*
X96539Y61973D01*
X96559Y61962D01*
X96606Y61793D01*
X96642Y61462D01*
X96458Y61339D01*
X96304Y61108D01*
X96249Y60835D01*
Y59019D01*
X99128D01*
Y58669D01*
X99478D01*
Y55790D01*
X100928D01*
X101289Y55350D01*
X104723D01*
X105072Y55790D01*
X105865D01*
Y58669D01*
X106215D01*
Y59019D01*
X109094D01*
Y60835D01*
X109040Y61108D01*
X108885Y61339D01*
X108842Y61368D01*
X108993Y61868D01*
X109168D01*
X109550Y62027D01*
X109966D01*
X110073Y61982D01*
X110349Y61868D01*
X110523D01*
X110675Y61368D01*
X110632Y61339D01*
X110477Y61108D01*
X110423Y60835D01*
Y59019D01*
X113302D01*
Y58669D01*
X113652D01*
Y55790D01*
X115467D01*
X115740Y55845D01*
X115972Y55999D01*
X116001Y56043D01*
X116501Y55891D01*
Y53748D01*
X116586Y53541D01*
X116405Y53244D01*
X115845Y53156D01*
X115740Y53226D01*
X115467Y53281D01*
X113652D01*
Y50402D01*
Y47523D01*
X115467D01*
X115740Y47577D01*
X115972Y47732D01*
X116001Y47775D01*
X116501Y47623D01*
Y45087D01*
X116624Y44789D01*
X116604Y44718D01*
X116596Y44702D01*
X116396Y44647D01*
X116100Y44611D01*
X115972Y44804D01*
X115740Y44959D01*
X115467Y45013D01*
X113652D01*
Y42134D01*
Y39255D01*
X115467D01*
X115740Y39309D01*
X115972Y39464D01*
X116001Y39507D01*
X116501Y39355D01*
Y36645D01*
X116001Y36493D01*
X115972Y36536D01*
X115740Y36691D01*
X115467Y36745D01*
X113652D01*
Y33866D01*
Y30987D01*
X115467D01*
X115740Y31041D01*
X115972Y31196D01*
X116100Y31389D01*
X116396Y31353D01*
X116596Y31298D01*
X116604Y31282D01*
X116624Y31211D01*
X116501Y30913D01*
Y28377D01*
X116001Y28225D01*
X115972Y28269D01*
X115740Y28423D01*
X115467Y28477D01*
X113652D01*
Y25598D01*
Y22719D01*
X115467D01*
X115740Y22774D01*
X115972Y22928D01*
X116522Y22899D01*
X116659Y22806D01*
Y22635D01*
X116654Y22622D01*
X116501Y22252D01*
Y20109D01*
X116001Y19957D01*
X115972Y20001D01*
X115740Y20155D01*
X115467Y20210D01*
X113652D01*
Y17331D01*
X113302D01*
Y16981D01*
X110423D01*
Y15165D01*
X110477Y14892D01*
X110536Y14804D01*
X110368Y14356D01*
X110318Y14298D01*
X110076Y14250D01*
X109987Y14190D01*
X109550Y13973D01*
X109168Y14132D01*
X108993D01*
X108842Y14632D01*
X108885Y14661D01*
X109040Y14892D01*
X109094Y15165D01*
Y16981D01*
X106215D01*
Y17331D01*
X105865D01*
Y20210D01*
X104050D01*
X103777Y20155D01*
X103545Y20001D01*
X103390Y19769D01*
X103336Y19496D01*
Y17542D01*
X102850Y17177D01*
Y15500D01*
X102150D01*
Y17412D01*
X102007Y17529D01*
Y19496D01*
X101953Y19769D01*
X101798Y20001D01*
X101567Y20155D01*
X101294Y20210D01*
X99478D01*
Y17331D01*
X99128D01*
Y16981D01*
X96249D01*
Y15165D01*
X96304Y14892D01*
X96458Y14661D01*
X96651Y14532D01*
X96616Y14236D01*
X96561Y14037D01*
X96545Y14028D01*
X96473Y14008D01*
X96176Y14132D01*
X93026D01*
X92656Y13979D01*
X92643Y13973D01*
X92228D01*
X92215Y13979D01*
X91845Y14132D01*
X88695D01*
X88313Y13973D01*
X87876Y14190D01*
X87849Y14209D01*
X87767Y14373D01*
X87703Y14777D01*
X87780Y14892D01*
X87834Y15165D01*
Y16981D01*
X84955D01*
X82076D01*
Y15165D01*
X82130Y14892D01*
X82285Y14661D01*
X82328Y14632D01*
X82177Y14132D01*
X80034D01*
X79664Y13979D01*
X79651Y13973D01*
X79236D01*
X79223Y13979D01*
X78853Y14132D01*
X75703D01*
X75333Y13979D01*
X75321Y13973D01*
X74905D01*
X74892Y13979D01*
X74522Y14132D01*
X71372D01*
X71003Y13979D01*
X70990Y13973D01*
X70574D01*
X70561Y13979D01*
X70191Y14132D01*
X67042D01*
X66659Y13973D01*
X66223Y14190D01*
X66134Y14250D01*
X65861Y14304D01*
X64636D01*
Y10638D01*
X63936D01*
Y14304D01*
X63927D01*
X63891Y14344D01*
X63705Y14804D01*
X63764Y14892D01*
X63819Y15165D01*
Y16981D01*
X60939D01*
X58060D01*
Y15165D01*
X58115Y14892D01*
X58269Y14661D01*
X58339Y14614D01*
X58349Y14495D01*
X58262Y14083D01*
X57998Y13973D01*
X57582D01*
X57569Y13979D01*
X57199Y14132D01*
X54050D01*
X53680Y13979D01*
X53667Y13973D01*
X53251D01*
X53238Y13979D01*
X52868Y14132D01*
X49719D01*
X49646Y14102D01*
X49569Y14148D01*
X49518Y14345D01*
X49485Y14734D01*
X49591Y14892D01*
X49645Y15165D01*
Y16981D01*
X46766D01*
X43887D01*
Y15165D01*
X43941Y14892D01*
X44096Y14661D01*
X44140Y14632D01*
X43988Y14132D01*
X42458D01*
X42306Y14632D01*
X42350Y14661D01*
X42504Y14892D01*
X42559Y15165D01*
Y16981D01*
X39680D01*
X36801D01*
Y15165D01*
X36855Y14892D01*
X36914Y14804D01*
X36746Y14356D01*
X36696Y14298D01*
X36454Y14250D01*
X36365Y14190D01*
X35928Y13973D01*
X35546Y14132D01*
X35371D01*
X35220Y14632D01*
X35263Y14661D01*
X35418Y14892D01*
X35472Y15165D01*
Y16981D01*
X32593D01*
Y17331D01*
X32243D01*
Y20210D01*
X30428D01*
X30154Y20155D01*
X30066Y20097D01*
X29606Y20283D01*
X29566Y20318D01*
Y20327D01*
X25900D01*
X22234D01*
Y19102D01*
X22288Y18829D01*
X22443Y18598D01*
Y18426D01*
X22288Y18194D01*
X22234Y17921D01*
Y16696D01*
X25900D01*
Y16346D01*
X26250D01*
Y14058D01*
X26980D01*
X27352Y13590D01*
Y10988D01*
X29640D01*
Y10288D01*
X27352D01*
Y7685D01*
X27215Y7518D01*
X17954Y7501D01*
X17600Y7854D01*
Y9000D01*
X15581Y11019D01*
X15913Y11515D01*
X16029Y12100D01*
X15913Y12685D01*
X15581Y13181D01*
X15085Y13513D01*
X14500Y13629D01*
X13915Y13513D01*
X13419Y13181D01*
X13322Y13037D01*
X12822Y13189D01*
Y13832D01*
X12664Y14214D01*
X12281Y14373D01*
X9919D01*
X9536Y14214D01*
X9380Y13837D01*
X8419D01*
Y14051D01*
X8261Y14434D01*
X7878Y14592D01*
X5122D01*
X4739Y14434D01*
X4700Y14339D01*
X4200Y14438D01*
Y38934D01*
X4650Y39287D01*
Y41000D01*
X5350D01*
Y39336D01*
X5663Y39399D01*
X6226Y39774D01*
X6601Y40337D01*
X6713Y40898D01*
X7019Y41049D01*
X7221Y41084D01*
X7396Y40967D01*
X7670Y40912D01*
X11650D01*
Y43693D01*
Y46474D01*
X8640D01*
X8488Y46974D01*
X8568Y47027D01*
X8722Y47258D01*
X8777Y47532D01*
Y49150D01*
X5996D01*
Y49850D01*
X8777D01*
Y51468D01*
X8722Y51742D01*
X8568Y51973D01*
X8488Y52026D01*
X8640Y52526D01*
X11650D01*
Y55307D01*
Y58088D01*
X7670D01*
X7396Y58033D01*
X7165Y57879D01*
X7010Y57647D01*
X6956Y57374D01*
Y56033D01*
X6456Y55881D01*
X6226Y56226D01*
X5663Y56601D01*
X5350Y56664D01*
Y55000D01*
X4650D01*
Y56713D01*
X4200Y57066D01*
Y60108D01*
X6878D01*
X7261Y60266D01*
X7419Y60649D01*
Y60963D01*
X8378D01*
Y60668D01*
X8536Y60286D01*
X8919Y60127D01*
X11281D01*
X11664Y60286D01*
X11822Y60668D01*
Y62696D01*
X11664Y63079D01*
X11281Y63237D01*
X8919D01*
X8536Y63079D01*
X8378Y62697D01*
X7419D01*
Y63011D01*
X7261Y63394D01*
X7175Y63429D01*
Y63971D01*
X7261Y64006D01*
X7419Y64389D01*
Y66751D01*
X7261Y67134D01*
X6981Y67250D01*
X6883Y67588D01*
X6887Y67788D01*
X7081Y67919D01*
X7413Y68415D01*
X7529Y69000D01*
X7413Y69585D01*
X7203Y69900D01*
X7436Y70400D01*
X83776D01*
X84093Y70013D01*
D02*
G37*
%LPC*%
G36*
X169650Y24664D02*
X169337Y24601D01*
X168774Y24226D01*
X168399Y23663D01*
X168336Y23350D01*
X169650D01*
Y24664D01*
D02*
G37*
G36*
X161514Y26696D02*
X157927D01*
X157654Y26642D01*
X157422Y26487D01*
X157267Y26256D01*
X157213Y25983D01*
Y23970D01*
X161514D01*
Y26696D01*
D02*
G37*
G36*
X165801D02*
X162214D01*
Y23970D01*
X166515D01*
Y25983D01*
X166460Y26256D01*
X166305Y26487D01*
X166074Y26642D01*
X165801Y26696D01*
D02*
G37*
G36*
X170350Y24664D02*
Y23350D01*
X171664D01*
X171601Y23663D01*
X171226Y24226D01*
X170663Y24601D01*
X170350Y24664D01*
D02*
G37*
G36*
X142000Y26529D02*
X141415Y26413D01*
X140919Y26081D01*
X140587Y25585D01*
X140471Y25000D01*
X140587Y24415D01*
X140919Y23919D01*
X141415Y23587D01*
X142000Y23471D01*
X142585Y23587D01*
X143081Y23919D01*
X143413Y24415D01*
X143529Y25000D01*
X143413Y25585D01*
X143081Y26081D01*
X142585Y26413D01*
X142000Y26529D01*
D02*
G37*
G36*
X171664Y22650D02*
X170350D01*
Y21336D01*
X170663Y21399D01*
X171226Y21774D01*
X171601Y22337D01*
X171664Y22650D01*
D02*
G37*
G36*
X169650D02*
X168336D01*
X168399Y22337D01*
X168774Y21774D01*
X169337Y21399D01*
X169650Y21336D01*
Y22650D01*
D02*
G37*
G36*
X166515Y23270D02*
X162214D01*
Y20545D01*
X165801D01*
X166074Y20599D01*
X166305Y20754D01*
X166460Y20985D01*
X166515Y21258D01*
Y23270D01*
D02*
G37*
G36*
X156650Y17664D02*
X156337Y17601D01*
X155774Y17226D01*
X155399Y16663D01*
X155336Y16350D01*
X156650D01*
Y17664D01*
D02*
G37*
G36*
X169191Y19216D02*
X161667D01*
X161394Y19162D01*
X161162Y19007D01*
X161008Y18776D01*
X160953Y18502D01*
Y14718D01*
X169191D01*
Y19216D01*
D02*
G37*
G36*
X157350Y17664D02*
Y16350D01*
X158664D01*
X158601Y16663D01*
X158226Y17226D01*
X157663Y17601D01*
X157350Y17664D01*
D02*
G37*
G36*
X158664Y15650D02*
X157350D01*
Y14336D01*
X157663Y14399D01*
X158226Y14774D01*
X158601Y15337D01*
X158664Y15650D01*
D02*
G37*
G36*
X139650Y11664D02*
X139337Y11601D01*
X138774Y11226D01*
X138399Y10663D01*
X138336Y10350D01*
X139650D01*
Y11664D01*
D02*
G37*
G36*
X140350D02*
Y10350D01*
X141664D01*
X141601Y10663D01*
X141226Y11226D01*
X140663Y11601D01*
X140350Y11664D01*
D02*
G37*
G36*
X156650Y15650D02*
X155336D01*
X155399Y15337D01*
X155774Y14774D01*
X156337Y14399D01*
X156650Y14336D01*
Y15650D01*
D02*
G37*
G36*
X161514Y23270D02*
X157213D01*
Y21258D01*
X157267Y20985D01*
X157422Y20754D01*
X157654Y20599D01*
X157927Y20545D01*
X161514D01*
Y23270D01*
D02*
G37*
G36*
X144450Y50701D02*
X144137Y50638D01*
X143574Y50263D01*
X143550Y50226D01*
X143050D01*
X143026Y50263D01*
X142463Y50638D01*
X142150Y50701D01*
Y49037D01*
X141800D01*
Y48687D01*
X140136D01*
X140199Y48374D01*
X140413Y48053D01*
X140199Y47732D01*
X140136Y47418D01*
X141800D01*
Y46718D01*
X140136D01*
X140199Y46405D01*
X140413Y46084D01*
X140199Y45763D01*
X140136Y45450D01*
X141800D01*
Y44750D01*
X140136D01*
X140199Y44437D01*
X140413Y44116D01*
X140199Y43795D01*
X140136Y43481D01*
X141800D01*
Y43132D01*
X142150D01*
Y41468D01*
X142463Y41530D01*
X142989Y41882D01*
X143141Y41942D01*
X143459D01*
X143611Y41882D01*
X144137Y41530D01*
X144450Y41468D01*
Y43132D01*
X144800D01*
Y43481D01*
X146464D01*
X146401Y43795D01*
X146187Y44116D01*
X146401Y44437D01*
X146464Y44750D01*
X144800D01*
Y45450D01*
X146464D01*
X146401Y45763D01*
X146187Y46084D01*
X146401Y46405D01*
X146464Y46718D01*
X144800D01*
Y47418D01*
X146464D01*
X146401Y47732D01*
X146187Y48053D01*
X146401Y48374D01*
X146464Y48687D01*
X144800D01*
Y49037D01*
X144450D01*
Y50701D01*
D02*
G37*
G36*
X156650Y61664D02*
X156337Y61601D01*
X155774Y61226D01*
X155399Y60663D01*
X155336Y60350D01*
X156650D01*
Y61664D01*
D02*
G37*
G36*
X157350D02*
Y60350D01*
X158664D01*
X158601Y60663D01*
X158226Y61226D01*
X157663Y61601D01*
X157350Y61664D01*
D02*
G37*
G36*
X169191Y60081D02*
X160953D01*
Y59963D01*
X160453Y59643D01*
X160350Y59664D01*
Y58000D01*
Y56336D01*
X160453Y56357D01*
X160732Y56324D01*
X161007Y56027D01*
X161008Y56024D01*
X161162Y55793D01*
X161394Y55638D01*
X161667Y55584D01*
X169191D01*
Y60081D01*
D02*
G37*
G36*
Y65279D02*
X161667D01*
X161394Y65225D01*
X161162Y65070D01*
X161008Y64838D01*
X160953Y64565D01*
Y60782D01*
X169191D01*
Y65279D01*
D02*
G37*
G36*
X159650Y59664D02*
X159337Y59601D01*
X159137Y59468D01*
X158865Y59650D01*
X157350D01*
Y58336D01*
X157663Y58399D01*
X157863Y58532D01*
X158135Y58350D01*
X159650D01*
Y59664D01*
D02*
G37*
G36*
X156650Y59650D02*
X155336D01*
X155399Y59337D01*
X155774Y58774D01*
X156337Y58399D01*
X156650Y58336D01*
Y59650D01*
D02*
G37*
G36*
X159650Y57650D02*
X158336D01*
X158399Y57337D01*
X158774Y56774D01*
X159337Y56399D01*
X159650Y56336D01*
Y57650D01*
D02*
G37*
G36*
X145150Y50701D02*
Y49387D01*
X146464D01*
X146401Y49700D01*
X146026Y50263D01*
X145463Y50638D01*
X145150Y50701D01*
D02*
G37*
G36*
X154000Y38529D02*
X153415Y38413D01*
X152919Y38081D01*
X152587Y37585D01*
X152471Y37000D01*
X152587Y36415D01*
X152919Y35919D01*
X153415Y35587D01*
X154000Y35471D01*
X154585Y35587D01*
X155081Y35919D01*
X155413Y36415D01*
X155529Y37000D01*
X155413Y37585D01*
X155081Y38081D01*
X154585Y38413D01*
X154000Y38529D01*
D02*
G37*
G36*
X141450Y50701D02*
X141137Y50638D01*
X140574Y50263D01*
X140199Y49700D01*
X140136Y49387D01*
X141450D01*
Y50701D01*
D02*
G37*
G36*
X146464Y42781D02*
X145150D01*
Y41468D01*
X145463Y41530D01*
X146026Y41906D01*
X146401Y42468D01*
X146464Y42781D01*
D02*
G37*
G36*
X141450D02*
X140136D01*
X140199Y42468D01*
X140574Y41906D01*
X141137Y41530D01*
X141450Y41468D01*
Y42781D01*
D02*
G37*
G36*
X117829Y69029D02*
X116604D01*
Y65712D01*
X118543D01*
Y68315D01*
X118489Y68588D01*
X118334Y68820D01*
X118102Y68974D01*
X117829Y69029D01*
D02*
G37*
G36*
X112952Y25248D02*
X110423D01*
Y23433D01*
X110477Y23160D01*
X110632Y22928D01*
X110863Y22774D01*
X111136Y22719D01*
X112952D01*
Y25248D01*
D02*
G37*
G36*
X105865D02*
X103336D01*
Y23433D01*
X103390Y23160D01*
X103545Y22928D01*
X103777Y22774D01*
X104050Y22719D01*
X105865D01*
Y25248D01*
D02*
G37*
G36*
X109094D02*
X106565D01*
Y22719D01*
X108380D01*
X108653Y22774D01*
X108885Y22928D01*
X109040Y23160D01*
X109094Y23433D01*
Y25248D01*
D02*
G37*
G36*
X67650Y23664D02*
X67337Y23601D01*
X66774Y23226D01*
X66399Y22663D01*
X66336Y22350D01*
X67650D01*
Y23664D01*
D02*
G37*
G36*
X14106Y21038D02*
X14000Y21017D01*
X13894Y21038D01*
X13126Y20885D01*
X13037Y20825D01*
X12931Y20804D01*
X12280Y20369D01*
X12220Y20280D01*
X12131Y20220D01*
X11696Y19569D01*
X11675Y19463D01*
X11615Y19374D01*
X11462Y18606D01*
X11473Y18551D01*
X11452Y18500D01*
X11473Y18449D01*
X11462Y18394D01*
X11615Y17626D01*
X11675Y17537D01*
X11696Y17431D01*
X12131Y16780D01*
X12220Y16720D01*
X12280Y16631D01*
X12931Y16196D01*
X13037Y16175D01*
X13126Y16115D01*
X13894Y15962D01*
X14000Y15983D01*
X14106Y15962D01*
X14874Y16115D01*
X14963Y16175D01*
X15069Y16196D01*
X15720Y16631D01*
X15780Y16720D01*
X15869Y16780D01*
X16304Y17431D01*
X16325Y17537D01*
X16385Y17626D01*
X16538Y18394D01*
X16527Y18449D01*
X16548Y18500D01*
X16527Y18551D01*
X16538Y18606D01*
X16385Y19374D01*
X16325Y19463D01*
X16304Y19569D01*
X15869Y20220D01*
X15780Y20280D01*
X15720Y20369D01*
X15069Y20804D01*
X14963Y20825D01*
X14874Y20885D01*
X14106Y21038D01*
D02*
G37*
G36*
X68350Y23664D02*
Y22350D01*
X69664D01*
X69601Y22663D01*
X69226Y23226D01*
X68663Y23601D01*
X68350Y23664D01*
D02*
G37*
G36*
X39330Y25248D02*
X36801D01*
Y23433D01*
X36855Y23160D01*
X37010Y22928D01*
X37241Y22774D01*
X37514Y22719D01*
X39330D01*
Y25248D01*
D02*
G37*
G36*
X42559D02*
X40030D01*
Y22719D01*
X41845D01*
X42118Y22774D01*
X42350Y22928D01*
X42504Y23160D01*
X42559Y23433D01*
Y25248D01*
D02*
G37*
G36*
X29566Y28989D02*
X25900D01*
X22234D01*
Y27764D01*
X22288Y27491D01*
X22347Y27402D01*
X22565Y26965D01*
X22406Y26583D01*
Y23433D01*
X22565Y23050D01*
X22347Y22614D01*
X22288Y22525D01*
X22234Y22252D01*
Y21027D01*
X25900D01*
X29566D01*
Y22252D01*
X29512Y22525D01*
X29453Y22614D01*
X29442Y22635D01*
X29463Y22717D01*
X29914Y22924D01*
X29924Y22928D01*
X30154Y22774D01*
X30428Y22719D01*
X32243D01*
Y25598D01*
Y28477D01*
X30428D01*
X30154Y28423D01*
X30066Y28364D01*
X29606Y28550D01*
X29566Y28586D01*
Y28989D01*
D02*
G37*
G36*
X35472Y25248D02*
X32943D01*
Y22719D01*
X34758D01*
X35031Y22774D01*
X35263Y22928D01*
X35418Y23160D01*
X35472Y23433D01*
Y25248D01*
D02*
G37*
G36*
X97650Y31064D02*
X97337Y31001D01*
X96774Y30626D01*
X96750Y30589D01*
X96250D01*
X96226Y30626D01*
X95663Y31001D01*
X95350Y31064D01*
Y29400D01*
Y27736D01*
X95663Y27799D01*
X96226Y28174D01*
X96250Y28211D01*
X96750D01*
X96774Y28174D01*
X97337Y27799D01*
X97650Y27736D01*
Y29400D01*
Y31064D01*
D02*
G37*
G36*
X29566Y37650D02*
X25900D01*
X22234D01*
Y36425D01*
X22288Y36152D01*
X22443Y35921D01*
Y35749D01*
X22288Y35517D01*
X22234Y35244D01*
Y34019D01*
X25900D01*
Y33319D01*
X22234D01*
Y32094D01*
X22288Y31821D01*
X22443Y31590D01*
Y31418D01*
X22288Y31187D01*
X22234Y30913D01*
Y29689D01*
X25900D01*
X29566D01*
Y30879D01*
X29644Y30948D01*
X30035Y31121D01*
X30154Y31041D01*
X30428Y30987D01*
X32243D01*
Y33866D01*
Y36745D01*
X30428D01*
X30154Y36691D01*
X30066Y36632D01*
X29606Y36818D01*
X29566Y36854D01*
Y37650D01*
D02*
G37*
G36*
X98350Y31064D02*
Y29750D01*
X99664D01*
X99601Y30063D01*
X99226Y30626D01*
X98663Y31001D01*
X98350Y31064D01*
D02*
G37*
G36*
X94650D02*
X94337Y31001D01*
X93774Y30626D01*
X93750Y30589D01*
X93250D01*
X93226Y30626D01*
X92663Y31001D01*
X92350Y31064D01*
Y29400D01*
Y27736D01*
X92663Y27799D01*
X93226Y28174D01*
X93250Y28211D01*
X93750D01*
X93774Y28174D01*
X94337Y27799D01*
X94650Y27736D01*
Y29400D01*
Y31064D01*
D02*
G37*
G36*
X35472Y33516D02*
X32943D01*
Y30987D01*
X34758D01*
X35031Y31041D01*
X35263Y31196D01*
X35418Y31428D01*
X35472Y31701D01*
Y33516D01*
D02*
G37*
G36*
X105865D02*
X103336D01*
Y31701D01*
X103390Y31428D01*
X103545Y31196D01*
X103777Y31041D01*
X104050Y30987D01*
X105865D01*
Y33516D01*
D02*
G37*
G36*
X109094D02*
X106565D01*
Y30987D01*
X108380D01*
X108653Y31041D01*
X108885Y31196D01*
X109040Y31428D01*
X109094Y31701D01*
Y33516D01*
D02*
G37*
G36*
X39330D02*
X36801D01*
Y31701D01*
X36855Y31428D01*
X37010Y31196D01*
X37241Y31041D01*
X37514Y30987D01*
X39330D01*
Y33516D01*
D02*
G37*
G36*
X42559D02*
X40030D01*
Y30987D01*
X41845D01*
X42118Y31041D01*
X42350Y31196D01*
X42504Y31428D01*
X42559Y31701D01*
Y33516D01*
D02*
G37*
G36*
X112952Y28477D02*
X111136D01*
X110863Y28423D01*
X110632Y28269D01*
X110477Y28037D01*
X110423Y27764D01*
Y25949D01*
X112952D01*
Y28477D01*
D02*
G37*
G36*
X41845D02*
X40030D01*
Y25949D01*
X42559D01*
Y27764D01*
X42504Y28037D01*
X42350Y28269D01*
X42118Y28423D01*
X41845Y28477D01*
D02*
G37*
G36*
X39330D02*
X37514D01*
X37241Y28423D01*
X37010Y28269D01*
X36855Y28037D01*
X36801Y27764D01*
Y25949D01*
X39330D01*
Y28477D01*
D02*
G37*
G36*
X105865D02*
X104050D01*
X103777Y28423D01*
X103545Y28269D01*
X103390Y28037D01*
X103336Y27764D01*
Y25949D01*
X105865D01*
Y28477D01*
D02*
G37*
G36*
X108380D02*
X106565D01*
Y25949D01*
X109094D01*
Y27764D01*
X109040Y28037D01*
X108885Y28269D01*
X108653Y28423D01*
X108380Y28477D01*
D02*
G37*
G36*
X99664Y29050D02*
X98350D01*
Y27736D01*
X98663Y27799D01*
X99226Y28174D01*
X99601Y28737D01*
X99664Y29050D01*
D02*
G37*
G36*
X91650Y31064D02*
X91337Y31001D01*
X90774Y30626D01*
X90399Y30063D01*
X90336Y29750D01*
X91650D01*
Y31064D01*
D02*
G37*
G36*
X34758Y28477D02*
X32943D01*
Y25949D01*
X35472D01*
Y27764D01*
X35418Y28037D01*
X35263Y28269D01*
X35031Y28423D01*
X34758Y28477D01*
D02*
G37*
G36*
X91650Y29050D02*
X90336D01*
X90399Y28737D01*
X90774Y28174D01*
X91337Y27799D01*
X91650Y27736D01*
Y29050D01*
D02*
G37*
G36*
X56664Y16650D02*
X55350D01*
Y15336D01*
X55663Y15399D01*
X56226Y15774D01*
X56601Y16337D01*
X56664Y16650D01*
D02*
G37*
G36*
X54650D02*
X53336D01*
X53399Y16337D01*
X53774Y15774D01*
X54337Y15399D01*
X54650Y15336D01*
Y16650D01*
D02*
G37*
G36*
X55350Y18664D02*
Y17350D01*
X56664D01*
X56601Y17663D01*
X56226Y18226D01*
X55663Y18601D01*
X55350Y18664D01*
D02*
G37*
G36*
X84605Y20210D02*
X82790D01*
X82517Y20155D01*
X82285Y20001D01*
X82130Y19769D01*
X82076Y19496D01*
Y17681D01*
X84605D01*
Y20210D01*
D02*
G37*
G36*
X54650Y18664D02*
X54337Y18601D01*
X53774Y18226D01*
X53399Y17663D01*
X53336Y17350D01*
X54650D01*
Y18664D01*
D02*
G37*
G36*
X18350Y12050D02*
X17036D01*
X17099Y11737D01*
X17474Y11174D01*
X18037Y10799D01*
X18350Y10736D01*
Y12050D01*
D02*
G37*
G36*
X20364D02*
X19050D01*
Y10736D01*
X19363Y10799D01*
X19926Y11174D01*
X20301Y11737D01*
X20364Y12050D01*
D02*
G37*
G36*
X25550Y15996D02*
X22234D01*
Y14772D01*
X22288Y14499D01*
X22443Y14267D01*
X22674Y14112D01*
X22947Y14058D01*
X25550D01*
Y15996D01*
D02*
G37*
G36*
X18350Y14064D02*
X18037Y14001D01*
X17474Y13626D01*
X17099Y13063D01*
X17036Y12750D01*
X18350D01*
Y14064D01*
D02*
G37*
G36*
X19050D02*
Y12750D01*
X20364D01*
X20301Y13063D01*
X19926Y13626D01*
X19363Y14001D01*
X19050Y14064D01*
D02*
G37*
G36*
X39330Y20210D02*
X37514D01*
X37241Y20155D01*
X37010Y20001D01*
X36855Y19769D01*
X36801Y19496D01*
Y17681D01*
X39330D01*
Y20210D01*
D02*
G37*
G36*
X91764Y19350D02*
X90450D01*
Y18036D01*
X90763Y18099D01*
X91326Y18474D01*
X91701Y19037D01*
X91764Y19350D01*
D02*
G37*
G36*
X89750Y21364D02*
X89437Y21301D01*
X88874Y20926D01*
X88499Y20363D01*
X88436Y20050D01*
X89750D01*
Y21364D01*
D02*
G37*
G36*
X87120Y20210D02*
X85305D01*
Y17681D01*
X87834D01*
Y19496D01*
X87780Y19769D01*
X87625Y20001D01*
X87394Y20155D01*
X87120Y20210D01*
D02*
G37*
G36*
X89750Y19350D02*
X88436D01*
X88499Y19037D01*
X88874Y18474D01*
X89437Y18099D01*
X89750Y18036D01*
Y19350D01*
D02*
G37*
G36*
X69664Y21650D02*
X68350D01*
Y20336D01*
X68663Y20399D01*
X69226Y20774D01*
X69601Y21337D01*
X69664Y21650D01*
D02*
G37*
G36*
X90450Y21364D02*
Y20050D01*
X91764D01*
X91701Y20363D01*
X91326Y20926D01*
X90763Y21301D01*
X90450Y21364D01*
D02*
G37*
G36*
X67650Y21650D02*
X66336D01*
X66399Y21337D01*
X66774Y20774D01*
X67337Y20399D01*
X67650Y20336D01*
Y21650D01*
D02*
G37*
G36*
X34758Y20210D02*
X32943D01*
Y17681D01*
X35472D01*
Y19496D01*
X35418Y19769D01*
X35263Y20001D01*
X35031Y20155D01*
X34758Y20210D01*
D02*
G37*
G36*
X60589D02*
X58774D01*
X58501Y20155D01*
X58269Y20001D01*
X58115Y19769D01*
X58060Y19496D01*
Y17681D01*
X60589D01*
Y20210D01*
D02*
G37*
G36*
X112952D02*
X111136D01*
X110863Y20155D01*
X110632Y20001D01*
X110477Y19769D01*
X110423Y19496D01*
Y17681D01*
X112952D01*
Y20210D01*
D02*
G37*
G36*
X46416D02*
X44601D01*
X44328Y20155D01*
X44096Y20001D01*
X43941Y19769D01*
X43887Y19496D01*
Y17681D01*
X46416D01*
Y20210D01*
D02*
G37*
G36*
X98778D02*
X96963D01*
X96690Y20155D01*
X96458Y20001D01*
X96304Y19769D01*
X96249Y19496D01*
Y17681D01*
X98778D01*
Y20210D01*
D02*
G37*
G36*
X48932D02*
X47116D01*
Y17681D01*
X49645D01*
Y19496D01*
X49591Y19769D01*
X49436Y20001D01*
X49205Y20155D01*
X48932Y20210D01*
D02*
G37*
G36*
X108380D02*
X106565D01*
Y17681D01*
X109094D01*
Y19496D01*
X109040Y19769D01*
X108885Y20001D01*
X108653Y20155D01*
X108380Y20210D01*
D02*
G37*
G36*
X63105D02*
X61289D01*
Y17681D01*
X63819D01*
Y19496D01*
X63764Y19769D01*
X63609Y20001D01*
X63378Y20155D01*
X63105Y20210D01*
D02*
G37*
G36*
X41845D02*
X40030D01*
Y17681D01*
X42559D01*
Y19496D01*
X42504Y19769D01*
X42350Y20001D01*
X42118Y20155D01*
X41845Y20210D01*
D02*
G37*
G36*
X112952Y33516D02*
X110423D01*
Y31701D01*
X110477Y31428D01*
X110632Y31196D01*
X110863Y31041D01*
X111136Y30987D01*
X112952D01*
Y33516D01*
D02*
G37*
G36*
X98000Y53929D02*
X97415Y53813D01*
X96919Y53481D01*
X96801Y53305D01*
X96199D01*
X96081Y53481D01*
X95585Y53813D01*
X95000Y53929D01*
X94415Y53813D01*
X93919Y53481D01*
X93801Y53305D01*
X93199D01*
X93081Y53481D01*
X92585Y53813D01*
X92000Y53929D01*
X91415Y53813D01*
X90919Y53481D01*
X90587Y52985D01*
X90471Y52400D01*
X90587Y51815D01*
X90919Y51319D01*
X91415Y50987D01*
X92000Y50871D01*
X92585Y50987D01*
X93081Y51319D01*
X93199Y51495D01*
X93801D01*
X93919Y51319D01*
X94415Y50987D01*
X95000Y50871D01*
X95585Y50987D01*
X96081Y51319D01*
X96199Y51495D01*
X96801D01*
X96919Y51319D01*
X97415Y50987D01*
X98000Y50871D01*
X98585Y50987D01*
X99081Y51319D01*
X99413Y51815D01*
X99529Y52400D01*
X99413Y52985D01*
X99081Y53481D01*
X98585Y53813D01*
X98000Y53929D01*
D02*
G37*
G36*
X55650Y55664D02*
X55337Y55601D01*
X54774Y55226D01*
X54399Y54663D01*
X54336Y54350D01*
X55650D01*
Y55664D01*
D02*
G37*
G36*
X57664Y53650D02*
X56350D01*
Y52336D01*
X56663Y52399D01*
X57226Y52774D01*
X57601Y53337D01*
X57664Y53650D01*
D02*
G37*
G36*
X17044Y54957D02*
X12350D01*
Y52526D01*
X16330D01*
X16604Y52581D01*
X16835Y52735D01*
X16990Y52967D01*
X17044Y53240D01*
Y54957D01*
D02*
G37*
G36*
X35472Y58319D02*
X32943D01*
Y55790D01*
X34758D01*
X35031Y55845D01*
X35263Y55999D01*
X35418Y56231D01*
X35472Y56504D01*
Y58319D01*
D02*
G37*
G36*
X39330D02*
X36801D01*
Y56504D01*
X36855Y56231D01*
X37010Y55999D01*
X37241Y55845D01*
X37514Y55790D01*
X39330D01*
Y58319D01*
D02*
G37*
G36*
X56350Y55664D02*
Y54350D01*
X57664D01*
X57601Y54663D01*
X57226Y55226D01*
X56663Y55601D01*
X56350Y55664D01*
D02*
G37*
G36*
X16330Y58088D02*
X12350D01*
Y55657D01*
X17044D01*
Y57374D01*
X16990Y57647D01*
X16835Y57879D01*
X16604Y58033D01*
X16330Y58088D01*
D02*
G37*
G36*
X55650Y53650D02*
X54336D01*
X54399Y53337D01*
X54774Y52774D01*
X55337Y52399D01*
X55650Y52336D01*
Y53650D01*
D02*
G37*
G36*
X104664Y54650D02*
X101336D01*
X101399Y54337D01*
X101774Y53774D01*
X102337Y53399D01*
X103000Y53267D01*
X103085Y53284D01*
X103390Y52840D01*
X103336Y52567D01*
Y50752D01*
X105865D01*
Y53281D01*
X104387D01*
X104226Y53774D01*
X104601Y54337D01*
X104664Y54650D01*
D02*
G37*
G36*
X112952Y53281D02*
X111136D01*
X110863Y53226D01*
X110632Y53072D01*
X110477Y52840D01*
X110423Y52567D01*
Y50752D01*
X112952D01*
Y53281D01*
D02*
G37*
G36*
X39330D02*
X37514D01*
X37241Y53226D01*
X37010Y53072D01*
X36855Y52840D01*
X36801Y52567D01*
Y50752D01*
X39330D01*
Y53281D01*
D02*
G37*
G36*
X34758D02*
X32943D01*
Y50752D01*
X35472D01*
Y52567D01*
X35418Y52840D01*
X35263Y53072D01*
X35031Y53226D01*
X34758Y53281D01*
D02*
G37*
G36*
X29566Y54973D02*
X25900D01*
X22234D01*
Y53748D01*
X22288Y53475D01*
X22347Y53386D01*
X22565Y52950D01*
X22406Y52567D01*
Y52114D01*
X19496D01*
X19496Y52114D01*
X19067Y52028D01*
X19039Y52010D01*
X15937D01*
X15554Y51851D01*
X15396Y51468D01*
Y47532D01*
X15554Y47149D01*
X15937Y46990D01*
X20071D01*
X20454Y47149D01*
X20612Y47532D01*
Y49871D01*
X22406D01*
Y49417D01*
X22565Y49035D01*
X22347Y48599D01*
X22288Y48509D01*
X22234Y48236D01*
Y47011D01*
X25900D01*
X29566D01*
Y47414D01*
X29606Y47450D01*
X30066Y47636D01*
X30154Y47577D01*
X30428Y47523D01*
X32243D01*
Y50402D01*
Y53281D01*
X30428D01*
X30154Y53226D01*
X29924Y53072D01*
X29914Y53076D01*
X29463Y53283D01*
X29442Y53365D01*
X29453Y53386D01*
X29512Y53475D01*
X29566Y53748D01*
Y54973D01*
D02*
G37*
G36*
X41845Y53281D02*
X40030D01*
Y50752D01*
X42559D01*
Y52567D01*
X42504Y52840D01*
X42350Y53072D01*
X42118Y53226D01*
X41845Y53281D01*
D02*
G37*
G36*
X108380D02*
X106565D01*
Y50752D01*
X109094D01*
Y52567D01*
X109040Y52840D01*
X108885Y53072D01*
X108653Y53226D01*
X108380Y53281D01*
D02*
G37*
G36*
X60589Y58319D02*
X58060D01*
Y56504D01*
X58115Y56231D01*
X58269Y55999D01*
X58501Y55845D01*
X58774Y55790D01*
X60589D01*
Y58319D01*
D02*
G37*
G36*
X25550Y61942D02*
X22947D01*
X22674Y61888D01*
X22443Y61733D01*
X22288Y61501D01*
X22234Y61228D01*
Y60004D01*
X25550D01*
Y61942D01*
D02*
G37*
G36*
X72597Y69029D02*
X71372D01*
X71099Y68974D01*
X71010Y68915D01*
X70574Y68698D01*
X70191Y68856D01*
X67042D01*
X66659Y68698D01*
X66243D01*
X66136Y68742D01*
X65861Y68856D01*
X62711D01*
X62328Y68698D01*
X61913D01*
X61805Y68742D01*
X61530Y68856D01*
X58380D01*
X57998Y68698D01*
X57582D01*
X57475Y68742D01*
X57199Y68856D01*
X54050D01*
X53667Y68698D01*
X53251D01*
X53144Y68742D01*
X52868Y68856D01*
X49719D01*
X49336Y68698D01*
X48921D01*
X48813Y68742D01*
X48538Y68856D01*
X45388D01*
X45006Y68698D01*
X44569Y68915D01*
X44480Y68974D01*
X44207Y69029D01*
X42982D01*
Y65362D01*
X42282D01*
Y69029D01*
X41058D01*
X40784Y68974D01*
X40695Y68915D01*
X40259Y68698D01*
X39876Y68856D01*
X36727D01*
X36357Y68703D01*
X36344Y68698D01*
X35928D01*
X35915Y68703D01*
X35546Y68856D01*
X32396D01*
X32026Y68703D01*
X32013Y68698D01*
X31598D01*
X31585Y68703D01*
X31215Y68856D01*
X28065D01*
X27683Y68698D01*
X27524Y68315D01*
Y66614D01*
X27152Y66540D01*
X26739Y66263D01*
X25612Y65137D01*
X20815D01*
X20558Y65521D01*
X19797Y66029D01*
X18900Y66207D01*
X18003Y66029D01*
X17242Y65521D01*
X16733Y64760D01*
X16555Y63862D01*
X16733Y62965D01*
X17242Y62204D01*
X18003Y61696D01*
X18900Y61517D01*
X19797Y61696D01*
X20558Y62204D01*
X20815Y62588D01*
X26140D01*
X26628Y62685D01*
X26899Y62866D01*
X27400Y62681D01*
X27464Y62329D01*
X27177Y61942D01*
X26250D01*
Y59654D01*
X25900D01*
Y59303D01*
X22234D01*
Y58079D01*
X22288Y57806D01*
X22443Y57574D01*
Y57402D01*
X22288Y57171D01*
X22234Y56898D01*
Y55673D01*
X25900D01*
X29566D01*
Y55682D01*
X29606Y55717D01*
X30066Y55903D01*
X30154Y55845D01*
X30428Y55790D01*
X32243D01*
Y58669D01*
X32593D01*
Y59019D01*
X35472D01*
Y60835D01*
X35418Y61108D01*
X35263Y61339D01*
X35220Y61368D01*
X35371Y61868D01*
X35546D01*
X35915Y62021D01*
X35928Y62027D01*
X36344D01*
X36357Y62021D01*
X36727Y61868D01*
X36901D01*
X37053Y61368D01*
X37010Y61339D01*
X36855Y61108D01*
X36801Y60835D01*
Y59019D01*
X39680D01*
Y58669D01*
X40030D01*
Y55790D01*
X41845D01*
X42118Y55845D01*
X42350Y55999D01*
X42504Y56231D01*
X42559Y56504D01*
Y56680D01*
X42750Y56837D01*
Y58700D01*
X43450D01*
Y56974D01*
X43887Y56626D01*
Y56504D01*
X43941Y56231D01*
X44096Y55999D01*
X44328Y55845D01*
X44377Y55835D01*
X44613Y55379D01*
X44615Y55290D01*
X44352Y54896D01*
X44160Y53933D01*
X44352Y52970D01*
X44897Y52153D01*
X45714Y51608D01*
X46677Y51416D01*
X47640Y51608D01*
X48457Y52153D01*
X49002Y52970D01*
X49194Y53933D01*
X49002Y54896D01*
X48739Y55290D01*
X48865Y55617D01*
X48998Y55803D01*
X49205Y55845D01*
X49436Y55999D01*
X49591Y56231D01*
X49645Y56504D01*
Y58319D01*
X46766D01*
Y59019D01*
X49645D01*
Y60835D01*
X49591Y61108D01*
X49436Y61339D01*
X49253Y61462D01*
X49288Y61793D01*
X49336Y61962D01*
X49356Y61973D01*
X49422Y61992D01*
X49719Y61868D01*
X52868D01*
X53251Y62027D01*
X53667D01*
X53774Y61982D01*
X54050Y61868D01*
X57199D01*
X57582Y62027D01*
X57998D01*
X58105Y61982D01*
X58262Y61917D01*
X58349Y61505D01*
X58339Y61386D01*
X58269Y61339D01*
X58115Y61108D01*
X58060Y60835D01*
Y59019D01*
X60939D01*
X63819D01*
Y60835D01*
X63764Y61108D01*
X63609Y61339D01*
X63566Y61368D01*
X63718Y61868D01*
X65861D01*
X66243Y62027D01*
X66659D01*
X66766Y61982D01*
X67042Y61868D01*
X70191D01*
X70574Y62027D01*
X71010Y61810D01*
X71099Y61750D01*
X71372Y61696D01*
X72597D01*
Y65362D01*
Y69029D01*
D02*
G37*
G36*
X11281Y67273D02*
X8919D01*
X8536Y67114D01*
X8378Y66732D01*
Y64704D01*
X8536Y64321D01*
X8919Y64163D01*
X11281D01*
X11664Y64321D01*
X11714Y64443D01*
X13231D01*
X13615Y64187D01*
X14200Y64071D01*
X14785Y64187D01*
X15281Y64519D01*
X15613Y65015D01*
X15729Y65600D01*
X15613Y66185D01*
X15281Y66681D01*
X14785Y67013D01*
X14200Y67129D01*
X13615Y67013D01*
X13584Y66992D01*
X11714D01*
X11664Y67114D01*
X11281Y67273D01*
D02*
G37*
G36*
X98778Y58319D02*
X96249D01*
Y56504D01*
X96304Y56231D01*
X96458Y55999D01*
X96690Y55845D01*
X96963Y55790D01*
X98778D01*
Y58319D01*
D02*
G37*
G36*
X109094D02*
X106565D01*
Y55790D01*
X108380D01*
X108653Y55845D01*
X108885Y55999D01*
X109040Y56231D01*
X109094Y56504D01*
Y58319D01*
D02*
G37*
G36*
X63819D02*
X61289D01*
Y55790D01*
X63105D01*
X63378Y55845D01*
X63609Y55999D01*
X63764Y56231D01*
X63819Y56504D01*
Y58319D01*
D02*
G37*
G36*
X87834D02*
X85305D01*
Y55790D01*
X87120D01*
X87394Y55845D01*
X87625Y55999D01*
X87780Y56231D01*
X87834Y56504D01*
Y58319D01*
D02*
G37*
G36*
X75700Y59629D02*
X75115Y59513D01*
X74619Y59181D01*
X74287Y58685D01*
X74171Y58100D01*
X74287Y57515D01*
X74619Y57019D01*
X75115Y56687D01*
X75700Y56571D01*
X76285Y56687D01*
X76781Y57019D01*
X77113Y57515D01*
X77229Y58100D01*
X77113Y58685D01*
X76781Y59181D01*
X76285Y59513D01*
X75700Y59629D01*
D02*
G37*
G36*
X112952Y58319D02*
X110423D01*
Y56504D01*
X110477Y56231D01*
X110632Y55999D01*
X110863Y55845D01*
X111136Y55790D01*
X112952D01*
Y58319D01*
D02*
G37*
G36*
X29566Y46311D02*
X25900D01*
X22234D01*
Y45087D01*
X22288Y44813D01*
X22443Y44582D01*
Y44410D01*
X22288Y44179D01*
X22234Y43905D01*
Y42681D01*
X25900D01*
Y41981D01*
X22234D01*
Y40756D01*
X22288Y40483D01*
X22443Y40251D01*
Y40080D01*
X22288Y39848D01*
X22234Y39575D01*
Y38350D01*
X25900D01*
X29566D01*
Y39146D01*
X29606Y39182D01*
X30066Y39368D01*
X30154Y39309D01*
X30428Y39255D01*
X32243D01*
Y42134D01*
Y45013D01*
X30428D01*
X30154Y44959D01*
X30035Y44879D01*
X29644Y45052D01*
X29566Y45121D01*
Y46311D01*
D02*
G37*
G36*
X35472Y41784D02*
X32943D01*
Y39255D01*
X34758D01*
X35031Y39309D01*
X35263Y39464D01*
X35418Y39695D01*
X35472Y39968D01*
Y41784D01*
D02*
G37*
G36*
X34758Y36745D02*
X32943D01*
Y34216D01*
X35472D01*
Y36031D01*
X35418Y36305D01*
X35263Y36536D01*
X35031Y36691D01*
X34758Y36745D01*
D02*
G37*
G36*
X105865Y41784D02*
X103336D01*
Y39968D01*
X103390Y39695D01*
X103545Y39464D01*
X103777Y39309D01*
X104050Y39255D01*
X105865D01*
Y41784D01*
D02*
G37*
G36*
X109094D02*
X106565D01*
Y39255D01*
X108380D01*
X108653Y39309D01*
X108885Y39464D01*
X109040Y39695D01*
X109094Y39968D01*
Y41784D01*
D02*
G37*
G36*
X39330D02*
X36801D01*
Y39968D01*
X36855Y39695D01*
X37010Y39464D01*
X37241Y39309D01*
X37514Y39255D01*
X39330D01*
Y41784D01*
D02*
G37*
G36*
X42559D02*
X40030D01*
Y39255D01*
X41845D01*
X42118Y39309D01*
X42350Y39464D01*
X42504Y39695D01*
X42559Y39968D01*
Y41784D01*
D02*
G37*
G36*
X108380Y36745D02*
X106565D01*
Y34216D01*
X109094D01*
Y36031D01*
X109040Y36305D01*
X108885Y36536D01*
X108653Y36691D01*
X108380Y36745D01*
D02*
G37*
G36*
X66650Y35287D02*
X66337Y35224D01*
X65774Y34849D01*
X65399Y34286D01*
X65336Y33973D01*
X66650D01*
Y35287D01*
D02*
G37*
G36*
X67350D02*
Y33973D01*
X68664D01*
X68601Y34286D01*
X68226Y34849D01*
X67663Y35224D01*
X67350Y35287D01*
D02*
G37*
G36*
X66650Y33273D02*
X65336D01*
X65399Y32960D01*
X65774Y32397D01*
X66337Y32022D01*
X66650Y31959D01*
Y33273D01*
D02*
G37*
G36*
X68664D02*
X67350D01*
Y31959D01*
X67663Y32022D01*
X68226Y32397D01*
X68601Y32960D01*
X68664Y33273D01*
D02*
G37*
G36*
X112952Y36745D02*
X111136D01*
X110863Y36691D01*
X110632Y36536D01*
X110477Y36305D01*
X110423Y36031D01*
Y34216D01*
X112952D01*
Y36745D01*
D02*
G37*
G36*
X41845D02*
X40030D01*
Y34216D01*
X42559D01*
Y36031D01*
X42504Y36305D01*
X42350Y36536D01*
X42118Y36691D01*
X41845Y36745D01*
D02*
G37*
G36*
X39330D02*
X37514D01*
X37241Y36691D01*
X37010Y36536D01*
X36855Y36305D01*
X36801Y36031D01*
Y34216D01*
X39330D01*
Y36745D01*
D02*
G37*
G36*
X105865D02*
X104050D01*
X103777Y36691D01*
X103545Y36536D01*
X103390Y36305D01*
X103336Y36031D01*
Y34216D01*
X105865D01*
Y36745D01*
D02*
G37*
G36*
X112952Y41784D02*
X110423D01*
Y39968D01*
X110477Y39695D01*
X110632Y39464D01*
X110863Y39309D01*
X111136Y39255D01*
X112952D01*
Y41784D01*
D02*
G37*
G36*
X39330Y50051D02*
X36801D01*
Y48236D01*
X36855Y47963D01*
X37010Y47732D01*
X37241Y47577D01*
X37514Y47523D01*
X39330D01*
Y50051D01*
D02*
G37*
G36*
X42559D02*
X40030D01*
Y47523D01*
X41845D01*
X42118Y47577D01*
X42350Y47732D01*
X42504Y47963D01*
X42559Y48236D01*
Y50051D01*
D02*
G37*
G36*
X16330Y46474D02*
X12350D01*
Y44043D01*
X17044D01*
Y45760D01*
X16990Y46033D01*
X16835Y46265D01*
X16604Y46419D01*
X16330Y46474D01*
D02*
G37*
G36*
X35472Y50051D02*
X32943D01*
Y47523D01*
X34758D01*
X35031Y47577D01*
X35263Y47732D01*
X35418Y47963D01*
X35472Y48236D01*
Y50051D01*
D02*
G37*
G36*
X112952D02*
X110423D01*
Y48236D01*
X110477Y47963D01*
X110632Y47732D01*
X110863Y47577D01*
X111136Y47523D01*
X112952D01*
Y50051D01*
D02*
G37*
G36*
X105865D02*
X103336D01*
Y48236D01*
X103390Y47963D01*
X103545Y47732D01*
X103777Y47577D01*
X104050Y47523D01*
X105865D01*
Y50051D01*
D02*
G37*
G36*
X109094D02*
X106565D01*
Y47523D01*
X108380D01*
X108653Y47577D01*
X108885Y47732D01*
X109040Y47963D01*
X109094Y48236D01*
Y50051D01*
D02*
G37*
G36*
X34758Y45013D02*
X32943D01*
Y42484D01*
X35472D01*
Y44299D01*
X35418Y44572D01*
X35263Y44804D01*
X35031Y44959D01*
X34758Y45013D01*
D02*
G37*
G36*
X39330D02*
X37514D01*
X37241Y44959D01*
X37010Y44804D01*
X36855Y44572D01*
X36801Y44299D01*
Y42484D01*
X39330D01*
Y45013D01*
D02*
G37*
G36*
X17044Y43343D02*
X12350D01*
Y40912D01*
X16330D01*
X16604Y40967D01*
X16835Y41121D01*
X16990Y41353D01*
X17044Y41626D01*
Y43343D01*
D02*
G37*
G36*
X41845Y45013D02*
X40030D01*
Y42484D01*
X42559D01*
Y44299D01*
X42504Y44572D01*
X42350Y44804D01*
X42118Y44959D01*
X41845Y45013D01*
D02*
G37*
G36*
X108380D02*
X106565D01*
Y42484D01*
X109094D01*
Y44299D01*
X109040Y44572D01*
X108885Y44804D01*
X108653Y44959D01*
X108380Y45013D01*
D02*
G37*
G36*
X105865D02*
X104050D01*
X103777Y44959D01*
X103545Y44804D01*
X103390Y44572D01*
X103336Y44299D01*
Y42484D01*
X105865D01*
Y45013D01*
D02*
G37*
G36*
X112952D02*
X111136D01*
X110863Y44959D01*
X110632Y44804D01*
X110477Y44572D01*
X110423Y44299D01*
Y42484D01*
X112952D01*
Y45013D01*
D02*
G37*
%LPD*%
D10*
X161864Y33463D02*
D03*
Y41337D02*
D03*
Y23620D02*
D03*
Y51179D02*
D03*
D11*
X169541Y14368D02*
D03*
X169541Y60431D02*
D03*
D12*
X18004Y49500D02*
D03*
X5996D02*
D03*
D13*
X12000Y43693D02*
D03*
Y55307D02*
D03*
D14*
X77100Y4300D02*
D03*
X29600Y4400D02*
D03*
X42600D02*
D03*
X72700Y4300D02*
D03*
X68500D02*
D03*
X103100D02*
D03*
X81600D02*
D03*
D15*
X119994Y59654D02*
D03*
Y55323D02*
D03*
Y50992D02*
D03*
Y46661D02*
D03*
Y42331D02*
D03*
Y38000D02*
D03*
Y33669D02*
D03*
Y29339D02*
D03*
Y25008D02*
D03*
Y20677D02*
D03*
Y16346D02*
D03*
X25900Y59654D02*
D03*
Y50992D02*
D03*
Y55323D02*
D03*
Y46661D02*
D03*
Y42331D02*
D03*
Y33669D02*
D03*
Y38000D02*
D03*
Y25008D02*
D03*
Y20677D02*
D03*
Y29339D02*
D03*
Y16346D02*
D03*
D16*
X116254Y65362D02*
D03*
X111924D02*
D03*
X107593D02*
D03*
X103262D02*
D03*
X94601D02*
D03*
X98931D02*
D03*
X90270D02*
D03*
X72947D02*
D03*
X77278D02*
D03*
X68617D02*
D03*
X85939D02*
D03*
X81609D02*
D03*
X116254Y10638D02*
D03*
X111924D02*
D03*
X107593D02*
D03*
X103262D02*
D03*
X94601D02*
D03*
X98931D02*
D03*
X90270D02*
D03*
X85939D02*
D03*
X81609D02*
D03*
X72947D02*
D03*
X68617D02*
D03*
X77278D02*
D03*
X64286Y65362D02*
D03*
X55624D02*
D03*
X59955D02*
D03*
X51294D02*
D03*
X42632D02*
D03*
X38302D02*
D03*
X46963D02*
D03*
X33971D02*
D03*
X29640D02*
D03*
X59955Y10638D02*
D03*
X51294D02*
D03*
X55625D02*
D03*
X46963D02*
D03*
X33971D02*
D03*
X64286D02*
D03*
X42632D02*
D03*
X38302D02*
D03*
X29640D02*
D03*
D17*
X113302Y58669D02*
D03*
Y50402D02*
D03*
Y42134D02*
D03*
X106215D02*
D03*
Y58669D02*
D03*
Y50402D02*
D03*
X99128Y58669D02*
D03*
X84955D02*
D03*
X113302Y33866D02*
D03*
X106215D02*
D03*
X113302Y25598D02*
D03*
Y17331D02*
D03*
X106215D02*
D03*
Y25598D02*
D03*
X99128Y17331D02*
D03*
X84955D02*
D03*
X46766Y58669D02*
D03*
X60939D02*
D03*
X39680D02*
D03*
Y42134D02*
D03*
Y50402D02*
D03*
X32593Y58669D02*
D03*
Y50402D02*
D03*
Y42134D02*
D03*
X60939Y17331D02*
D03*
X46766D02*
D03*
X39680Y25598D02*
D03*
Y17331D02*
D03*
Y33866D02*
D03*
X32593D02*
D03*
Y25598D02*
D03*
Y17331D02*
D03*
D18*
X6500Y9130D02*
D03*
X5500Y65570D02*
D03*
D19*
X6500Y12870D02*
D03*
X5500Y61830D02*
D03*
D20*
X146265Y62400D02*
D03*
X136935D02*
D03*
D21*
X132218Y42500D02*
D03*
X128182D02*
D03*
X132218Y46600D02*
D03*
X128182D02*
D03*
D22*
X10100Y65718D02*
D03*
Y61682D02*
D03*
X11100Y12818D02*
D03*
Y8782D02*
D03*
D23*
X132562Y51900D02*
D03*
X127838D02*
D03*
X132562Y37300D02*
D03*
X127838D02*
D03*
D24*
X128300Y29300D02*
D03*
X128500Y25000D02*
D03*
X128800Y20200D02*
D03*
D25*
X152000Y25000D02*
D03*
X151000Y34000D02*
D03*
D26*
X119994Y20677D02*
X128800D01*
X99667Y58996D02*
X100688Y57312D01*
X85085Y59669D02*
X85754Y59000D01*
X39680Y58669D02*
X46766D01*
X6757Y54614D02*
X12450D01*
X39680Y42134D02*
Y52320D01*
X6149Y43000D02*
X12450D01*
X90270Y59370D02*
Y65362D01*
X94000Y65963D02*
Y70000D01*
X41500Y5500D02*
X42600Y4400D01*
X38000Y5500D02*
X41500D01*
X68500Y4300D02*
X68617Y4417D01*
Y10638D01*
X72700Y4300D02*
X72947Y4547D01*
Y10638D01*
X77100Y4300D02*
X77278Y4478D01*
Y10638D01*
X128300Y57000D02*
X132562Y52738D01*
X133700Y32000D02*
Y36162D01*
X132562Y37300D02*
X133700Y36162D01*
X132562Y51900D02*
Y52738D01*
X79500Y53100D02*
X81309Y54909D01*
X42632Y6100D02*
Y10638D01*
X60939Y58669D02*
X62270Y60000D01*
X71000D01*
X72947Y61947D01*
Y65362D01*
X32593Y58669D02*
X39680D01*
X32593D02*
X35262Y56000D01*
X36000D01*
X39680Y52320D01*
X32593Y42134D02*
Y50402D01*
Y42134D02*
X39680D01*
X26097D02*
X32593D01*
X25900Y55323D02*
Y59654D01*
X31609D01*
X32593Y58669D01*
X42632Y61622D02*
Y65362D01*
X39680Y58669D02*
X42632Y61622D01*
X94601Y5070D02*
Y10638D01*
X33971Y5029D02*
X34000Y5000D01*
X33971Y5029D02*
Y10638D01*
X88200Y5000D02*
Y5100D01*
X90270Y7170D01*
Y10638D01*
X6900Y7000D02*
Y8730D01*
X6500Y9130D02*
X6900Y8730D01*
X90100Y59200D02*
X90270Y59370D01*
X94000Y65963D02*
X94601Y65362D01*
X85600Y65702D02*
Y69900D01*
Y65702D02*
X85939Y65362D01*
X5500Y61830D02*
X9952D01*
X10100Y61682D01*
X5400Y65670D02*
Y68000D01*
Y65670D02*
X5500Y65570D01*
X12332Y54732D02*
X12450Y54614D01*
X103000Y6000D02*
X103262Y6262D01*
Y10638D01*
X81609Y6100D02*
Y10638D01*
X119994Y29338D02*
X128300D01*
X119994Y25008D02*
X128500D01*
X126400Y57000D02*
X126900D01*
X128300D01*
X99667Y58996D02*
X99667Y58996D01*
X81309Y54909D02*
Y67062D01*
D27*
X167973Y59000D02*
X169473Y60500D01*
X106215Y58669D02*
X119010D01*
X106215Y42134D02*
Y58215D01*
X113302Y25598D02*
Y42134D01*
X104331Y17331D02*
X113302D01*
X111924Y10638D02*
X119938D01*
X84955Y11622D02*
Y18000D01*
X56831Y17331D02*
X63169D01*
X25900Y33669D02*
Y46661D01*
X56500Y17000D02*
X56831Y17331D01*
X157000Y60000D02*
X166972D01*
X167973Y59000D01*
X169473Y60500D02*
X169541Y60431D01*
X29600Y4400D02*
X29640Y4440D01*
Y10638D01*
X119994Y10695D02*
Y16346D01*
X119938Y10638D02*
X119994Y10695D01*
X106215Y25598D02*
X113302D01*
X25900Y29339D02*
Y33669D01*
Y16346D02*
Y20677D01*
Y33669D02*
X32396D01*
X32593Y33866D01*
X39680D01*
Y25598D02*
Y33866D01*
X32593Y25598D02*
X39680D01*
X32593Y17331D02*
Y25598D01*
X25900Y16346D02*
X31609D01*
X32593Y17331D01*
X39680D01*
X38302Y10638D02*
Y15953D01*
X39680Y17331D01*
X25900Y16346D02*
X29640Y12606D01*
X46963Y10638D02*
Y17134D01*
X46766Y17331D02*
X46963Y17134D01*
X39680Y17331D02*
X46766D01*
X63169D02*
X64286Y16214D01*
Y10638D02*
Y16214D01*
X84955Y11622D02*
X85939Y10638D01*
X111924D02*
Y15953D01*
X113302Y17331D01*
X100669D02*
X102500Y15500D01*
X104331Y17331D01*
X99128D02*
X100669D01*
X116254Y65362D02*
X116638D01*
X119994Y62006D01*
Y59654D02*
Y62006D01*
X119010Y58669D02*
X119994Y59654D01*
X113302Y50402D02*
X113892Y50992D01*
X119994D01*
X109866Y42134D02*
X113302D01*
X109500Y42500D02*
X109866Y42134D01*
X106581Y42500D02*
X109500D01*
X106215Y42134D02*
X106581Y42500D01*
X113302Y42134D02*
Y50402D01*
X106215Y25598D02*
Y33866D01*
X6149Y48510D02*
X6446Y48807D01*
X19496Y50992D02*
X25900D01*
X18004Y49500D02*
X19496Y50992D01*
X6149Y43000D02*
Y48510D01*
Y42149D02*
Y43000D01*
X5000Y41000D02*
X6149Y42149D01*
X84955Y17331D02*
X87731D01*
X90100Y19700D01*
X111924Y8076D02*
Y10638D01*
Y8076D02*
X114000Y6000D01*
D28*
X6046Y48807D02*
Y53903D01*
X6757Y54614D01*
D29*
X103000Y55000D02*
X106215Y58215D01*
X100688Y57312D02*
X103000Y55000D01*
X106215Y58215D02*
Y58669D01*
X19900Y63862D02*
X26140D01*
X27640Y65362D01*
X10100Y65718D02*
X14082D01*
X14200Y65600D01*
X27640Y65362D02*
X36302D01*
D30*
X131700Y42300D02*
X131859Y42141D01*
X140118Y28700D02*
X152659D01*
X136100Y32718D02*
X140118Y28700D01*
X152659Y25659D02*
Y28700D01*
X151000Y33463D02*
X161864D01*
X162400D01*
X152659Y28700D02*
X165200D01*
X152000Y25000D02*
X152659Y25659D01*
X140500Y30600D02*
X148137D01*
X137900Y33200D02*
X140500Y30600D01*
X137900Y33200D02*
Y42300D01*
X148137Y30600D02*
X151000Y33463D01*
X133600Y46600D02*
X137900Y42300D01*
X133500Y42500D02*
X136100Y39900D01*
Y32718D02*
Y39900D01*
X165200Y28700D02*
X168200Y31700D01*
Y39800D01*
X166663Y41337D02*
X168200Y39800D01*
X161864Y41337D02*
X166663D01*
X132218Y42500D02*
X133500D01*
X132218Y46600D02*
X133600D01*
X117994Y42331D02*
X119994D01*
Y42331D02*
X127952D01*
X127838Y37300D02*
X127982Y37444D01*
Y42300D01*
X128182Y42500D01*
X119994Y46661D02*
X127776D01*
X127838Y46600D01*
X6552Y12818D02*
X11100D01*
X6500Y12870D02*
X6552Y12818D01*
X117994Y46661D02*
X119994D01*
X11100Y8782D02*
X11182D01*
X14500Y12100D01*
X127838Y46600D02*
Y51900D01*
X127952Y42331D02*
X127982Y42300D01*
D31*
X163343Y49700D02*
X163643Y50000D01*
X159800Y21557D02*
X161864Y23620D01*
X159800Y18700D02*
Y21557D01*
X98931Y5568D02*
Y10638D01*
X161864Y51179D02*
X163343Y49700D01*
X163643Y50000D02*
X177000D01*
X164284Y52000D02*
X177000D01*
D32*
X144325Y37850D02*
D03*
D33*
X134450Y60650D02*
D03*
D34*
X149600Y60850D02*
D03*
D35*
X172100Y60431D02*
D03*
Y14368D02*
D03*
D36*
X46677Y53933D02*
D03*
X14000Y18500D02*
D03*
D37*
X125000Y21000D02*
D03*
X103000Y55000D02*
D03*
X140000Y10000D02*
D03*
X68000Y22000D02*
D03*
X170000Y23000D02*
D03*
X177000Y43000D02*
D03*
Y39000D02*
D03*
X160000Y10000D02*
D03*
X5000Y55000D02*
D03*
X38000Y5500D02*
D03*
X157000Y60000D02*
D03*
X160000Y58000D02*
D03*
X133000D02*
D03*
Y62000D02*
D03*
X157000Y16000D02*
D03*
X6000Y69000D02*
D03*
X14200Y65600D02*
D03*
X14500Y12100D02*
D03*
X133700Y32000D02*
D03*
X98000Y29400D02*
D03*
X92000Y52400D02*
D03*
Y29400D02*
D03*
X95000Y52400D02*
D03*
X75700Y58100D02*
D03*
X85600Y69900D02*
D03*
X7000Y6000D02*
D03*
X141800Y49037D02*
D03*
X103000Y6000D02*
D03*
X34000Y5000D02*
D03*
X79500Y53100D02*
D03*
X94000Y70000D02*
D03*
X90000Y60000D02*
D03*
X18700Y12400D02*
D03*
X144800Y43132D02*
D03*
X102500Y15500D02*
D03*
X88200Y5000D02*
D03*
X126900Y57000D02*
D03*
X90100Y19700D02*
D03*
X55000Y17000D02*
D03*
X43100Y58700D02*
D03*
X141800Y47069D02*
D03*
X144800Y45100D02*
D03*
X141800Y43132D02*
D03*
X144800Y49037D02*
D03*
Y47069D02*
D03*
X141800Y45100D02*
D03*
X98000Y52400D02*
D03*
X95000Y29400D02*
D03*
X94601Y5070D02*
D03*
X99000Y5500D02*
D03*
X150100Y62500D02*
D03*
Y60000D02*
D03*
X142000Y25000D02*
D03*
X154000Y37000D02*
D03*
X5000Y41000D02*
D03*
X67000Y33623D02*
D03*
X56000Y54000D02*
D03*
X114000Y6000D02*
D03*
X177000Y52000D02*
D03*
Y50000D02*
D03*
D38*
X18900Y63862D02*
D03*
M02*
