G04 Layer_Color=32896*
%FSLAX25Y25*%
%MOIN*%
G70*
G01*
G75*
%ADD28C,0.00500*%
%ADD75C,0.00600*%
%ADD76C,0.00800*%
%ADD112C,0.00400*%
%ADD113C,0.00300*%
D28*
X138498Y37911D02*
G03*
X138498Y37911I-1000J0D01*
G01*
X53370Y49996D02*
Y57870D01*
X37622D02*
X53370D01*
X43803Y49996D02*
X53370D01*
X41559Y30311D02*
Y42122D01*
X21874Y26374D02*
Y42122D01*
Y26374D02*
X37622D01*
X53370Y14563D02*
Y22437D01*
X43803D02*
X53370D01*
X37622Y14563D02*
X53370D01*
X43803Y22437D02*
Y49996D01*
X37622Y26374D02*
X41559Y30311D01*
X6126Y57870D02*
X21874D01*
Y42122D02*
X41559D01*
X6126Y49996D02*
Y57870D01*
Y49996D02*
X10063D01*
Y22437D02*
Y49996D01*
X6126Y14563D02*
X21874D01*
X6126Y22437D02*
X10063D01*
X6126Y14563D02*
Y22437D01*
X149864Y53124D02*
Y54206D01*
X147600D02*
X149864D01*
X147600Y37868D02*
X149864D01*
Y38950D01*
X137462Y54206D02*
X139726D01*
X137462Y53124D02*
Y54206D01*
Y37868D02*
X139726D01*
X137462D02*
Y38950D01*
X166339Y39671D02*
Y45183D01*
X162339Y39632D02*
Y45183D01*
X71148Y70801D02*
Y72533D01*
X70282Y71667D02*
X71935D01*
X59071Y38961D02*
X64583D01*
X59031Y42961D02*
X64583D01*
X57417Y24039D02*
X62929D01*
X57417Y20039D02*
X62968D01*
X57417Y16039D02*
X62929D01*
X57417Y12039D02*
X62968D01*
X57417Y33039D02*
X62929D01*
X57417Y29039D02*
X62968D01*
X113548Y49401D02*
Y51133D01*
X112682Y50267D02*
X114335D01*
X99748Y49301D02*
Y51033D01*
X98882Y50167D02*
X100535D01*
X45000Y13000D02*
X56000D01*
Y7000D02*
Y13000D01*
X54000Y5000D02*
X56000Y7000D01*
X45000Y5000D02*
X54000D01*
X45000D02*
Y13000D01*
X48000Y9000D02*
X52000D01*
X51000Y8000D02*
X52000Y9000D01*
X51000Y10000D02*
X52000Y9000D01*
X167000Y46601D02*
Y48600D01*
X168333D01*
X168999D02*
X169666D01*
X169333D01*
Y46601D01*
X168999Y46934D01*
X95000Y13000D02*
Y11001D01*
X96000D01*
X96333Y11334D01*
Y12000D01*
X96000Y12333D01*
X95000D01*
X95666D02*
X96333Y13000D01*
X98332Y11001D02*
X96999D01*
Y12000D01*
X97666Y11667D01*
X97999D01*
X98332Y12000D01*
Y12667D01*
X97999Y13000D01*
X97333D01*
X96999Y12667D01*
X100332Y13000D02*
X98999D01*
X100332Y11667D01*
Y11334D01*
X99998Y11001D01*
X99332D01*
X98999Y11334D01*
X163000Y35001D02*
Y37000D01*
X164000D01*
X164333Y36667D01*
Y35334D01*
X164000Y35001D01*
X163000D01*
X166332D02*
X164999D01*
Y36000D01*
X165666Y35667D01*
X165999D01*
X166332Y36000D01*
Y36667D01*
X165999Y37000D01*
X165333D01*
X164999Y36667D01*
X122333Y47334D02*
X122000Y47001D01*
X121333D01*
X121000Y47334D01*
Y48667D01*
X121333Y49000D01*
X122000D01*
X122333Y48667D01*
X122999Y47334D02*
X123333Y47001D01*
X123999D01*
X124332Y47334D01*
Y47667D01*
X123999Y48000D01*
X123666D01*
X123999D01*
X124332Y48334D01*
Y48667D01*
X123999Y49000D01*
X123333D01*
X122999Y48667D01*
X124999Y47334D02*
X125332Y47001D01*
X125998D01*
X126332Y47334D01*
Y47667D01*
X125998Y48000D01*
X126332Y48334D01*
Y48667D01*
X125998Y49000D01*
X125332D01*
X124999Y48667D01*
Y48334D01*
X125332Y48000D01*
X124999Y47667D01*
Y47334D01*
X125332Y48000D02*
X125998D01*
X129666Y71333D02*
X129999Y71000D01*
Y70333D01*
X129666Y70000D01*
X128333D01*
X128000Y70333D01*
Y71000D01*
X128333Y71333D01*
X129666Y71999D02*
X129999Y72333D01*
Y72999D01*
X129666Y73332D01*
X129333D01*
X129000Y72999D01*
X128666Y73332D01*
X128333D01*
X128000Y72999D01*
Y72333D01*
X128333Y71999D01*
X128666D01*
X129000Y72333D01*
X129333Y71999D01*
X129666D01*
X129000Y72333D02*
Y72999D01*
X67000Y40001D02*
Y42000D01*
X68000D01*
X68333Y41667D01*
Y40334D01*
X68000Y40001D01*
X67000D01*
X68999Y41667D02*
X69333Y42000D01*
X69999D01*
X70332Y41667D01*
Y40334D01*
X69999Y40001D01*
X69333D01*
X68999Y40334D01*
Y40667D01*
X69333Y41000D01*
X70332D01*
X70000Y21001D02*
Y23000D01*
X71000D01*
X71333Y22667D01*
Y21334D01*
X71000Y21001D01*
X70000D01*
X71999Y21334D02*
X72333Y21001D01*
X72999D01*
X73332Y21334D01*
Y21667D01*
X72999Y22000D01*
X73332Y22333D01*
Y22667D01*
X72999Y23000D01*
X72333D01*
X71999Y22667D01*
Y22333D01*
X72333Y22000D01*
X71999Y21667D01*
Y21334D01*
X72333Y22000D02*
X72999D01*
X66000Y13001D02*
Y15000D01*
X67000D01*
X67333Y14667D01*
Y13334D01*
X67000Y13001D01*
X66000D01*
X67999D02*
X69332D01*
Y13334D01*
X67999Y14667D01*
Y15000D01*
X66000Y29001D02*
Y31000D01*
X67000D01*
X67333Y30667D01*
Y29334D01*
X67000Y29001D01*
X66000D01*
X69332D02*
X68666Y29334D01*
X67999Y30000D01*
Y30667D01*
X68333Y31000D01*
X68999D01*
X69332Y30667D01*
Y30334D01*
X68999Y30000D01*
X67999D01*
X134334Y17667D02*
X134001Y18000D01*
Y18667D01*
X134334Y19000D01*
X135667D01*
X136000Y18667D01*
Y18000D01*
X135667Y17667D01*
X136000Y16001D02*
X134001D01*
X135000Y17001D01*
Y15668D01*
X126334Y17667D02*
X126001Y18000D01*
Y18667D01*
X126334Y19000D01*
X127667D01*
X128000Y18667D01*
Y18000D01*
X127667Y17667D01*
X126334Y17001D02*
X126001Y16667D01*
Y16001D01*
X126334Y15668D01*
X126667D01*
X127000Y16001D01*
Y16334D01*
Y16001D01*
X127333Y15668D01*
X127667D01*
X128000Y16001D01*
Y16667D01*
X127667Y17001D01*
X130334Y17667D02*
X130001Y18000D01*
Y18667D01*
X130334Y19000D01*
X131667D01*
X132000Y18667D01*
Y18000D01*
X131667Y17667D01*
X132000Y17001D02*
Y16334D01*
Y16667D01*
X130001D01*
X130334Y17001D01*
X131000Y25000D02*
Y23001D01*
X132000D01*
X132333Y23334D01*
Y24000D01*
X132000Y24333D01*
X131000D01*
X131667D02*
X132333Y25000D01*
X132999Y24667D02*
X133333Y25000D01*
X133999D01*
X134332Y24667D01*
Y23334D01*
X133999Y23001D01*
X133333D01*
X132999Y23334D01*
Y23667D01*
X133333Y24000D01*
X134332D01*
X146000Y30000D02*
Y28001D01*
X147000D01*
X147333Y28334D01*
Y29000D01*
X147000Y29334D01*
X146000D01*
X146667D02*
X147333Y30000D01*
X147999Y28334D02*
X148333Y28001D01*
X148999D01*
X149332Y28334D01*
Y28667D01*
X148999Y29000D01*
X149332Y29334D01*
Y29667D01*
X148999Y30000D01*
X148333D01*
X147999Y29667D01*
Y29334D01*
X148333Y29000D01*
X147999Y28667D01*
Y28334D01*
X148333Y29000D02*
X148999D01*
X147000Y34000D02*
Y32001D01*
X148000D01*
X148333Y32334D01*
Y33000D01*
X148000Y33334D01*
X147000D01*
X147667D02*
X148333Y34000D01*
X148999Y32001D02*
X150332D01*
Y32334D01*
X148999Y33667D01*
Y34000D01*
X154917Y19117D02*
X153584D01*
X153251Y19450D01*
Y20117D01*
X153584Y20450D01*
X154917D01*
X155250Y20117D01*
Y19450D01*
X154584Y19783D02*
X155250Y19117D01*
Y19450D02*
X154917Y19117D01*
X155250Y17451D02*
X153251D01*
X154250Y18451D01*
Y17118D01*
X140667Y19667D02*
X139334D01*
X139001Y20000D01*
Y20667D01*
X139334Y21000D01*
X140667D01*
X141000Y20667D01*
Y20000D01*
X140333Y20334D02*
X141000Y19667D01*
Y20000D02*
X140667Y19667D01*
X139334Y19001D02*
X139001Y18667D01*
Y18001D01*
X139334Y17668D01*
X139667D01*
X140000Y18001D01*
Y18334D01*
Y18001D01*
X140333Y17668D01*
X140667D01*
X141000Y18001D01*
Y18667D01*
X140667Y19001D01*
X106333Y25334D02*
X106000Y25001D01*
X105333D01*
X105000Y25334D01*
Y26667D01*
X105333Y27000D01*
X106000D01*
X106333Y26667D01*
X108332Y25001D02*
X106999D01*
Y26000D01*
X107666Y25667D01*
X107999D01*
X108332Y26000D01*
Y26667D01*
X107999Y27000D01*
X107333D01*
X106999Y26667D01*
X108999Y25334D02*
X109332Y25001D01*
X109998D01*
X110332Y25334D01*
Y26667D01*
X109998Y27000D01*
X109332D01*
X108999Y26667D01*
Y25334D01*
X95333D02*
X95000Y25001D01*
X94333D01*
X94000Y25334D01*
Y26667D01*
X94333Y27000D01*
X95000D01*
X95333Y26667D01*
X96999Y27000D02*
Y25001D01*
X95999Y26000D01*
X97332D01*
X97999Y26667D02*
X98332Y27000D01*
X98998D01*
X99332Y26667D01*
Y25334D01*
X98998Y25001D01*
X98332D01*
X97999Y25334D01*
Y25667D01*
X98332Y26000D01*
X99332D01*
X131000Y51000D02*
Y49001D01*
X132000D01*
X132333Y49334D01*
Y50000D01*
X132000Y50334D01*
X131000D01*
X131667D02*
X132333Y51000D01*
X132999D02*
X133666D01*
X133333D01*
Y49001D01*
X132999Y49334D01*
X134666D02*
X134999Y49001D01*
X135665D01*
X135998Y49334D01*
Y49667D01*
X135665Y50000D01*
X135332D01*
X135665D01*
X135998Y50334D01*
Y50667D01*
X135665Y51000D01*
X134999D01*
X134666Y50667D01*
X68333Y48334D02*
X68000Y48001D01*
X67333D01*
X67000Y48334D01*
Y49667D01*
X67333Y50000D01*
X68000D01*
X68333Y49667D01*
X70332Y50000D02*
X68999D01*
X70332Y48667D01*
Y48334D01*
X69999Y48001D01*
X69333D01*
X68999Y48334D01*
X117333Y31334D02*
X117000Y31001D01*
X116333D01*
X116000Y31334D01*
Y32667D01*
X116333Y33000D01*
X117000D01*
X117333Y32667D01*
X117999Y31334D02*
X118333Y31001D01*
X118999D01*
X119332Y31334D01*
Y31667D01*
X118999Y32000D01*
X118666D01*
X118999D01*
X119332Y32334D01*
Y32667D01*
X118999Y33000D01*
X118333D01*
X117999Y32667D01*
X121332Y31001D02*
X120665Y31334D01*
X119999Y32000D01*
Y32667D01*
X120332Y33000D01*
X120998D01*
X121332Y32667D01*
Y32334D01*
X120998Y32000D01*
X119999D01*
X127333Y31334D02*
X127000Y31001D01*
X126333D01*
X126000Y31334D01*
Y32667D01*
X126333Y33000D01*
X127000D01*
X127333Y32667D01*
X127999Y31334D02*
X128333Y31001D01*
X128999D01*
X129332Y31334D01*
Y31667D01*
X128999Y32000D01*
X128666D01*
X128999D01*
X129332Y32334D01*
Y32667D01*
X128999Y33000D01*
X128333D01*
X127999Y32667D01*
X129999Y31001D02*
X131332D01*
Y31334D01*
X129999Y32667D01*
Y33000D01*
X70333Y34334D02*
X70000Y34001D01*
X69333D01*
X69000Y34334D01*
Y35667D01*
X69333Y36000D01*
X70000D01*
X70333Y35667D01*
X71999Y36000D02*
Y34001D01*
X70999Y35000D01*
X72332D01*
X72999Y36000D02*
X73665D01*
X73332D01*
Y34001D01*
X72999Y34334D01*
X67333Y17334D02*
X67000Y17001D01*
X66333D01*
X66000Y17334D01*
Y18667D01*
X66333Y19000D01*
X67000D01*
X67333Y18667D01*
X68999Y19000D02*
Y17001D01*
X67999Y18000D01*
X69332D01*
X71332Y19000D02*
X69999D01*
X71332Y17667D01*
Y17334D01*
X70998Y17001D01*
X70332D01*
X69999Y17334D01*
X96333Y15334D02*
X96000Y15001D01*
X95333D01*
X95000Y15334D01*
Y16667D01*
X95333Y17000D01*
X96000D01*
X96333Y16667D01*
X97999Y17000D02*
Y15001D01*
X96999Y16000D01*
X98332D01*
X98999Y15334D02*
X99332Y15001D01*
X99998D01*
X100332Y15334D01*
Y15667D01*
X99998Y16000D01*
X99665D01*
X99998D01*
X100332Y16333D01*
Y16667D01*
X99998Y17000D01*
X99332D01*
X98999Y16667D01*
X67333Y25334D02*
X67000Y25001D01*
X66333D01*
X66000Y25334D01*
Y26667D01*
X66333Y27000D01*
X67000D01*
X67333Y26667D01*
X68999Y27000D02*
Y25001D01*
X67999Y26000D01*
X69332D01*
X70998Y27000D02*
Y25001D01*
X69999Y26000D01*
X71332D01*
X68333Y44334D02*
X68000Y44001D01*
X67333D01*
X67000Y44334D01*
Y45667D01*
X67333Y46000D01*
X68000D01*
X68333Y45667D01*
X69999Y46000D02*
Y44001D01*
X68999Y45000D01*
X70332D01*
X72332Y44001D02*
X70999D01*
Y45000D01*
X71665Y44667D01*
X71998D01*
X72332Y45000D01*
Y45667D01*
X71998Y46000D01*
X71332D01*
X70999Y45667D01*
X156333Y38334D02*
X156000Y38001D01*
X155333D01*
X155000Y38334D01*
Y39667D01*
X155333Y40000D01*
X156000D01*
X156333Y39667D01*
X157999Y40000D02*
Y38001D01*
X156999Y39000D01*
X158332D01*
X158999Y38334D02*
X159332Y38001D01*
X159998D01*
X160332Y38334D01*
Y38667D01*
X159998Y39000D01*
X160332Y39334D01*
Y39667D01*
X159998Y40000D01*
X159332D01*
X158999Y39667D01*
Y39334D01*
X159332Y39000D01*
X158999Y38667D01*
Y38334D01*
X159332Y39000D02*
X159998D01*
X75000Y17000D02*
Y15001D01*
X76000D01*
X76333Y15334D01*
Y16000D01*
X76000Y16333D01*
X75000D01*
X75666D02*
X76333Y17000D01*
X76999D02*
X77666D01*
X77333D01*
Y15001D01*
X76999Y15334D01*
X78666Y17000D02*
X79332D01*
X78999D01*
Y15001D01*
X78666Y15334D01*
X75000Y13000D02*
Y11001D01*
X76000D01*
X76333Y11334D01*
Y12000D01*
X76000Y12333D01*
X75000D01*
X75666D02*
X76333Y13000D01*
X78332Y11001D02*
X76999D01*
Y12000D01*
X77666Y11667D01*
X77999D01*
X78332Y12000D01*
Y12667D01*
X77999Y13000D01*
X77333D01*
X76999Y12667D01*
X78999Y13000D02*
X79665D01*
X79332D01*
Y11001D01*
X78999Y11334D01*
X121666Y71333D02*
X121999Y71000D01*
Y70333D01*
X121666Y70000D01*
X120333D01*
X120000Y70333D01*
Y71000D01*
X120333Y71333D01*
X121999Y73332D02*
Y71999D01*
X121000D01*
X121333Y72666D01*
Y72999D01*
X121000Y73332D01*
X120333D01*
X120000Y72999D01*
Y72333D01*
X120333Y71999D01*
X125666Y71333D02*
X125999Y71000D01*
Y70333D01*
X125666Y70000D01*
X124333D01*
X124000Y70333D01*
Y71000D01*
X124333Y71333D01*
X125999Y71999D02*
Y73332D01*
X125666D01*
X124333Y71999D01*
X124000D01*
X77666Y28917D02*
X77250Y28501D01*
X76416D01*
X76000Y28917D01*
Y29334D01*
X76416Y29750D01*
X77250D01*
X77666Y30167D01*
Y30584D01*
X77250Y31000D01*
X76416D01*
X76000Y30584D01*
X78499Y28501D02*
X79332D01*
X78916D01*
Y31000D01*
X78499D01*
X79332D01*
X80582D02*
Y28501D01*
X81415Y29334D01*
X82248Y28501D01*
Y31000D01*
X83081Y31416D02*
X84747D01*
X85580Y28501D02*
X86413D01*
X85997D01*
Y31000D01*
X85580D01*
X86413D01*
X88912Y28501D02*
X88079D01*
X87663Y28917D01*
Y30584D01*
X88079Y31000D01*
X88912D01*
X89329Y30584D01*
Y28917D01*
X88912Y28501D01*
X99666Y62333D02*
X99999Y62000D01*
Y61333D01*
X99666Y61000D01*
X99333D01*
X99000Y61333D01*
Y62000D01*
X98666Y62333D01*
X98333D01*
X98000Y62000D01*
Y61333D01*
X98333Y61000D01*
X99999Y62999D02*
Y63666D01*
Y63333D01*
X98000D01*
Y62999D01*
Y63666D01*
Y64666D02*
X99999D01*
X99333Y65332D01*
X99999Y65998D01*
X98000D01*
X97667Y66665D02*
Y67998D01*
X99666Y69997D02*
X99999Y69664D01*
Y68997D01*
X99666Y68664D01*
X98333D01*
X98000Y68997D01*
Y69664D01*
X98333Y69997D01*
X99999Y70663D02*
X98000D01*
Y71996D01*
X99999Y72663D02*
X98000D01*
X98666D01*
X99999Y73996D01*
X99000Y72996D01*
X98000Y73996D01*
X81917Y52334D02*
X81501Y52750D01*
Y53584D01*
X81917Y54000D01*
X82334D01*
X82750Y53584D01*
Y52750D01*
X83167Y52334D01*
X83583D01*
X84000Y52750D01*
Y53584D01*
X83583Y54000D01*
X81501Y51501D02*
Y50668D01*
Y51084D01*
X84000D01*
Y51501D01*
Y50668D01*
Y49418D02*
X81501D01*
X82334Y48585D01*
X81501Y47752D01*
X84000D01*
X84417Y46919D02*
Y45253D01*
X81501Y44420D02*
X83167D01*
X84000Y43587D01*
X83167Y42754D01*
X81501D01*
X81917Y40255D02*
X81501Y40671D01*
Y41504D01*
X81917Y41921D01*
X82334D01*
X82750Y41504D01*
Y40671D01*
X83167Y40255D01*
X83583D01*
X84000Y40671D01*
Y41504D01*
X83583Y41921D01*
X81501Y39421D02*
Y38588D01*
Y39005D01*
X84000D01*
Y39421D01*
Y38588D01*
Y37339D02*
X81501D01*
X82334Y36506D01*
X81501Y35673D01*
X84000D01*
X78666Y71917D02*
X78250Y71501D01*
X77416D01*
X77000Y71917D01*
Y72334D01*
X77416Y72750D01*
X78250D01*
X78666Y73167D01*
Y73584D01*
X78250Y74000D01*
X77416D01*
X77000Y73584D01*
X79499Y71501D02*
X80332D01*
X79916D01*
Y74000D01*
X79499D01*
X80332D01*
X81582D02*
Y71501D01*
X82415Y72334D01*
X83248Y71501D01*
Y74000D01*
X84081Y74417D02*
X85747D01*
X86580Y74000D02*
Y71501D01*
X87830D01*
X88246Y71917D01*
Y72750D01*
X87830Y73167D01*
X86580D01*
X87413D02*
X88246Y74000D01*
X90746Y71917D02*
X90329Y71501D01*
X89496D01*
X89079Y71917D01*
Y72334D01*
X89496Y72750D01*
X90329D01*
X90746Y73167D01*
Y73584D01*
X90329Y74000D01*
X89496D01*
X89079Y73584D01*
X91579Y71501D02*
X93245D01*
X92412D01*
Y74000D01*
X22000Y67501D02*
Y69167D01*
X22833Y70000D01*
X23666Y69167D01*
Y67501D01*
X26165Y67917D02*
X25749Y67501D01*
X24916D01*
X24499Y67917D01*
Y69583D01*
X24916Y70000D01*
X25749D01*
X26165Y69583D01*
X28664Y67917D02*
X28248Y67501D01*
X27415D01*
X26998Y67917D01*
Y69583D01*
X27415Y70000D01*
X28248D01*
X28664Y69583D01*
X114000Y52917D02*
X114417Y52501D01*
X115250D01*
X115666Y52917D01*
Y53334D01*
X115250Y53750D01*
X114833D01*
X115250D01*
X115666Y54167D01*
Y54584D01*
X115250Y55000D01*
X114417D01*
X114000Y54584D01*
X116499Y55000D02*
Y54584D01*
X116916D01*
Y55000D01*
X116499D01*
X118582Y52917D02*
X118998Y52501D01*
X119831D01*
X120248Y52917D01*
Y53334D01*
X119831Y53750D01*
X120248Y54167D01*
Y54584D01*
X119831Y55000D01*
X118998D01*
X118582Y54584D01*
Y54167D01*
X118998Y53750D01*
X118582Y53334D01*
Y52917D01*
X118998Y53750D02*
X119831D01*
X121081Y52501D02*
Y54167D01*
X121914Y55000D01*
X122747Y54167D01*
Y52501D01*
X142000Y3501D02*
Y5584D01*
X142417Y6000D01*
X143250D01*
X143666Y5584D01*
Y3501D01*
X146165Y3917D02*
X145749Y3501D01*
X144916D01*
X144499Y3917D01*
Y4334D01*
X144916Y4750D01*
X145749D01*
X146165Y5167D01*
Y5584D01*
X145749Y6000D01*
X144916D01*
X144499Y5584D01*
X146998Y3501D02*
Y6000D01*
X148248D01*
X148664Y5584D01*
Y5167D01*
X148248Y4750D01*
X146998D01*
X148248D01*
X148664Y4334D01*
Y3917D01*
X148248Y3501D01*
X146998D01*
X149498Y6417D02*
X151164D01*
X153663Y3501D02*
X151997D01*
Y4750D01*
X152830Y4334D01*
X153246D01*
X153663Y4750D01*
Y5584D01*
X153246Y6000D01*
X152413D01*
X151997Y5584D01*
X154496Y3501D02*
Y5167D01*
X155329Y6000D01*
X156162Y5167D01*
Y3501D01*
X177917Y34334D02*
X177501Y34750D01*
Y35583D01*
X177917Y36000D01*
X179584D01*
X180000Y35583D01*
Y34750D01*
X179584Y34334D01*
X178750D01*
Y35167D01*
X180000Y33501D02*
X177501D01*
X180000Y31835D01*
X177501D01*
Y31002D02*
X180000D01*
Y29752D01*
X179584Y29335D01*
X177917D01*
X177501Y29752D01*
Y31002D01*
D75*
X89000Y10400D02*
X93000D01*
X89000Y13600D02*
X93000D01*
X127300Y64000D02*
Y68000D01*
X130700Y64000D02*
Y68000D01*
X136700Y9000D02*
Y13000D01*
X133300Y9000D02*
Y13000D01*
X128700Y9000D02*
Y13000D01*
X125300Y9000D02*
Y13000D01*
X132700Y9000D02*
Y13000D01*
X129300Y9000D02*
Y13000D01*
X138600Y22000D02*
Y26000D01*
X135400Y22000D02*
Y26000D01*
X146000Y26600D02*
X150000D01*
X146000Y23400D02*
X150000D01*
X153000Y34600D02*
X157000D01*
X153000Y31400D02*
X157000D01*
X135763Y35563D02*
Y39563D01*
X132563Y35563D02*
Y39563D01*
X135763Y42963D02*
Y46963D01*
X132563Y42963D02*
Y46963D01*
X59000Y50700D02*
X63000D01*
X59000Y47300D02*
X63000D01*
X52900Y63500D02*
Y67500D01*
X49500Y63500D02*
Y67500D01*
X42100Y63500D02*
Y67500D01*
X38700Y63500D02*
Y67500D01*
X47300Y63500D02*
Y67500D01*
X43900Y63500D02*
Y67500D01*
X59000Y33300D02*
X63000D01*
X59000Y36700D02*
X63000D01*
X59000Y19700D02*
X63000D01*
X59000Y16300D02*
X63000D01*
X89000Y14300D02*
X93000D01*
X89000Y17700D02*
X93000D01*
X59000Y24300D02*
X63000D01*
X59000Y27700D02*
X63000D01*
X59000Y43300D02*
X63000D01*
X59000Y46700D02*
X63000D01*
X38100Y63500D02*
Y67500D01*
X34700Y63500D02*
Y67500D01*
X153800Y44700D02*
X157800D01*
X153800Y41300D02*
X157800D01*
X82000Y14400D02*
X86000D01*
X82000Y17600D02*
X86000D01*
X82000Y10400D02*
X86000D01*
X82000Y13600D02*
X86000D01*
X96000Y56400D02*
X100000D01*
X96000Y59600D02*
X100000D01*
X107600Y10000D02*
Y14000D01*
X104400Y10000D02*
Y14000D01*
X119300Y64000D02*
Y68000D01*
X122700Y64000D02*
Y68000D01*
X123300Y64000D02*
Y68000D01*
X126700Y64000D02*
Y68000D01*
X120333Y19417D02*
Y18084D01*
X120000Y17751D01*
X119333D01*
X119000Y18084D01*
Y19417D01*
X119333Y19750D01*
X120000D01*
X119667Y19083D02*
X120333Y19750D01*
X120000D02*
X120333Y19417D01*
X122332Y19750D02*
X120999D01*
X122332Y18417D01*
Y18084D01*
X121999Y17751D01*
X121333D01*
X120999Y18084D01*
X142337Y34964D02*
Y36213D01*
X142587Y36463D01*
X143087D01*
X143337Y36213D01*
Y34964D01*
X144836Y36463D02*
X143836D01*
X144836Y35463D01*
Y35213D01*
X144586Y34964D01*
X144086D01*
X143836Y35213D01*
X104383Y61417D02*
Y60084D01*
X104050Y59751D01*
X103383D01*
X103050Y60084D01*
Y61417D01*
X103383Y61750D01*
X104050D01*
X103717Y61084D02*
X104383Y61750D01*
X104050D02*
X104383Y61417D01*
X105049Y61750D02*
X105716D01*
X105383D01*
Y59751D01*
X105049Y60084D01*
D76*
X119900Y10150D02*
Y11250D01*
X113400Y4300D02*
X117250D01*
X113400D02*
Y7550D01*
Y17100D02*
X117250D01*
X113400Y13850D02*
Y17100D01*
X156750Y28150D02*
Y31400D01*
X160600D01*
X156750Y18600D02*
Y21850D01*
Y18600D02*
X160600D01*
X163250Y24450D02*
Y25550D01*
X141750Y18150D02*
Y21400D01*
X145600D01*
X141750Y8600D02*
Y11850D01*
Y8600D02*
X145600D01*
X148250Y14450D02*
Y15550D01*
X113250Y65450D02*
Y66550D01*
X106750Y59600D02*
X110600D01*
X106750D02*
Y62850D01*
Y72400D02*
X110600D01*
X106750Y69150D02*
Y72400D01*
D112*
X166500Y55500D02*
X169500D01*
X166500Y50500D02*
X169500D01*
X126363Y38537D02*
Y41537D01*
X121363Y38537D02*
Y41537D01*
X161900Y49200D02*
Y52200D01*
X156900Y49200D02*
Y52200D01*
X156300Y49100D02*
Y52100D01*
X151300Y49100D02*
Y52100D01*
X120300Y38500D02*
Y41500D01*
X115300Y38500D02*
Y41500D01*
X131863Y38537D02*
Y41537D01*
X126863Y38537D02*
Y41537D01*
X77900Y64000D02*
Y67000D01*
X72900Y64000D02*
Y67000D01*
D113*
X71400Y53600D02*
Y70600D01*
X59400Y53600D02*
Y70600D01*
X113800Y32200D02*
Y49200D01*
X101800Y32200D02*
Y49200D01*
X100000Y32100D02*
Y49100D01*
X88000Y32100D02*
Y49100D01*
M02*
