M48
;Layer_Color=9474304
;FILE_FORMAT=2:5
INCH,LZ
;TYPE=PLATED
T1F00S00C0.00800
T2F00S00C0.02400
T4F00S00C0.03150
T5F00S00C0.03937
;TYPE=NON_PLATED
T6F00S00C0.04331
%
T01
X00882Y0005
X0094601Y000507
X0099Y00055
X0103Y0006
X01025Y00155
X00901Y00197
X0092Y00294
X0095
X0098
X0125Y0021
X01337Y0032
X0142Y0025
X014Y001
X016
X0157Y0016
X017Y0023
X0177Y0039
Y0043
X0154Y0037
X01448Y0043132
Y00451
X01418
Y0043132
X0114Y0006
X0068Y0022
X0067Y0033623
X0055Y0017
X0038Y00055
X0034Y0005
X00187Y00124
X00145Y00121
X0007Y0006
X0005Y0041
Y0055
X0006Y0069
X00142Y00656
X00431Y00587
X0056Y0054
X00757Y00581
X00795Y00531
X0092Y00524
X0095
X0098
X0103Y0055
X009Y006
X0094Y007
X00856Y00699
X01269Y0057
X0133Y0058
Y0062
X01501Y00625
Y006
X0157
X016Y0058
X0177Y0052
Y005
X01448Y0049037
Y0047069
X01418
Y0049037
T02
X00189Y0063862
T04
X0046677Y0053933
T05
X0014Y00185
T06
X01721Y0028542
Y0046258
M30
