G04 Layer_Physical_Order=2*
G04 Layer_Color=32768*
%FSLAX25Y25*%
%MOIN*%
G70*
G01*
G75*
%ADD39C,0.04000*%
%ADD40C,0.06331*%
%ADD41C,0.05150*%
%ADD42C,0.05937*%
%ADD43C,0.02800*%
%ADD44C,0.04400*%
D39*
X182200Y11200D02*
G03*
X177200Y6200I0J-5000D01*
G01*
Y68600D02*
G03*
X182200Y63600I5000J0D01*
G01*
Y11200D02*
X183200D01*
Y63600D01*
X182200D02*
X183200D01*
X0Y-787D02*
Y75590D01*
X177200D01*
Y68600D02*
Y75590D01*
Y-787D02*
Y6200D01*
X0Y-787D02*
X177200D01*
D40*
X172100Y46258D02*
D03*
Y28542D02*
D03*
D41*
X46677Y53933D02*
D03*
D42*
X14000Y18500D02*
D03*
D43*
X125000Y21000D02*
D03*
X177000Y43000D02*
D03*
X160000Y10000D02*
D03*
X38000Y5500D02*
D03*
X133000Y58000D02*
D03*
Y62000D02*
D03*
X6000Y69000D02*
D03*
X14200Y65600D02*
D03*
X14500Y12100D02*
D03*
X92000Y52400D02*
D03*
X95000D02*
D03*
X75700Y58100D02*
D03*
X85600Y69900D02*
D03*
X7000Y6000D02*
D03*
X103000D02*
D03*
X34000Y5000D02*
D03*
X79500Y53100D02*
D03*
X94000Y70000D02*
D03*
X90000Y60000D02*
D03*
X88200Y5000D02*
D03*
X98000Y52400D02*
D03*
X94601Y5070D02*
D03*
X99000Y5500D02*
D03*
X150100Y62500D02*
D03*
Y60000D02*
D03*
X142000Y25000D02*
D03*
X154000Y37000D02*
D03*
X177000Y52000D02*
D03*
Y50000D02*
D03*
D44*
X18900Y63862D02*
D03*
M02*
