M48
;Layer_Color=9474304
;FILE_FORMAT=2:5
INCH,LZ
T7F00S00C0.20000
%
G90
G05
T07
G00X0179188Y-0010588
M15
G01X0181096Y-0009997
G01X0182848Y-0009039
G01X0184376Y-0007752
G01X0185617Y-0006187
G01X0186522Y-0004406
G01X0187056Y-0002481
G01X01872Y-0000787
G01X01872Y0002079
G01X0188488Y0002712
G01X0190069Y0003933
G01X0191376Y0005443
G01X0192358Y0007183
G01X0192973Y0009083
G01X01932Y00112
G01X01932Y00636
G01X0193Y0065588
G01X019241Y0067496
G01X0191452Y0069248
G01X0190165Y0070776
G01X01886Y0072017
G01X0187183Y0072737
G01X01872Y0075529
G01X0187013Y0077518
G01X0186434Y0079429
G01X0185487Y0081188
G01X0184209Y0082723
G01X0182651Y0083974
G01X0180876Y008489
G01X0178955Y0085435
G01X01772Y0085591
G01X0Y0085591
G01X-0001988Y0085391
G01X-0003896Y0084801
G01X-0005648Y0083842
G01X-0007176Y0082555
G01X-0008417Y008099
G01X-0009322Y0079209
G01X-0009855Y0077284
G01X-001Y0075591
G01X-001Y-0000787
G01X-00098Y-0002775
G01X-000921Y-0004683
G01X-0008252Y-0006436
G01X-0006965Y-0007963
G01X-00054Y-0009204
G01X-0003619Y-001011
G01X-0001694Y-0010643
G01X0Y-0010787
G01X01772Y-0010787
G01X0179188Y-0010588
M16
M17
M30
