G04 Layer_Physical_Order=4*
G04 Layer_Color=16711680*
%FSLAX25Y25*%
%MOIN*%
G70*
G01*
G75*
%ADD21R,0.02028X0.02362*%
%ADD22R,0.02362X0.02028*%
%ADD23R,0.03347X0.02559*%
G04:AMPARAMS|DCode=25|XSize=31.5mil|YSize=31.5mil|CornerRadius=15.75mil|HoleSize=0mil|Usage=FLASHONLY|Rotation=90.000|XOffset=0mil|YOffset=0mil|HoleType=Round|Shape=RoundedRectangle|*
%AMROUNDEDRECTD25*
21,1,0.03150,0.00000,0,0,90.0*
21,1,0.00000,0.03150,0,0,90.0*
1,1,0.03150,0.00000,0.00000*
1,1,0.03150,0.00000,0.00000*
1,1,0.03150,0.00000,0.00000*
1,1,0.03150,0.00000,0.00000*
%
%ADD25ROUNDEDRECTD25*%
%ADD26C,0.00700*%
%ADD27C,0.01200*%
%ADD29C,0.01500*%
%ADD30C,0.01000*%
%ADD35O,0.15748X0.07874*%
%ADD36C,0.03937*%
%ADD37C,0.02000*%
%ADD38C,0.03600*%
%ADD47R,0.05500X0.03500*%
%ADD48R,0.04331X0.03937*%
%ADD49R,0.11811X0.03937*%
%ADD50R,0.03700X0.03600*%
G04:AMPARAMS|DCode=51|XSize=9.45mil|YSize=23.62mil|CornerRadius=4.73mil|HoleSize=0mil|Usage=FLASHONLY|Rotation=90.000|XOffset=0mil|YOffset=0mil|HoleType=Round|Shape=RoundedRectangle|*
%AMROUNDEDRECTD51*
21,1,0.00945,0.01417,0,0,90.0*
21,1,0.00000,0.02362,0,0,90.0*
1,1,0.00945,0.00709,0.00000*
1,1,0.00945,0.00709,0.00000*
1,1,0.00945,-0.00709,0.00000*
1,1,0.00945,-0.00709,0.00000*
%
%ADD51ROUNDEDRECTD51*%
%ADD52R,0.00787X0.03150*%
%ADD53R,0.06220X0.11220*%
%ADD54R,0.02559X0.03347*%
%ADD55R,0.11000X0.06300*%
%ADD56R,0.03600X0.03700*%
%ADD57R,0.09000X0.06100*%
%ADD58R,0.05700X0.08200*%
%ADD59R,0.02600X0.07300*%
%ADD60R,0.40863X0.09263*%
%ADD61R,0.07137X0.03000*%
%ADD62R,0.07100X0.11300*%
%ADD63R,0.03000X0.14200*%
%ADD64R,0.17600X0.03000*%
%ADD65R,0.09000X0.03000*%
%ADD66R,0.04300X0.07300*%
%ADD67R,0.06500X0.10000*%
%ADD68R,0.43800X0.06000*%
%ADD69R,0.10500X0.07000*%
%ADD70R,0.11500X0.07500*%
%ADD71R,0.05900X0.05900*%
%ADD72R,0.04000X0.05300*%
D21*
X93018Y12000D02*
D03*
X88982D02*
D03*
X150018Y25000D02*
D03*
X145982D02*
D03*
X157018Y33000D02*
D03*
X152982D02*
D03*
X58982Y49000D02*
D03*
X63018D02*
D03*
Y35000D02*
D03*
X58982D02*
D03*
X63018Y18000D02*
D03*
X58982D02*
D03*
X93018Y16000D02*
D03*
X88982D02*
D03*
X63018Y26000D02*
D03*
X58982D02*
D03*
Y45000D02*
D03*
X63018D02*
D03*
X157818Y43000D02*
D03*
X153782D02*
D03*
X86018Y16000D02*
D03*
X81982D02*
D03*
X86018Y12000D02*
D03*
X81982D02*
D03*
X100018Y58000D02*
D03*
X95982D02*
D03*
D22*
X129000Y68018D02*
D03*
Y63982D02*
D03*
X135000Y8982D02*
D03*
Y13018D02*
D03*
X127000Y8982D02*
D03*
Y13018D02*
D03*
X131000Y8982D02*
D03*
Y13018D02*
D03*
X137000Y26018D02*
D03*
Y21982D02*
D03*
X134163Y39581D02*
D03*
Y35545D02*
D03*
Y46981D02*
D03*
Y42945D02*
D03*
X51200Y67518D02*
D03*
Y63482D02*
D03*
X40400Y67518D02*
D03*
Y63482D02*
D03*
X45600Y67518D02*
D03*
Y63482D02*
D03*
X36400Y67518D02*
D03*
Y63482D02*
D03*
X106000Y14018D02*
D03*
Y9982D02*
D03*
X121000Y68018D02*
D03*
Y63982D02*
D03*
X125000Y68018D02*
D03*
Y63982D02*
D03*
D23*
X63362Y41000D02*
D03*
X58638D02*
D03*
X58638Y22000D02*
D03*
X63362D02*
D03*
X58638Y14000D02*
D03*
X63362D02*
D03*
X58638Y31000D02*
D03*
X63362D02*
D03*
D25*
X40000Y10000D02*
D03*
X174200Y35100D02*
D03*
X160000Y5000D02*
D03*
X111000Y53900D02*
D03*
X25000Y64700D02*
D03*
X81000Y58000D02*
D03*
X85600Y65000D02*
D03*
X95000D02*
D03*
X72000Y31000D02*
D03*
D26*
X121000Y21000D02*
X125000D01*
X121000Y6000D02*
X121982Y6982D01*
X114000Y6018D02*
X114018Y6000D01*
X64495Y33523D02*
X67000D01*
X63018Y18000D02*
Y26000D01*
X100018Y58000D02*
X106000D01*
X110000Y62000D01*
Y69000D01*
X110700Y69700D01*
X114350D01*
X96000Y72000D02*
X102000Y66000D01*
X105650D01*
X92398Y58000D02*
X95982D01*
X85000Y29000D02*
Y50602D01*
X92398Y58000D01*
X94000Y61299D02*
Y70000D01*
X77000Y44299D02*
X94000Y61299D01*
X119000Y23000D02*
X121000Y21000D01*
X94697Y23000D02*
X119000D01*
X94533Y23165D02*
X94697Y23000D01*
X90835Y23165D02*
X94533D01*
X85000Y29000D02*
X90835Y23165D01*
X77000Y22000D02*
Y44299D01*
X86800Y55900D02*
X90100Y59200D01*
X86800Y55803D02*
Y55900D01*
X79797Y48800D02*
X86800Y55803D01*
X75497Y48800D02*
X79797D01*
X82000Y9982D02*
Y16000D01*
X99000Y10000D02*
X103000Y6000D01*
X99000Y10000D02*
Y17000D01*
X94035Y21965D02*
X99000Y17000D01*
X88000Y21965D02*
X94035D01*
X86018Y19982D02*
X88000Y21965D01*
X86018Y16000D02*
Y19982D01*
Y16000D02*
X88982D01*
X88200Y5000D02*
X88982Y5782D01*
Y12000D01*
X86018D02*
X88982D01*
X82000Y9982D02*
X84000Y7982D01*
Y4000D02*
Y7982D01*
X126618Y13400D02*
X127000Y13018D01*
X111000Y7000D02*
Y10000D01*
X106300Y2300D02*
X111000Y7000D01*
X33300Y2300D02*
X106300D01*
X63018Y18000D02*
X63362Y17655D01*
Y14000D02*
Y17655D01*
Y22000D02*
X68000D01*
X57000Y18000D02*
X58982D01*
X53000Y22000D02*
X57000Y18000D01*
X10933Y22000D02*
X53000D01*
X58638Y17655D02*
X58982Y18000D01*
X58638Y14000D02*
Y17655D01*
Y14000D02*
X61638Y11000D01*
X66000D01*
X58638Y25655D02*
X58982Y26000D01*
X58638Y22000D02*
Y25655D01*
X7110Y25823D02*
X10933Y22000D01*
X66000Y11000D02*
X77000Y22000D01*
X69200Y40000D02*
Y44200D01*
X66231Y37031D02*
X69200Y40000D01*
X61090Y37031D02*
X66231D01*
X59059Y35000D02*
X61090Y37031D01*
X58982Y35000D02*
X59059D01*
X13700Y31300D02*
X55000D01*
X55300Y31000D01*
X58638D01*
X58982Y31345D02*
Y35000D01*
X58638Y31000D02*
X58982Y31345D01*
X63018Y31345D02*
X63362Y31000D01*
X63018Y31345D02*
Y35000D01*
X64495Y33523D01*
X60362Y38000D02*
X63362Y41000D01*
X55744Y38000D02*
X60362D01*
X53567Y35823D02*
X55744Y38000D01*
X58982Y26000D02*
X61013Y28031D01*
X64384D01*
X64415Y28000D02*
X69000D01*
X64384Y28031D02*
X64415Y28000D01*
X69000D02*
X72000Y31000D01*
X70000Y49000D02*
X74100Y53100D01*
X63018Y49000D02*
X70000D01*
X63018Y45000D02*
Y49000D01*
Y45000D02*
X63362Y44655D01*
Y41000D02*
Y44655D01*
X53567Y25823D02*
X53744Y26000D01*
X58982D01*
X106000Y5000D02*
Y9982D01*
X104500Y3500D02*
X106000Y5000D01*
X96171Y3500D02*
X104500D01*
X160300Y21300D02*
X164350D01*
X157000Y18000D02*
X160300Y21300D01*
X157000Y16000D02*
Y18000D01*
X153300Y11300D02*
X157000Y15000D01*
X149350Y11300D02*
X153300D01*
X157000Y15000D02*
Y16000D01*
X174200Y35100D02*
Y39238D01*
X176762D01*
X164300D02*
X174200D01*
X176762D02*
X177000Y39000D01*
X38000Y8000D02*
X40000Y10000D01*
X85600Y69900D02*
Y70500D01*
Y65000D02*
Y69900D01*
Y56300D02*
Y65000D01*
X72000Y45303D02*
X75497Y48800D01*
X72000Y31000D02*
Y45303D01*
X8000Y7000D02*
X28600D01*
X7000Y6000D02*
X8000Y7000D01*
X6000Y69000D02*
X7000Y68000D01*
X26300D01*
X38000Y5500D02*
X38000Y5500D01*
X38000Y5500D02*
Y8000D01*
X79500Y56500D02*
X81000Y58000D01*
X79500Y53100D02*
Y56500D01*
X88200Y5000D02*
Y5600D01*
X140000Y28900D02*
X147900D01*
X138151Y30749D02*
Y40131D01*
X134363Y35667D02*
X135051Y34979D01*
X138151Y30749D02*
X140000Y28900D01*
X133700Y32000D02*
X134163Y32463D01*
Y35519D01*
Y35545D01*
X102482Y15518D02*
X102500Y15500D01*
X157818Y41282D02*
Y43000D01*
Y41282D02*
X159862Y39238D01*
X164300D01*
X30300Y72000D02*
X96000D01*
X7110Y35823D02*
X9177D01*
X13700Y31300D01*
X7110Y25823D02*
X9177D01*
X13700Y41300D02*
X48090D01*
X53567Y35823D01*
X26300Y68000D02*
X30300Y72000D01*
X7110Y45823D02*
X9177D01*
X13700Y41300D01*
X74100Y53100D02*
X79500D01*
X75000Y50000D02*
X79300D01*
X69200Y44200D02*
X75000Y50000D01*
X79300D02*
X85600Y56300D01*
X28600Y7000D02*
X33300Y2300D01*
X34000Y5000D02*
X35500Y3500D01*
X147900Y28900D02*
X149300Y30300D01*
X83500Y3500D02*
X84000Y4000D01*
X35500Y3500D02*
X83500D01*
X91356Y28756D02*
X92000Y29400D01*
X152982Y33000D02*
Y35982D01*
X154000Y37000D01*
X149300Y30300D02*
Y37300D01*
X153550Y41550D01*
Y43122D01*
X154028Y43600D01*
X94601Y5070D02*
X96171Y3500D01*
X151000Y69700D02*
X151833D01*
X151417D01*
Y67201D01*
X151000Y67617D01*
X153083Y69700D02*
Y69283D01*
X153499D01*
Y69700D01*
X153083D01*
X155165Y67617D02*
X155582Y67201D01*
X156415D01*
X156831Y67617D01*
Y69283D01*
X156415Y69700D01*
X155582D01*
X155165Y69283D01*
Y67617D01*
X160164Y69700D02*
Y67201D01*
X161413D01*
X161830Y67617D01*
Y68450D01*
X161413Y68867D01*
X160164D01*
X160997D02*
X161830Y69700D01*
X163912D02*
X163079D01*
X162663Y69283D01*
Y68450D01*
X163079Y68034D01*
X163912D01*
X164329Y68450D01*
Y68867D01*
X162663D01*
X165162Y68034D02*
X165995Y69700D01*
X166828Y68034D01*
X171827Y67201D02*
X170993D01*
X171410D01*
Y69283D01*
X170993Y69700D01*
X170577D01*
X170160Y69283D01*
X137000Y71001D02*
Y74000D01*
Y72500D01*
X138999D01*
Y71001D01*
Y74000D01*
X141499Y71001D02*
X140499D01*
X139999Y71501D01*
Y73500D01*
X140499Y74000D01*
X141499D01*
X141998Y73500D01*
Y71501D01*
X141499Y71001D01*
X142998D02*
Y74000D01*
X144997D01*
X147497Y71001D02*
X146497D01*
X145997Y71501D01*
Y73500D01*
X146497Y74000D01*
X147497D01*
X147996Y73500D01*
Y71501D01*
X147497Y71001D01*
X150996Y71501D02*
X150496Y71001D01*
X149496D01*
X148996Y71501D01*
Y73500D01*
X149496Y74000D01*
X150496D01*
X150996Y73500D01*
Y72500D01*
X149996D01*
X151995Y74000D02*
Y71001D01*
X153495D01*
X153995Y71501D01*
Y72500D01*
X153495Y73000D01*
X151995D01*
X152995D02*
X153995Y74000D01*
X154994D02*
Y72001D01*
X155994Y71001D01*
X156993Y72001D01*
Y74000D01*
Y72500D01*
X154994D01*
X157993Y74000D02*
Y71001D01*
X158993Y72001D01*
X159993Y71001D01*
Y74000D01*
X134000Y69700D02*
Y65801D01*
X136599Y69700D01*
Y65801D01*
X138549Y69700D02*
X139848D01*
X140498Y69050D01*
Y67751D01*
X139848Y67101D01*
X138549D01*
X137899Y67751D01*
Y69050D01*
X138549Y69700D01*
X141797Y67101D02*
X143097Y69700D01*
X144397Y67101D01*
X146346D02*
X147646D01*
X148295Y67751D01*
Y69700D01*
X146346D01*
X145696Y69050D01*
X146346Y68400D01*
X148295D01*
D27*
X114018Y6000D02*
X121000D01*
X114350Y62300D02*
X117300D01*
X118982Y63982D01*
X121000D01*
X125000D01*
X129000D01*
X93018Y12000D02*
Y16000D01*
Y16782D01*
X90100Y19700D02*
X93018Y16782D01*
X121982Y6982D02*
X125000D01*
X127000Y8982D01*
X131000D01*
X135000D01*
X131000Y13018D02*
X135000D01*
X127000D02*
X131000D01*
X58638Y41000D02*
X58982Y41344D01*
Y45000D01*
Y49000D01*
X58159Y45823D02*
X58982Y45000D01*
X53567Y45823D02*
X58159D01*
X53567Y51567D02*
X56000Y54000D01*
X53567Y45823D02*
Y51567D01*
X56000Y54000D02*
X58600Y56600D01*
X155650Y21650D02*
Y25000D01*
X152700Y18700D02*
X155650Y21650D01*
X149350Y18700D02*
X152700D01*
X150018Y25000D02*
X155650D01*
X164350Y28700D02*
Y30650D01*
X162000Y33000D02*
X164350Y30650D01*
X157018Y33000D02*
X162000D01*
X159300Y47450D02*
X160000Y46750D01*
X137000Y19000D02*
X139982Y16018D01*
X137000Y19000D02*
Y21982D01*
X139982Y15668D02*
X140650Y15000D01*
X139982Y15668D02*
Y16018D01*
X121000Y13400D02*
X126618D01*
X106000Y14018D02*
X121000D01*
D29*
X129000Y59100D02*
Y63982D01*
X126900Y57000D02*
X129000Y59100D01*
X121000Y68018D02*
X125000D01*
X129000D01*
X118982D02*
X121000D01*
X117300Y69700D02*
X118982Y68018D01*
X114350Y69700D02*
X117300D01*
X58600Y56600D02*
X65300D01*
X130755Y47055D02*
X134363D01*
X142000Y25000D02*
X145982D01*
X51200Y63482D02*
X54718D01*
X61400Y56800D01*
X65400Y67800D02*
X66150Y68550D01*
X73900D01*
X75400Y62450D02*
X75700Y62150D01*
Y58100D02*
Y62150D01*
X36400Y63482D02*
X40300D01*
X45600D02*
X50800D01*
X45600Y67818D02*
X45700Y67918D01*
X51200D02*
X51318Y67800D01*
X129363Y43187D02*
Y45663D01*
X130755Y47055D01*
X43100Y58700D02*
Y63482D01*
X18900Y63862D02*
X24462D01*
X137000Y26018D02*
X138018Y25000D01*
X40400Y63482D02*
X43100D01*
X45600D01*
X138018Y25000D02*
X142000D01*
X24462Y63862D02*
X28418Y67818D01*
X45600D01*
X45700Y67918D02*
X51200D01*
X51318Y67800D02*
X65400D01*
D30*
X143663Y43737D02*
Y46037D01*
Y43737D02*
X145300Y42100D01*
X142426D02*
X143663Y43337D01*
X138151Y42100D02*
X142426D01*
X134163Y35667D02*
X134363D01*
X130731Y35519D02*
X134163D01*
Y42945D02*
Y43019D01*
Y39581D02*
Y42945D01*
Y39555D02*
Y39581D01*
X169000Y43000D02*
X177000D01*
X168038Y43962D02*
X169000Y43000D01*
X164300Y43962D02*
X168038D01*
X160000Y5000D02*
Y10000D01*
X107800Y50700D02*
X111000Y53900D01*
X107800Y46200D02*
Y50700D01*
X152604Y44068D02*
X153550Y43122D01*
X134363Y43167D02*
X135493D01*
X136394Y44068D01*
X138151D01*
X129363Y36887D02*
X130731Y35519D01*
X134363Y39407D02*
Y39555D01*
Y43019D02*
Y43167D01*
X145300Y42100D02*
X149175D01*
X143663Y43337D02*
Y43737D01*
X149175Y44068D02*
X152604D01*
D35*
X172100Y60431D02*
D03*
Y14368D02*
D03*
D36*
X46677Y53933D02*
D03*
X14000Y18500D02*
D03*
D37*
X125000Y21000D02*
D03*
X103000Y55000D02*
D03*
X140000Y10000D02*
D03*
X68000Y22000D02*
D03*
X170000Y23000D02*
D03*
X177000Y43000D02*
D03*
Y39000D02*
D03*
X160000Y10000D02*
D03*
X5000Y55000D02*
D03*
X38000Y5500D02*
D03*
X157000Y60000D02*
D03*
X160000Y58000D02*
D03*
X133000D02*
D03*
Y62000D02*
D03*
X157000Y16000D02*
D03*
X6000Y69000D02*
D03*
X14200Y65600D02*
D03*
X14500Y12100D02*
D03*
X133700Y32000D02*
D03*
X98000Y29400D02*
D03*
X92000Y52400D02*
D03*
Y29400D02*
D03*
X95000Y52400D02*
D03*
X75700Y58100D02*
D03*
X85600Y69900D02*
D03*
X7000Y6000D02*
D03*
X141800Y49037D02*
D03*
X103000Y6000D02*
D03*
X34000Y5000D02*
D03*
X79500Y53100D02*
D03*
X94000Y70000D02*
D03*
X90000Y60000D02*
D03*
X18700Y12400D02*
D03*
X144800Y43132D02*
D03*
X102500Y15500D02*
D03*
X88200Y5000D02*
D03*
X126900Y57000D02*
D03*
X90100Y19700D02*
D03*
X55000Y17000D02*
D03*
X43100Y58700D02*
D03*
X141800Y47069D02*
D03*
X144800Y45100D02*
D03*
X141800Y43132D02*
D03*
X144800Y49037D02*
D03*
Y47069D02*
D03*
X141800Y45100D02*
D03*
X98000Y52400D02*
D03*
X95000Y29400D02*
D03*
X94601Y5070D02*
D03*
X99000Y5500D02*
D03*
X150100Y62500D02*
D03*
Y60000D02*
D03*
X142000Y25000D02*
D03*
X154000Y37000D02*
D03*
X5000Y41000D02*
D03*
X67000Y33623D02*
D03*
X56000Y54000D02*
D03*
X114000Y6000D02*
D03*
X177000Y52000D02*
D03*
Y50000D02*
D03*
D38*
X18900Y63862D02*
D03*
D47*
X112300Y10700D02*
D03*
X121000Y7000D02*
D03*
Y14400D02*
D03*
X164350Y28700D02*
D03*
Y21300D02*
D03*
X155650Y25000D02*
D03*
X149350Y18700D02*
D03*
Y11300D02*
D03*
X140650Y15000D02*
D03*
X105650Y66000D02*
D03*
X114350Y62300D02*
D03*
Y69700D02*
D03*
D48*
X53567Y45823D02*
D03*
Y35823D02*
D03*
Y25823D02*
D03*
X7110Y45823D02*
D03*
Y35823D02*
D03*
Y25823D02*
D03*
D49*
X30339Y56689D02*
D03*
Y14957D02*
D03*
D50*
X171050Y53000D02*
D03*
X164950D02*
D03*
D51*
X149175Y51943D02*
D03*
Y48006D02*
D03*
Y46037D02*
D03*
Y49974D02*
D03*
Y44068D02*
D03*
Y42100D02*
D03*
Y40131D02*
D03*
X138151Y51943D02*
D03*
Y49974D02*
D03*
Y48006D02*
D03*
Y44068D02*
D03*
Y42100D02*
D03*
Y46037D02*
D03*
Y40131D02*
D03*
D52*
X146379Y53124D02*
D03*
X144569D02*
D03*
X142757D02*
D03*
X146379Y38950D02*
D03*
X144569D02*
D03*
X142757D02*
D03*
X140946Y53124D02*
D03*
Y38950D02*
D03*
D53*
X143663Y46037D02*
D03*
D54*
X164300Y43962D02*
D03*
Y39238D02*
D03*
D55*
X65400Y67600D02*
D03*
Y56600D02*
D03*
X107800Y46200D02*
D03*
Y35200D02*
D03*
X94000Y46100D02*
D03*
Y35100D02*
D03*
D56*
X123863Y43087D02*
D03*
Y36987D02*
D03*
X159400Y53750D02*
D03*
Y47650D02*
D03*
X153800Y53650D02*
D03*
Y47550D02*
D03*
X117800Y43050D02*
D03*
Y36950D02*
D03*
X129363Y43087D02*
D03*
Y36987D02*
D03*
X75400Y68550D02*
D03*
Y62450D02*
D03*
D57*
X176500Y52050D02*
D03*
D58*
X149350Y60500D02*
D03*
D59*
X136100Y52950D02*
D03*
D60*
X109932Y46169D02*
D03*
D61*
X133932Y47037D02*
D03*
D62*
X135750Y58050D02*
D03*
D63*
X149300Y56700D02*
D03*
D64*
X158200Y47100D02*
D03*
D65*
X156800Y53600D02*
D03*
D66*
X159150Y55750D02*
D03*
D67*
X143550Y35600D02*
D03*
D68*
X109900D02*
D03*
D69*
X94750Y50400D02*
D03*
D70*
X93750Y32150D02*
D03*
D71*
X158950Y58350D02*
D03*
D72*
X165000Y49350D02*
D03*
M02*
