G04 Layer_Color=65535*
%FSLAX25Y25*%
%MOIN*%
G70*
G01*
G75*
%ADD26C,0.00700*%
%ADD28C,0.00500*%
%ADD73C,0.01575*%
%ADD74C,0.00630*%
%ADD75C,0.00600*%
%ADD76C,0.00800*%
%ADD77C,0.00630*%
G36*
X134605Y7061D02*
X134637Y7056D01*
X134706Y7047D01*
X134785Y7028D01*
X134868Y7000D01*
X134951Y6959D01*
X135025Y6908D01*
X135034Y6899D01*
X135057Y6876D01*
X135085Y6839D01*
X135122Y6788D01*
X135159Y6728D01*
X135187Y6649D01*
X135210Y6562D01*
X135219Y6460D01*
Y5582D01*
Y5573D01*
Y5550D01*
Y5513D01*
X135224Y5471D01*
Y5425D01*
X135233Y5379D01*
X135238Y5342D01*
X135247Y5314D01*
X135251Y5305D01*
X135270Y5291D01*
X135298Y5273D01*
X135321Y5268D01*
X135344Y5263D01*
X135385D01*
X135432Y5268D01*
X135496Y5277D01*
X135556Y5097D01*
X135552Y5092D01*
X135547Y5088D01*
X135529Y5074D01*
X135510Y5060D01*
X135487Y5042D01*
X135459Y5028D01*
X135390Y5000D01*
X135385D01*
X135371Y4995D01*
X135353Y4991D01*
X135330Y4986D01*
X135265Y4972D01*
X135196Y4968D01*
X135177D01*
X135154Y4972D01*
X135131Y4977D01*
X135099Y4986D01*
X135062Y5005D01*
X135030Y5023D01*
X134993Y5051D01*
X134988Y5055D01*
X134979Y5065D01*
X134965Y5088D01*
X134946Y5116D01*
X134928Y5148D01*
X134909Y5189D01*
X134896Y5240D01*
X134892Y5262D01*
X134872Y5245D01*
X134831Y5212D01*
X134785Y5171D01*
X134729Y5129D01*
X134665Y5092D01*
X134595Y5055D01*
X134586Y5051D01*
X134563Y5042D01*
X134526Y5028D01*
X134475Y5014D01*
X134415Y4995D01*
X134346Y4981D01*
X134272Y4972D01*
X134193Y4968D01*
X134152D01*
X134106Y4977D01*
X134046Y4986D01*
X133981Y5000D01*
X133912Y5023D01*
X133842Y5055D01*
X133782Y5102D01*
X133777Y5106D01*
X133759Y5129D01*
X133736Y5157D01*
X133708Y5203D01*
X133676Y5259D01*
X133653Y5328D01*
X133634Y5407D01*
X133630Y5499D01*
Y5504D01*
Y5513D01*
Y5527D01*
X133634Y5545D01*
X133639Y5596D01*
X133653Y5661D01*
X133671Y5730D01*
X133704Y5804D01*
X133745Y5878D01*
X133801Y5947D01*
X133810Y5956D01*
X133833Y5975D01*
X133870Y6007D01*
X133921Y6044D01*
X133985Y6081D01*
X134064Y6123D01*
X134152Y6160D01*
X134253Y6192D01*
X134258D01*
X134267Y6197D01*
X134281Y6201D01*
X134304Y6206D01*
X134327Y6210D01*
X134360Y6215D01*
X134438Y6233D01*
X134526Y6247D01*
X134628Y6257D01*
X134739Y6266D01*
X134854Y6271D01*
Y6386D01*
Y6391D01*
Y6395D01*
Y6423D01*
X134849Y6460D01*
X134845Y6511D01*
X134831Y6557D01*
X134817Y6608D01*
X134794Y6654D01*
X134762Y6686D01*
X134757Y6691D01*
X134743Y6700D01*
X134725Y6709D01*
X134697Y6728D01*
X134665Y6742D01*
X134623Y6751D01*
X134572Y6760D01*
X134521Y6765D01*
X134489D01*
X134452Y6760D01*
X134401Y6756D01*
X134346Y6746D01*
X134286Y6728D01*
X134226Y6709D01*
X134166Y6682D01*
X134161Y6677D01*
X134142Y6668D01*
X134110Y6654D01*
X134078Y6631D01*
X133995Y6585D01*
X133953Y6552D01*
X133916Y6525D01*
X133731Y6760D01*
X133736Y6765D01*
X133750Y6783D01*
X133777Y6806D01*
X133810Y6834D01*
X133856Y6866D01*
X133912Y6903D01*
X133981Y6940D01*
X134055Y6973D01*
X134059D01*
X134064Y6977D01*
X134092Y6987D01*
X134138Y7000D01*
X134193Y7019D01*
X134267Y7037D01*
X134346Y7051D01*
X134434Y7061D01*
X134526Y7065D01*
X134577D01*
X134605Y7061D01*
D02*
G37*
G36*
X130617D02*
X130654Y7056D01*
X130701Y7051D01*
X130747Y7042D01*
X130798Y7028D01*
X130909Y6991D01*
X130969Y6968D01*
X131024Y6936D01*
X131084Y6903D01*
X131135Y6862D01*
X131190Y6816D01*
X131237Y6760D01*
X131241Y6756D01*
X131246Y6746D01*
X131260Y6728D01*
X131273Y6705D01*
X131292Y6677D01*
X131315Y6640D01*
X131338Y6599D01*
X131361Y6552D01*
X131380Y6502D01*
X131403Y6441D01*
X131426Y6381D01*
X131444Y6312D01*
X131472Y6169D01*
X131477Y6090D01*
X131481Y6007D01*
Y6002D01*
Y5989D01*
Y5966D01*
X131477Y5938D01*
X131472Y5901D01*
X131467Y5855D01*
X131458Y5808D01*
X131449Y5758D01*
X131417Y5642D01*
X131370Y5517D01*
X131343Y5457D01*
X131310Y5393D01*
X131269Y5333D01*
X131223Y5273D01*
X131218Y5268D01*
X131209Y5259D01*
X131195Y5245D01*
X131176Y5226D01*
X131153Y5203D01*
X131121Y5176D01*
X131084Y5148D01*
X131043Y5120D01*
X130996Y5092D01*
X130946Y5065D01*
X130835Y5014D01*
X130770Y4995D01*
X130701Y4981D01*
X130627Y4972D01*
X130553Y4968D01*
X130507D01*
X130474Y4972D01*
X130433Y4977D01*
X130386Y4981D01*
X130336Y4991D01*
X130280Y5005D01*
X130165Y5042D01*
X130105Y5065D01*
X130045Y5092D01*
X129984Y5125D01*
X129929Y5166D01*
X129878Y5212D01*
X129827Y5263D01*
X129823Y5268D01*
X129818Y5277D01*
X129804Y5296D01*
X129790Y5319D01*
X129772Y5347D01*
X129749Y5384D01*
X129726Y5425D01*
X129707Y5471D01*
X129684Y5527D01*
X129661Y5582D01*
X129638Y5647D01*
X129620Y5716D01*
X129606Y5790D01*
X129592Y5873D01*
X129587Y5956D01*
X129583Y6044D01*
Y6049D01*
Y6063D01*
Y6086D01*
X129587Y6118D01*
X129592Y6155D01*
X129596Y6197D01*
X129606Y6247D01*
X129615Y6298D01*
X129647Y6414D01*
X129670Y6474D01*
X129693Y6534D01*
X129726Y6594D01*
X129758Y6654D01*
X129800Y6714D01*
X129846Y6769D01*
X129850Y6774D01*
X129860Y6783D01*
X129874Y6797D01*
X129892Y6816D01*
X129920Y6839D01*
X129952Y6862D01*
X129989Y6890D01*
X130031Y6917D01*
X130081Y6945D01*
X130132Y6973D01*
X130188Y6996D01*
X130253Y7019D01*
X130317Y7037D01*
X130391Y7051D01*
X130465Y7061D01*
X130543Y7065D01*
X130585D01*
X130617Y7061D01*
D02*
G37*
G36*
X138887Y5319D02*
X139363D01*
Y5000D01*
X137982D01*
Y5319D01*
X138499D01*
Y7527D01*
X137963Y7245D01*
Y7601D01*
X138582Y7920D01*
X138887D01*
Y5319D01*
D02*
G37*
G36*
X129111Y5000D02*
X128751D01*
X127383Y7338D01*
Y5000D01*
X127000D01*
X126995Y7920D01*
X127365D01*
X128723Y5568D01*
Y7920D01*
X129111D01*
Y5000D01*
D02*
G37*
G36*
X132747D02*
X132410D01*
X131712Y7037D01*
X132091D01*
X132586Y5360D01*
X133061Y7037D01*
X133440D01*
X132747Y5000D01*
D02*
G37*
G36*
X141738Y7989D02*
X141779Y7984D01*
X141821Y7975D01*
X141872Y7961D01*
X141923Y7948D01*
X141978Y7929D01*
X142034Y7906D01*
X142094Y7874D01*
X142154Y7837D01*
X142209Y7795D01*
X142264Y7744D01*
X142315Y7689D01*
X142361Y7624D01*
X142366Y7620D01*
X142371Y7606D01*
X142385Y7587D01*
X142399Y7555D01*
X142417Y7513D01*
X142440Y7467D01*
X142463Y7407D01*
X142486Y7342D01*
X142505Y7264D01*
X142528Y7181D01*
X142551Y7084D01*
X142569Y6977D01*
X142583Y6866D01*
X142597Y6742D01*
X142602Y6603D01*
X142606Y6460D01*
Y6451D01*
Y6428D01*
Y6386D01*
X142602Y6335D01*
X142597Y6271D01*
X142593Y6201D01*
X142588Y6118D01*
X142574Y6035D01*
X142546Y5850D01*
X142500Y5661D01*
X142472Y5568D01*
X142440Y5485D01*
X142403Y5402D01*
X142357Y5328D01*
X142352Y5323D01*
X142348Y5314D01*
X142329Y5296D01*
X142311Y5273D01*
X142283Y5240D01*
X142255Y5212D01*
X142218Y5176D01*
X142177Y5143D01*
X142126Y5111D01*
X142075Y5074D01*
X142015Y5046D01*
X141955Y5018D01*
X141886Y4991D01*
X141812Y4972D01*
X141733Y4963D01*
X141650Y4958D01*
X141627D01*
X141604Y4963D01*
X141571D01*
X141530Y4972D01*
X141484Y4981D01*
X141433Y4991D01*
X141377Y5009D01*
X141322Y5028D01*
X141262Y5055D01*
X141202Y5088D01*
X141142Y5125D01*
X141086Y5171D01*
X141031Y5226D01*
X140980Y5286D01*
X140934Y5356D01*
X140929Y5360D01*
X140925Y5374D01*
X140915Y5397D01*
X140897Y5430D01*
X140883Y5471D01*
X140865Y5522D01*
X140841Y5582D01*
X140823Y5651D01*
X140800Y5725D01*
X140781Y5813D01*
X140758Y5910D01*
X140744Y6012D01*
X140731Y6127D01*
X140717Y6247D01*
X140712Y6377D01*
X140708Y6515D01*
Y6525D01*
Y6543D01*
Y6580D01*
X140712Y6626D01*
X140717Y6682D01*
X140721Y6746D01*
X140726Y6820D01*
X140735Y6899D01*
X140749Y6982D01*
X140763Y7070D01*
X140809Y7250D01*
X140832Y7338D01*
X140865Y7425D01*
X140902Y7509D01*
X140943Y7587D01*
X140948Y7592D01*
X140952Y7606D01*
X140966Y7624D01*
X140989Y7652D01*
X141013Y7680D01*
X141045Y7717D01*
X141082Y7754D01*
X141123Y7790D01*
X141170Y7827D01*
X141225Y7864D01*
X141280Y7901D01*
X141345Y7929D01*
X141419Y7957D01*
X141493Y7975D01*
X141576Y7989D01*
X141664Y7994D01*
X141710D01*
X141738Y7989D01*
D02*
G37*
G36*
X127977Y4512D02*
X128018D01*
X128069Y4502D01*
X128125Y4496D01*
X128181Y4486D01*
X128308Y4456D01*
X128440Y4410D01*
X128501Y4385D01*
X128563Y4349D01*
X128624Y4313D01*
X128675Y4267D01*
X128680Y4262D01*
X128685Y4257D01*
X128700Y4242D01*
X128715Y4222D01*
X128736Y4196D01*
X128761Y4166D01*
X128787Y4130D01*
X128812Y4089D01*
X128858Y3993D01*
X128904Y3881D01*
X128934Y3748D01*
X128939Y3672D01*
X128944Y3596D01*
Y3590D01*
Y3580D01*
Y3565D01*
X128939Y3545D01*
Y3514D01*
X128934Y3484D01*
X128919Y3407D01*
X128893Y3321D01*
X128858Y3224D01*
X128807Y3132D01*
X128736Y3036D01*
Y3031D01*
X128726Y3025D01*
X128700Y2995D01*
X128659Y2954D01*
X128603Y2903D01*
X128537Y2852D01*
X128461Y2802D01*
X128379Y2756D01*
X128293Y2725D01*
X129168Y1300D01*
X128695D01*
X127891Y2644D01*
X127850D01*
X127835Y2639D01*
X127641D01*
X127575Y2634D01*
X127422D01*
Y1300D01*
X127000D01*
Y4517D01*
X127942D01*
X127977Y4512D01*
D02*
G37*
G36*
X130431Y3570D02*
X130466D01*
X130502Y3565D01*
X130594Y3550D01*
X130695Y3519D01*
X130797Y3478D01*
X130899Y3428D01*
X130950Y3392D01*
X130996Y3351D01*
X131001D01*
X131006Y3341D01*
X131031Y3311D01*
X131072Y3260D01*
X131118Y3193D01*
X131164Y3107D01*
X131209Y3005D01*
X131240Y2888D01*
X131260Y2751D01*
Y2746D01*
Y2725D01*
X131265Y2690D01*
Y2649D01*
X131271Y2598D01*
Y2537D01*
Y2471D01*
X131265Y2399D01*
X129820D01*
Y2394D01*
Y2384D01*
Y2369D01*
X129825Y2348D01*
X129830Y2287D01*
X129840Y2216D01*
X129856Y2130D01*
X129886Y2033D01*
X129922Y1936D01*
X129973Y1845D01*
X129978Y1835D01*
X130003Y1809D01*
X130034Y1768D01*
X130085Y1728D01*
X130140Y1682D01*
X130212Y1641D01*
X130293Y1616D01*
X130339Y1610D01*
X130385Y1605D01*
X130420D01*
X130456Y1610D01*
X130502Y1616D01*
X130558Y1626D01*
X130614Y1641D01*
X130670Y1661D01*
X130726Y1687D01*
X130731Y1692D01*
X130751Y1702D01*
X130782Y1722D01*
X130817Y1753D01*
X130863Y1789D01*
X130914Y1835D01*
X130970Y1885D01*
X131026Y1952D01*
X131306Y1733D01*
X131301Y1722D01*
X131281Y1697D01*
X131245Y1656D01*
X131199Y1605D01*
X131148Y1549D01*
X131082Y1493D01*
X131011Y1437D01*
X130935Y1386D01*
X130924Y1381D01*
X130899Y1366D01*
X130853Y1346D01*
X130787Y1326D01*
X130711Y1305D01*
X130614Y1285D01*
X130507Y1269D01*
X130385Y1264D01*
X130344D01*
X130308Y1269D01*
X130273Y1275D01*
X130227Y1280D01*
X130125Y1305D01*
X130013Y1341D01*
X129952Y1366D01*
X129891Y1397D01*
X129835Y1432D01*
X129774Y1473D01*
X129718Y1519D01*
X129667Y1575D01*
X129662Y1580D01*
X129657Y1590D01*
X129642Y1605D01*
X129626Y1631D01*
X129606Y1667D01*
X129586Y1707D01*
X129560Y1753D01*
X129535Y1804D01*
X129509Y1865D01*
X129484Y1931D01*
X129464Y2002D01*
X129443Y2079D01*
X129428Y2165D01*
X129413Y2257D01*
X129408Y2354D01*
X129402Y2455D01*
Y2461D01*
Y2476D01*
Y2501D01*
X129408Y2537D01*
Y2578D01*
X129418Y2629D01*
X129423Y2685D01*
X129433Y2740D01*
X129464Y2868D01*
X129504Y3005D01*
X129565Y3137D01*
X129606Y3199D01*
X129647Y3260D01*
X129652Y3265D01*
X129657Y3275D01*
X129672Y3290D01*
X129693Y3311D01*
X129718Y3331D01*
X129749Y3361D01*
X129784Y3387D01*
X129830Y3417D01*
X129876Y3448D01*
X129932Y3473D01*
X129988Y3504D01*
X130054Y3524D01*
X130120Y3545D01*
X130196Y3560D01*
X130278Y3570D01*
X130365Y3575D01*
X130405D01*
X130431Y3570D01*
D02*
G37*
G36*
X137470Y2333D02*
Y2328D01*
Y2308D01*
Y2277D01*
X137465Y2237D01*
Y2186D01*
X137460Y2130D01*
X137450Y2069D01*
X137440Y2002D01*
X137409Y1860D01*
X137368Y1722D01*
X137338Y1656D01*
X137307Y1595D01*
X137267Y1539D01*
X137226Y1488D01*
X137221D01*
X137216Y1478D01*
X137200Y1468D01*
X137180Y1453D01*
X137154Y1432D01*
X137124Y1412D01*
X137088Y1392D01*
X137043Y1371D01*
X136997Y1351D01*
X136941Y1331D01*
X136885Y1310D01*
X136819Y1290D01*
X136747Y1275D01*
X136671Y1264D01*
X136590Y1259D01*
X136503Y1254D01*
X136478D01*
X136442Y1259D01*
X136401Y1264D01*
X136350Y1275D01*
X136294Y1290D01*
X136228Y1310D01*
X136157Y1341D01*
X136086Y1376D01*
X136014Y1422D01*
X135943Y1478D01*
X135872Y1544D01*
X135801Y1621D01*
X135734Y1712D01*
X135678Y1814D01*
X135627Y1936D01*
X136009Y2094D01*
Y2089D01*
X136020Y2074D01*
X136030Y2048D01*
X136045Y2018D01*
X136060Y1982D01*
X136086Y1941D01*
X136142Y1855D01*
X136218Y1768D01*
X136259Y1728D01*
X136310Y1692D01*
X136361Y1661D01*
X136416Y1636D01*
X136472Y1621D01*
X136539Y1616D01*
X136574D01*
X136620Y1621D01*
X136671Y1631D01*
X136727Y1646D01*
X136788Y1672D01*
X136849Y1702D01*
X136905Y1748D01*
X136910Y1753D01*
X136925Y1773D01*
X136951Y1814D01*
X136976Y1865D01*
X136987Y1901D01*
X136997Y1941D01*
X137012Y1987D01*
X137022Y2038D01*
X137032Y2094D01*
X137038Y2160D01*
X137043Y2226D01*
Y2303D01*
Y4517D01*
X137470D01*
Y2333D01*
D02*
G37*
G36*
X140222Y5457D02*
X140245Y5453D01*
X140278Y5443D01*
X140306Y5425D01*
X140338Y5407D01*
X140366Y5379D01*
X140370Y5374D01*
X140380Y5365D01*
X140389Y5351D01*
X140403Y5328D01*
X140430Y5273D01*
X140435Y5240D01*
X140440Y5208D01*
Y5203D01*
Y5189D01*
X140435Y5171D01*
X140430Y5148D01*
X140421Y5125D01*
X140407Y5092D01*
X140389Y5065D01*
X140366Y5032D01*
X140361Y5028D01*
X140352Y5018D01*
X140338Y5009D01*
X140315Y4995D01*
X140292Y4977D01*
X140259Y4968D01*
X140222Y4958D01*
X140181Y4954D01*
X140162D01*
X140144Y4958D01*
X140116Y4963D01*
X140088Y4972D01*
X140056Y4986D01*
X140024Y5005D01*
X139996Y5028D01*
X139991Y5032D01*
X139987Y5042D01*
X139973Y5055D01*
X139964Y5079D01*
X139950Y5106D01*
X139936Y5134D01*
X139931Y5171D01*
X139927Y5208D01*
Y5212D01*
Y5222D01*
X139931Y5240D01*
X139936Y5263D01*
X139945Y5291D01*
X139954Y5319D01*
X139973Y5351D01*
X139996Y5379D01*
X140001Y5384D01*
X140010Y5393D01*
X140024Y5407D01*
X140047Y5420D01*
X140070Y5434D01*
X140102Y5448D01*
X140139Y5457D01*
X140181Y5462D01*
X140199D01*
X140222Y5457D01*
D02*
G37*
G36*
X132680Y1300D02*
X132309D01*
X131540Y3545D01*
X131958D01*
X132502Y1697D01*
X133027Y3545D01*
X133444D01*
X132680Y1300D01*
D02*
G37*
G36*
X131729Y12391D02*
X131779D01*
X131840Y12380D01*
X131912Y12369D01*
X131990Y12352D01*
X132078Y12335D01*
X132167Y12308D01*
X132261Y12274D01*
X132356Y12230D01*
X132450Y12180D01*
X132539Y12124D01*
X132633Y12052D01*
X132717Y11975D01*
X132794Y11886D01*
X132800Y11880D01*
X132811Y11864D01*
X132833Y11836D01*
X132855Y11791D01*
X132889Y11742D01*
X132922Y11681D01*
X132955Y11614D01*
X132994Y11531D01*
X133033Y11442D01*
X133066Y11336D01*
X133099Y11231D01*
X133133Y11109D01*
X133155Y10987D01*
X133177Y10848D01*
X133188Y10704D01*
X133194Y10554D01*
Y10543D01*
Y10520D01*
Y10482D01*
X133188Y10426D01*
X133183Y10360D01*
X133172Y10282D01*
X133155Y10199D01*
X133138Y10104D01*
X133116Y10004D01*
X133088Y9904D01*
X133049Y9793D01*
X133005Y9688D01*
X132955Y9577D01*
X132894Y9472D01*
X132827Y9366D01*
X132750Y9266D01*
X132744Y9261D01*
X132728Y9244D01*
X132705Y9216D01*
X132672Y9189D01*
X132628Y9144D01*
X132578Y9105D01*
X132517Y9055D01*
X132445Y9011D01*
X132367Y8961D01*
X132284Y8911D01*
X132195Y8872D01*
X132095Y8833D01*
X131990Y8800D01*
X131878Y8772D01*
X131756Y8756D01*
X131634Y8750D01*
X131601D01*
X131562Y8756D01*
X131512D01*
X131446Y8767D01*
X131373Y8778D01*
X131296Y8794D01*
X131207Y8817D01*
X131118Y8839D01*
X131024Y8872D01*
X130929Y8917D01*
X130830Y8967D01*
X130735Y9022D01*
X130646Y9094D01*
X130558Y9172D01*
X130480Y9261D01*
X130474Y9266D01*
X130463Y9283D01*
X130441Y9316D01*
X130419Y9355D01*
X130385Y9405D01*
X130352Y9466D01*
X130319Y9544D01*
X130280Y9627D01*
X130241Y9716D01*
X130208Y9821D01*
X130175Y9932D01*
X130141Y10054D01*
X130119Y10182D01*
X130097Y10321D01*
X130086Y10465D01*
X130080Y10620D01*
Y10632D01*
Y10654D01*
X130086Y10693D01*
Y10748D01*
X130097Y10815D01*
X130102Y10887D01*
X130119Y10970D01*
X130136Y11064D01*
X130164Y11164D01*
X130191Y11264D01*
X130230Y11370D01*
X130274Y11475D01*
X130324Y11581D01*
X130385Y11686D01*
X130458Y11786D01*
X130535Y11886D01*
X130541Y11891D01*
X130558Y11908D01*
X130580Y11936D01*
X130619Y11964D01*
X130663Y12002D01*
X130713Y12047D01*
X130774Y12091D01*
X130846Y12141D01*
X130924Y12191D01*
X131007Y12235D01*
X131101Y12280D01*
X131201Y12319D01*
X131307Y12352D01*
X131418Y12374D01*
X131534Y12391D01*
X131656Y12396D01*
X131690D01*
X131729Y12391D01*
D02*
G37*
G36*
X151309Y8800D02*
X150843D01*
Y11375D01*
X150077Y8800D01*
X149666D01*
X148878Y11375D01*
Y8800D01*
X148412D01*
Y12308D01*
X148878D01*
X149872Y9266D01*
X150848Y12308D01*
X151309D01*
Y8800D01*
D02*
G37*
G36*
X143922Y12302D02*
X143966D01*
X144022Y12291D01*
X144083Y12285D01*
X144144Y12274D01*
X144283Y12241D01*
X144427Y12191D01*
X144494Y12163D01*
X144560Y12124D01*
X144627Y12086D01*
X144682Y12036D01*
X144688Y12030D01*
X144693Y12025D01*
X144710Y12008D01*
X144727Y11986D01*
X144749Y11958D01*
X144777Y11925D01*
X144804Y11886D01*
X144832Y11841D01*
X144882Y11736D01*
X144932Y11614D01*
X144965Y11469D01*
X144971Y11386D01*
X144976Y11303D01*
Y11298D01*
Y11286D01*
Y11270D01*
X144971Y11248D01*
Y11214D01*
X144965Y11181D01*
X144949Y11098D01*
X144921Y11003D01*
X144882Y10898D01*
X144827Y10798D01*
X144749Y10693D01*
Y10687D01*
X144738Y10681D01*
X144710Y10648D01*
X144666Y10604D01*
X144605Y10548D01*
X144532Y10493D01*
X144449Y10437D01*
X144360Y10387D01*
X144266Y10354D01*
X145221Y8800D01*
X144704D01*
X143828Y10265D01*
X143783D01*
X143767Y10260D01*
X143556D01*
X143483Y10254D01*
X143317D01*
Y8800D01*
X142856D01*
Y12308D01*
X143883D01*
X143922Y12302D01*
D02*
G37*
G36*
X148057Y8800D02*
X147563D01*
X147196Y9966D01*
X146114D01*
X145748Y8800D01*
X145293D01*
X146481Y12308D01*
X146908D01*
X148057Y8800D01*
D02*
G37*
G36*
X129498D02*
X129031D01*
Y10393D01*
X127461D01*
Y8800D01*
X127000D01*
Y12308D01*
X127461D01*
Y10765D01*
X129031D01*
Y12308D01*
X129498D01*
Y8800D01*
D02*
G37*
G36*
X137761Y12391D02*
X137811D01*
X137873Y12380D01*
X137945Y12369D01*
X138022Y12352D01*
X138111Y12335D01*
X138200Y12308D01*
X138294Y12274D01*
X138389Y12230D01*
X138483Y12180D01*
X138572Y12124D01*
X138666Y12052D01*
X138749Y11975D01*
X138827Y11886D01*
X138833Y11880D01*
X138844Y11864D01*
X138866Y11836D01*
X138888Y11791D01*
X138921Y11742D01*
X138955Y11681D01*
X138988Y11614D01*
X139027Y11531D01*
X139066Y11442D01*
X139099Y11336D01*
X139132Y11231D01*
X139166Y11109D01*
X139188Y10987D01*
X139210Y10848D01*
X139221Y10704D01*
X139227Y10554D01*
Y10543D01*
Y10520D01*
Y10482D01*
X139221Y10426D01*
X139216Y10360D01*
X139204Y10282D01*
X139188Y10199D01*
X139171Y10104D01*
X139149Y10004D01*
X139121Y9904D01*
X139082Y9793D01*
X139038Y9688D01*
X138988Y9577D01*
X138927Y9472D01*
X138860Y9366D01*
X138783Y9266D01*
X138777Y9261D01*
X138760Y9244D01*
X138738Y9216D01*
X138705Y9189D01*
X138661Y9144D01*
X138611Y9105D01*
X138549Y9055D01*
X138477Y9011D01*
X138400Y8961D01*
X138317Y8911D01*
X138228Y8872D01*
X138128Y8833D01*
X138022Y8800D01*
X137911Y8772D01*
X137789Y8756D01*
X137667Y8750D01*
X137634D01*
X137595Y8756D01*
X137545D01*
X137478Y8767D01*
X137406Y8778D01*
X137329Y8794D01*
X137240Y8817D01*
X137151Y8839D01*
X137057Y8872D01*
X136962Y8917D01*
X136862Y8967D01*
X136768Y9022D01*
X136679Y9094D01*
X136590Y9172D01*
X136513Y9261D01*
X136507Y9266D01*
X136496Y9283D01*
X136474Y9316D01*
X136452Y9355D01*
X136418Y9405D01*
X136385Y9466D01*
X136352Y9544D01*
X136313Y9627D01*
X136274Y9716D01*
X136241Y9821D01*
X136207Y9932D01*
X136174Y10054D01*
X136152Y10182D01*
X136130Y10321D01*
X136119Y10465D01*
X136113Y10620D01*
Y10632D01*
Y10654D01*
X136119Y10693D01*
Y10748D01*
X136130Y10815D01*
X136135Y10887D01*
X136152Y10970D01*
X136169Y11064D01*
X136196Y11164D01*
X136224Y11264D01*
X136263Y11370D01*
X136307Y11475D01*
X136357Y11581D01*
X136418Y11686D01*
X136490Y11786D01*
X136568Y11886D01*
X136574Y11891D01*
X136590Y11908D01*
X136613Y11936D01*
X136651Y11964D01*
X136696Y12002D01*
X136746Y12047D01*
X136807Y12091D01*
X136879Y12141D01*
X136957Y12191D01*
X137040Y12235D01*
X137134Y12280D01*
X137234Y12319D01*
X137340Y12352D01*
X137451Y12374D01*
X137567Y12391D01*
X137689Y12396D01*
X137723D01*
X137761Y12391D01*
D02*
G37*
G36*
X134254Y9189D02*
X135797D01*
Y8800D01*
X133793D01*
Y12308D01*
X134254D01*
Y9189D01*
D02*
G37*
G36*
X141369Y12391D02*
X141425Y12385D01*
X141491Y12374D01*
X141558Y12363D01*
X141635Y12341D01*
X141719Y12319D01*
X141802Y12291D01*
X141885Y12258D01*
X141968Y12219D01*
X142052Y12169D01*
X142135Y12108D01*
X142207Y12047D01*
X142279Y11969D01*
X141991Y11681D01*
X141985Y11686D01*
X141979Y11692D01*
X141963Y11708D01*
X141941Y11730D01*
X141907Y11753D01*
X141874Y11780D01*
X141835Y11808D01*
X141791Y11841D01*
X141680Y11897D01*
X141558Y11947D01*
X141486Y11969D01*
X141413Y11986D01*
X141336Y11991D01*
X141252Y11997D01*
X141214D01*
X141180Y11991D01*
X141147Y11986D01*
X141103Y11980D01*
X141003Y11952D01*
X140892Y11908D01*
X140831Y11880D01*
X140775Y11847D01*
X140714Y11802D01*
X140653Y11753D01*
X140597Y11697D01*
X140542Y11636D01*
X140536Y11631D01*
X140531Y11619D01*
X140514Y11597D01*
X140498Y11569D01*
X140475Y11531D01*
X140453Y11486D01*
X140431Y11436D01*
X140403Y11375D01*
X140375Y11309D01*
X140353Y11236D01*
X140331Y11153D01*
X140309Y11064D01*
X140292Y10965D01*
X140276Y10865D01*
X140270Y10754D01*
X140264Y10637D01*
Y10632D01*
Y10609D01*
Y10576D01*
X140270Y10532D01*
Y10476D01*
X140281Y10409D01*
X140287Y10337D01*
X140298Y10260D01*
X140331Y10088D01*
X140375Y9910D01*
X140442Y9732D01*
X140487Y9649D01*
X140531Y9566D01*
X140536Y9560D01*
X140542Y9549D01*
X140559Y9527D01*
X140581Y9499D01*
X140609Y9466D01*
X140642Y9433D01*
X140681Y9394D01*
X140720Y9355D01*
X140825Y9277D01*
X140953Y9211D01*
X141019Y9183D01*
X141097Y9161D01*
X141175Y9150D01*
X141258Y9144D01*
X141324D01*
X141358Y9150D01*
X141397D01*
X141491Y9155D01*
X141591Y9166D01*
X141702Y9183D01*
X141813Y9205D01*
X141913Y9239D01*
Y10160D01*
X141430D01*
Y10532D01*
X142379D01*
Y9039D01*
X142374Y9033D01*
X142351Y9027D01*
X142324Y9011D01*
X142285Y8994D01*
X142229Y8972D01*
X142168Y8950D01*
X142102Y8922D01*
X142024Y8894D01*
X141941Y8867D01*
X141852Y8839D01*
X141657Y8794D01*
X141447Y8761D01*
X141336Y8756D01*
X141225Y8750D01*
X141191D01*
X141158Y8756D01*
X141108Y8761D01*
X141047Y8767D01*
X140980Y8778D01*
X140903Y8794D01*
X140825Y8817D01*
X140736Y8844D01*
X140647Y8878D01*
X140559Y8922D01*
X140470Y8972D01*
X140381Y9027D01*
X140298Y9100D01*
X140220Y9177D01*
X140148Y9272D01*
X140142Y9277D01*
X140131Y9294D01*
X140115Y9327D01*
X140093Y9366D01*
X140065Y9416D01*
X140031Y9483D01*
X139998Y9549D01*
X139965Y9633D01*
X139931Y9721D01*
X139898Y9821D01*
X139865Y9932D01*
X139837Y10049D01*
X139815Y10171D01*
X139798Y10299D01*
X139787Y10437D01*
X139782Y10582D01*
Y10593D01*
Y10615D01*
X139787Y10659D01*
Y10709D01*
X139793Y10776D01*
X139804Y10853D01*
X139815Y10942D01*
X139832Y11037D01*
X139854Y11136D01*
X139882Y11236D01*
X139909Y11348D01*
X139948Y11453D01*
X139998Y11564D01*
X140048Y11669D01*
X140109Y11775D01*
X140181Y11875D01*
X140187Y11880D01*
X140198Y11897D01*
X140220Y11925D01*
X140253Y11958D01*
X140292Y11997D01*
X140342Y12041D01*
X140403Y12086D01*
X140464Y12136D01*
X140542Y12185D01*
X140620Y12230D01*
X140708Y12274D01*
X140808Y12313D01*
X140908Y12347D01*
X141019Y12374D01*
X141141Y12391D01*
X141263Y12396D01*
X141324D01*
X141369Y12391D01*
D02*
G37*
%LPC*%
G36*
X134854Y6039D02*
X134817D01*
X134794Y6035D01*
X134762D01*
X134729Y6030D01*
X134646Y6021D01*
X134549Y6002D01*
X134452Y5979D01*
X134350Y5947D01*
X134258Y5906D01*
X134253D01*
X134249Y5901D01*
X134221Y5882D01*
X134184Y5855D01*
X134142Y5813D01*
X134096Y5767D01*
X134059Y5707D01*
X134032Y5633D01*
X134027Y5596D01*
X134022Y5554D01*
Y5550D01*
Y5531D01*
X134027Y5508D01*
X134032Y5476D01*
X134041Y5443D01*
X134050Y5411D01*
X134069Y5379D01*
X134092Y5351D01*
X134096Y5347D01*
X134106Y5342D01*
X134124Y5333D01*
X134147Y5323D01*
X134175Y5310D01*
X134207Y5300D01*
X134249Y5296D01*
X134295Y5291D01*
X134327D01*
X134360Y5296D01*
X134401Y5300D01*
X134457Y5310D01*
X134512Y5323D01*
X134572Y5342D01*
X134632Y5370D01*
X134642Y5374D01*
X134660Y5384D01*
X134688Y5397D01*
X134725Y5416D01*
X134794Y5457D01*
X134831Y5480D01*
X134854Y5504D01*
Y6039D01*
D02*
G37*
G36*
X130585Y6760D02*
X130507D01*
X130488Y6756D01*
X130442Y6751D01*
X130377Y6737D01*
X130313Y6709D01*
X130239Y6672D01*
X130169Y6626D01*
X130142Y6594D01*
X130109Y6557D01*
X130105Y6548D01*
X130086Y6520D01*
X130063Y6474D01*
X130035Y6414D01*
X130008Y6335D01*
X129984Y6238D01*
X129966Y6132D01*
X129961Y6007D01*
Y6002D01*
Y5993D01*
Y5979D01*
Y5961D01*
X129966Y5906D01*
X129975Y5841D01*
X129989Y5767D01*
X130008Y5693D01*
X130031Y5619D01*
X130068Y5554D01*
X130072Y5550D01*
X130086Y5531D01*
X130109Y5504D01*
X130137Y5467D01*
X130169Y5430D01*
X130206Y5393D01*
X130243Y5360D01*
X130285Y5333D01*
X130289Y5328D01*
X130303Y5323D01*
X130326Y5314D01*
X130359Y5300D01*
X130396Y5286D01*
X130437Y5277D01*
X130488Y5273D01*
X130539Y5268D01*
X130562D01*
X130590Y5273D01*
X130622Y5277D01*
X130664Y5282D01*
X130701Y5296D01*
X130742Y5310D01*
X130784Y5333D01*
X130788Y5337D01*
X130802Y5347D01*
X130825Y5365D01*
X130849Y5388D01*
X130881Y5425D01*
X130918Y5467D01*
X130955Y5517D01*
X130996Y5578D01*
X131001Y5587D01*
X131015Y5610D01*
X131029Y5651D01*
X131052Y5707D01*
X131070Y5776D01*
X131084Y5859D01*
X131098Y5956D01*
X131103Y6063D01*
Y6067D01*
Y6076D01*
Y6090D01*
Y6109D01*
X131093Y6160D01*
X131084Y6224D01*
X131066Y6298D01*
X131043Y6377D01*
X131006Y6460D01*
X130955Y6543D01*
Y6548D01*
X130950Y6552D01*
X130927Y6575D01*
X130895Y6612D01*
X130849Y6654D01*
X130788Y6691D01*
X130719Y6728D01*
X130631Y6751D01*
X130585Y6760D01*
D02*
G37*
G36*
X141664Y7661D02*
X141631D01*
X141613Y7656D01*
X141558Y7643D01*
X141488Y7624D01*
X141414Y7587D01*
X141377Y7559D01*
X141340Y7532D01*
X141308Y7495D01*
X141276Y7453D01*
X141248Y7407D01*
X141225Y7352D01*
Y7347D01*
X141220Y7338D01*
X141216Y7319D01*
X141207Y7296D01*
X141197Y7264D01*
X141188Y7227D01*
X141179Y7181D01*
X141170Y7130D01*
X141160Y7074D01*
X141151Y7010D01*
X141142Y6940D01*
X141133Y6866D01*
X141123Y6788D01*
X141119Y6700D01*
X141114Y6608D01*
Y6511D01*
Y6502D01*
Y6478D01*
Y6441D01*
Y6391D01*
X141119Y6331D01*
X141123Y6266D01*
Y6192D01*
X141133Y6109D01*
X141146Y5947D01*
X141170Y5785D01*
X141188Y5707D01*
X141202Y5638D01*
X141225Y5578D01*
X141248Y5527D01*
Y5522D01*
X141253Y5517D01*
X141276Y5490D01*
X141308Y5453D01*
X141354Y5407D01*
X141410Y5360D01*
X141484Y5323D01*
X141567Y5296D01*
X141613Y5291D01*
X141664Y5286D01*
X141692D01*
X141710Y5291D01*
X141756Y5300D01*
X141816Y5319D01*
X141881Y5351D01*
X141913Y5374D01*
X141950Y5402D01*
X141983Y5430D01*
X142010Y5467D01*
X142038Y5508D01*
X142066Y5554D01*
Y5559D01*
X142070Y5568D01*
X142080Y5582D01*
X142089Y5610D01*
X142098Y5638D01*
X142107Y5679D01*
X142121Y5725D01*
X142135Y5781D01*
X142144Y5841D01*
X142158Y5915D01*
X142167Y5998D01*
X142181Y6086D01*
X142186Y6187D01*
X142195Y6298D01*
X142200Y6418D01*
Y6548D01*
Y6552D01*
Y6571D01*
Y6594D01*
Y6631D01*
X142195Y6672D01*
Y6723D01*
X142191Y6774D01*
X142186Y6834D01*
X142177Y6963D01*
X142158Y7097D01*
X142130Y7231D01*
X142098Y7352D01*
Y7356D01*
X142094Y7365D01*
X142089Y7379D01*
X142075Y7402D01*
X142047Y7449D01*
X142006Y7509D01*
X141946Y7564D01*
X141913Y7587D01*
X141872Y7615D01*
X141826Y7633D01*
X141779Y7647D01*
X141724Y7656D01*
X141664Y7661D01*
D02*
G37*
G36*
X127830Y4166D02*
X127422D01*
Y2975D01*
X127743D01*
X127774Y2980D01*
X127804D01*
X127840Y2985D01*
X127926Y2995D01*
X128023Y3015D01*
X128120Y3046D01*
X128217Y3092D01*
X128298Y3148D01*
X128308Y3158D01*
X128329Y3178D01*
X128364Y3219D01*
X128405Y3270D01*
X128440Y3331D01*
X128476Y3407D01*
X128497Y3489D01*
X128507Y3585D01*
Y3590D01*
Y3601D01*
Y3616D01*
Y3636D01*
X128497Y3692D01*
X128486Y3759D01*
X128466Y3830D01*
X128435Y3901D01*
X128390Y3972D01*
X128334Y4028D01*
X128323Y4033D01*
X128303Y4049D01*
X128257Y4074D01*
X128201Y4100D01*
X128120Y4120D01*
X128074Y4135D01*
X128018Y4145D01*
X127962Y4155D01*
X127901Y4161D01*
X127830Y4166D01*
D02*
G37*
G36*
X130359Y3244D02*
X130349D01*
X130319Y3239D01*
X130268Y3234D01*
X130212Y3224D01*
X130151Y3199D01*
X130085Y3168D01*
X130018Y3127D01*
X129962Y3066D01*
X129957Y3056D01*
X129942Y3036D01*
X129922Y3000D01*
X129896Y2954D01*
X129871Y2898D01*
X129850Y2832D01*
X129830Y2766D01*
X129825Y2695D01*
X130858D01*
Y2705D01*
Y2730D01*
X130853Y2771D01*
X130843Y2822D01*
X130828Y2878D01*
X130807Y2944D01*
X130777Y3005D01*
X130741Y3071D01*
X130736Y3076D01*
X130721Y3097D01*
X130690Y3127D01*
X130649Y3158D01*
X130599Y3188D01*
X130533Y3219D01*
X130451Y3239D01*
X130359Y3244D01*
D02*
G37*
G36*
X131668Y11997D02*
X131618D01*
X131584Y11991D01*
X131540Y11986D01*
X131490Y11975D01*
X131434Y11964D01*
X131373Y11947D01*
X131312Y11930D01*
X131246Y11902D01*
X131179Y11869D01*
X131113Y11836D01*
X131046Y11786D01*
X130979Y11736D01*
X130918Y11675D01*
X130863Y11608D01*
X130857Y11603D01*
X130852Y11592D01*
X130835Y11569D01*
X130818Y11542D01*
X130796Y11503D01*
X130769Y11453D01*
X130741Y11403D01*
X130719Y11342D01*
X130691Y11275D01*
X130663Y11198D01*
X130635Y11114D01*
X130613Y11026D01*
X130596Y10931D01*
X130580Y10831D01*
X130574Y10726D01*
X130569Y10615D01*
Y10609D01*
Y10582D01*
Y10548D01*
X130574Y10498D01*
X130580Y10437D01*
X130585Y10371D01*
X130596Y10293D01*
X130607Y10210D01*
X130641Y10032D01*
X130696Y9854D01*
X130735Y9760D01*
X130774Y9677D01*
X130818Y9594D01*
X130874Y9522D01*
X130879Y9516D01*
X130891Y9505D01*
X130907Y9488D01*
X130929Y9460D01*
X130963Y9433D01*
X130996Y9405D01*
X131040Y9366D01*
X131090Y9333D01*
X131201Y9266D01*
X131334Y9205D01*
X131407Y9177D01*
X131484Y9161D01*
X131568Y9150D01*
X131651Y9144D01*
X131690D01*
X131718Y9150D01*
X131756Y9155D01*
X131795Y9166D01*
X131895Y9194D01*
X132006Y9239D01*
X132067Y9266D01*
X132134Y9305D01*
X132195Y9349D01*
X132256Y9399D01*
X132323Y9455D01*
X132384Y9522D01*
X132389Y9527D01*
X132400Y9538D01*
X132411Y9560D01*
X132433Y9594D01*
X132461Y9633D01*
X132489Y9683D01*
X132517Y9738D01*
X132550Y9805D01*
X132578Y9882D01*
X132606Y9966D01*
X132633Y10060D01*
X132661Y10160D01*
X132683Y10271D01*
X132694Y10393D01*
X132705Y10515D01*
X132711Y10654D01*
Y10659D01*
Y10676D01*
Y10698D01*
X132705Y10737D01*
Y10776D01*
X132700Y10826D01*
X132689Y10887D01*
X132678Y10948D01*
X132650Y11087D01*
X132606Y11242D01*
X132539Y11403D01*
X132500Y11481D01*
X132456Y11564D01*
X132450Y11569D01*
X132445Y11581D01*
X132428Y11603D01*
X132406Y11631D01*
X132378Y11664D01*
X132345Y11703D01*
X132306Y11742D01*
X132261Y11780D01*
X132211Y11819D01*
X132150Y11858D01*
X132089Y11897D01*
X132017Y11930D01*
X131939Y11958D01*
X131856Y11980D01*
X131762Y11991D01*
X131668Y11997D01*
D02*
G37*
G36*
X143761Y11925D02*
X143317D01*
Y10626D01*
X143667D01*
X143700Y10632D01*
X143733D01*
X143772Y10637D01*
X143867Y10648D01*
X143972Y10670D01*
X144077Y10704D01*
X144183Y10754D01*
X144272Y10815D01*
X144283Y10826D01*
X144305Y10848D01*
X144344Y10892D01*
X144388Y10948D01*
X144427Y11014D01*
X144466Y11098D01*
X144488Y11186D01*
X144499Y11292D01*
Y11298D01*
Y11309D01*
Y11325D01*
Y11348D01*
X144488Y11408D01*
X144477Y11481D01*
X144455Y11558D01*
X144422Y11636D01*
X144371Y11714D01*
X144310Y11775D01*
X144299Y11780D01*
X144277Y11797D01*
X144227Y11825D01*
X144166Y11852D01*
X144077Y11875D01*
X144027Y11891D01*
X143966Y11902D01*
X143905Y11913D01*
X143839Y11919D01*
X143761Y11925D01*
D02*
G37*
G36*
X146664Y11791D02*
X146203Y10315D01*
X147108D01*
X146664Y11791D01*
D02*
G37*
G36*
X137700Y11997D02*
X137651D01*
X137617Y11991D01*
X137573Y11986D01*
X137523Y11975D01*
X137467Y11964D01*
X137406Y11947D01*
X137345Y11930D01*
X137279Y11902D01*
X137212Y11869D01*
X137145Y11836D01*
X137079Y11786D01*
X137012Y11736D01*
X136951Y11675D01*
X136896Y11608D01*
X136890Y11603D01*
X136884Y11592D01*
X136868Y11569D01*
X136851Y11542D01*
X136829Y11503D01*
X136801Y11453D01*
X136774Y11403D01*
X136751Y11342D01*
X136724Y11275D01*
X136696Y11198D01*
X136668Y11114D01*
X136646Y11026D01*
X136629Y10931D01*
X136613Y10831D01*
X136607Y10726D01*
X136601Y10615D01*
Y10609D01*
Y10582D01*
Y10548D01*
X136607Y10498D01*
X136613Y10437D01*
X136618Y10371D01*
X136629Y10293D01*
X136640Y10210D01*
X136674Y10032D01*
X136729Y9854D01*
X136768Y9760D01*
X136807Y9677D01*
X136851Y9594D01*
X136907Y9522D01*
X136912Y9516D01*
X136923Y9505D01*
X136940Y9488D01*
X136962Y9460D01*
X136996Y9433D01*
X137029Y9405D01*
X137073Y9366D01*
X137123Y9333D01*
X137234Y9266D01*
X137367Y9205D01*
X137440Y9177D01*
X137517Y9161D01*
X137601Y9150D01*
X137684Y9144D01*
X137723D01*
X137750Y9150D01*
X137789Y9155D01*
X137828Y9166D01*
X137928Y9194D01*
X138039Y9239D01*
X138100Y9266D01*
X138167Y9305D01*
X138228Y9349D01*
X138289Y9399D01*
X138355Y9455D01*
X138416Y9522D01*
X138422Y9527D01*
X138433Y9538D01*
X138444Y9560D01*
X138466Y9594D01*
X138494Y9633D01*
X138522Y9683D01*
X138549Y9738D01*
X138583Y9805D01*
X138611Y9882D01*
X138638Y9966D01*
X138666Y10060D01*
X138694Y10160D01*
X138716Y10271D01*
X138727Y10393D01*
X138738Y10515D01*
X138744Y10654D01*
Y10659D01*
Y10676D01*
Y10698D01*
X138738Y10737D01*
Y10776D01*
X138733Y10826D01*
X138722Y10887D01*
X138710Y10948D01*
X138683Y11087D01*
X138638Y11242D01*
X138572Y11403D01*
X138533Y11481D01*
X138488Y11564D01*
X138483Y11569D01*
X138477Y11581D01*
X138461Y11603D01*
X138439Y11631D01*
X138411Y11664D01*
X138377Y11703D01*
X138339Y11742D01*
X138294Y11780D01*
X138244Y11819D01*
X138183Y11858D01*
X138122Y11897D01*
X138050Y11930D01*
X137972Y11958D01*
X137889Y11980D01*
X137795Y11991D01*
X137700Y11997D01*
D02*
G37*
%LPD*%
D26*
X168283Y7449D02*
X167616D01*
X167950D01*
Y5783D01*
X167616Y5450D01*
X167283D01*
X166950Y5783D01*
X168949Y5450D02*
X169616D01*
X169283D01*
Y7449D01*
X168949Y7116D01*
D28*
X160604Y66100D02*
X178517D01*
X159856Y9093D02*
X177769D01*
X157100Y10825D02*
Y63975D01*
X20819Y47000D02*
Y52000D01*
X18000Y54500D02*
X20000Y52500D01*
X17000Y54500D02*
X18000D01*
Y44500D02*
X20000Y46500D01*
X17000Y44500D02*
X18000D01*
X6000Y54500D02*
X7000D01*
X6000Y52500D02*
Y54500D01*
Y44500D02*
X7000D01*
X6000D02*
Y46500D01*
X21950Y8603D02*
Y9024D01*
X8500Y8283D02*
Y13795D01*
X7240Y7024D02*
X8500Y8165D01*
X4500Y8283D02*
Y13835D01*
Y7000D02*
X8500D01*
X4500Y8165D02*
X5760Y7024D01*
X6240Y67676D02*
X7500Y66535D01*
Y60865D02*
Y66417D01*
X3500Y67700D02*
X7500D01*
X3500Y66535D02*
X4760Y67676D01*
X3500Y60905D02*
Y66417D01*
X149474Y54526D02*
Y70274D01*
X133726Y54526D02*
X149474D01*
X133726Y70274D02*
X149474D01*
X133726Y54526D02*
Y70274D01*
X126617Y53861D02*
X132168D01*
X126617Y49861D02*
X132129D01*
X126617Y39261D02*
X132168D01*
X126617Y35261D02*
X132129D01*
X6150Y37450D02*
Y38783D01*
X6816Y39449D01*
X7483Y38783D01*
Y37450D01*
Y38450D01*
X6150D01*
X8149Y37450D02*
Y39449D01*
X9482Y37450D01*
Y39449D01*
X10149D02*
X11482D01*
X10815D01*
Y37450D01*
X12148Y37117D02*
X13481D01*
X14147Y39449D02*
Y37783D01*
X14481Y37450D01*
X15147D01*
X15480Y37783D01*
Y39449D01*
X17480D02*
X16147D01*
Y38450D01*
X16813D01*
X16147D01*
Y37450D01*
X18146Y39449D02*
Y37450D01*
X19479D01*
X19588Y4009D02*
Y2343D01*
X19921Y2010D01*
X20587D01*
X20921Y2343D01*
Y4009D01*
X21587Y2010D02*
X22254D01*
X21920D01*
Y4009D01*
X21587Y3676D01*
X24586Y4009D02*
X23920Y3676D01*
X23253Y3009D01*
Y2343D01*
X23586Y2010D01*
X24253D01*
X24586Y2343D01*
Y2676D01*
X24253Y3009D01*
X23253D01*
X5050Y17749D02*
Y15750D01*
X6050D01*
X6383Y16083D01*
Y17416D01*
X6050Y17749D01*
X5050D01*
X8382Y15750D02*
X7049D01*
X8382Y17083D01*
Y17416D01*
X8049Y17749D01*
X7383D01*
X7049Y17416D01*
X3350Y71149D02*
Y69150D01*
X4350D01*
X4683Y69483D01*
Y70816D01*
X4350Y71149D01*
X3350D01*
X5349Y69150D02*
X6016D01*
X5683D01*
Y71149D01*
X5349Y70816D01*
X151150Y70049D02*
Y68050D01*
X152483D01*
X154482Y70049D02*
X153149D01*
Y69050D01*
X153816Y69383D01*
X154149D01*
X154482Y69050D01*
Y68383D01*
X154149Y68050D01*
X153483D01*
X153149Y68383D01*
X135350Y45350D02*
Y47349D01*
X136350D01*
X136683Y47016D01*
Y46350D01*
X136350Y46016D01*
X135350D01*
X136016D02*
X136683Y45350D01*
X138682D02*
X137349D01*
X138682Y46683D01*
Y47016D01*
X138349Y47349D01*
X137683D01*
X137349Y47016D01*
X8450Y68550D02*
Y70549D01*
X9450D01*
X9783Y70216D01*
Y69550D01*
X9450Y69216D01*
X8450D01*
X9116D02*
X9783Y68550D01*
X10449Y70216D02*
X10783Y70549D01*
X11449D01*
X11782Y70216D01*
Y69883D01*
X11449Y69550D01*
X11116D01*
X11449D01*
X11782Y69216D01*
Y68883D01*
X11449Y68550D01*
X10783D01*
X10449Y68883D01*
X10000Y5000D02*
Y6999D01*
X11000D01*
X11333Y6666D01*
Y6000D01*
X11000Y5666D01*
X10000D01*
X10667D02*
X11333Y5000D01*
X13332Y6999D02*
X11999D01*
Y6000D01*
X12666Y6333D01*
X12999D01*
X13332Y6000D01*
Y5333D01*
X12999Y5000D01*
X12333D01*
X11999Y5333D01*
X135550Y53149D02*
Y51150D01*
X136550D01*
X136883Y51483D01*
Y52816D01*
X136550Y53149D01*
X135550D01*
X137549Y52816D02*
X137883Y53149D01*
X138549D01*
X138882Y52816D01*
Y52483D01*
X138549Y52150D01*
X138216D01*
X138549D01*
X138882Y51816D01*
Y51483D01*
X138549Y51150D01*
X137883D01*
X137549Y51483D01*
D73*
X21996Y6485D02*
G03*
X22081Y6504I85J-178D01*
G01*
D74*
X124300Y6696D02*
Y69296D01*
X36675D02*
X124300D01*
X21950Y69322D02*
X22175D01*
X21950Y62497D02*
Y69322D01*
X24247Y6307D02*
X26057D01*
X21950Y8603D02*
Y13622D01*
Y8603D02*
X24247Y6307D01*
D75*
X128200Y44100D02*
X132200D01*
X128200Y40900D02*
X132200D01*
X128200Y48200D02*
X132200D01*
X128200Y45000D02*
X132200D01*
X11700Y61700D02*
Y65700D01*
X8500Y61700D02*
Y65700D01*
X12700Y8800D02*
Y12800D01*
X9500Y8800D02*
Y12800D01*
D76*
X136100Y24400D02*
Y37900D01*
X136200Y24400D02*
X148000Y30900D01*
X136100Y37900D02*
X148000Y31000D01*
X136100Y31100D02*
X148000Y24200D01*
Y37800D01*
X142100Y41400D02*
X148000Y37900D01*
X136200Y31300D02*
X148000Y37900D01*
X136100Y24400D02*
X142100Y20900D01*
Y41400D01*
D77*
X36725Y6696D02*
X40396D01*
X44700Y6600D02*
X66300D01*
X83900Y6700D02*
X100800D01*
X105100D02*
X124296D01*
M02*
