G04 Layer_Color=128*
%FSLAX25Y25*%
%MOIN*%
G70*
G01*
G75*
%ADD21R,0.02028X0.02362*%
%ADD22R,0.02362X0.02028*%
%ADD23R,0.03347X0.02559*%
%ADD47R,0.05500X0.03500*%
%ADD48R,0.04331X0.03937*%
%ADD49R,0.11811X0.03937*%
%ADD50R,0.03700X0.03600*%
G04:AMPARAMS|DCode=51|XSize=9.45mil|YSize=23.62mil|CornerRadius=4.73mil|HoleSize=0mil|Usage=FLASHONLY|Rotation=90.000|XOffset=0mil|YOffset=0mil|HoleType=Round|Shape=RoundedRectangle|*
%AMROUNDEDRECTD51*
21,1,0.00945,0.01417,0,0,90.0*
21,1,0.00000,0.02362,0,0,90.0*
1,1,0.00945,0.00709,0.00000*
1,1,0.00945,0.00709,0.00000*
1,1,0.00945,-0.00709,0.00000*
1,1,0.00945,-0.00709,0.00000*
%
%ADD51ROUNDEDRECTD51*%
%ADD52R,0.00787X0.03150*%
%ADD54R,0.02559X0.03347*%
%ADD55R,0.11000X0.06300*%
%ADD56R,0.03600X0.03700*%
%ADD110R,0.00787X0.03032*%
%ADD111R,0.02598X0.04921*%
D21*
X93018Y12000D02*
D03*
X88982D02*
D03*
X150018Y25000D02*
D03*
X145982D02*
D03*
X157018Y33000D02*
D03*
X152982D02*
D03*
X58982Y49000D02*
D03*
X63018D02*
D03*
Y35000D02*
D03*
X58982D02*
D03*
X63018Y18000D02*
D03*
X58982D02*
D03*
X93018Y16000D02*
D03*
X88982D02*
D03*
X63018Y26000D02*
D03*
X58982D02*
D03*
Y45000D02*
D03*
X63018D02*
D03*
X157818Y43000D02*
D03*
X153782D02*
D03*
X86018Y16000D02*
D03*
X81982D02*
D03*
X86018Y12000D02*
D03*
X81982D02*
D03*
X100018Y58000D02*
D03*
X95982D02*
D03*
D22*
X129000Y68018D02*
D03*
Y63982D02*
D03*
X135000Y8982D02*
D03*
Y13018D02*
D03*
X127000Y8982D02*
D03*
Y13018D02*
D03*
X131000Y8982D02*
D03*
Y13018D02*
D03*
X137000Y26018D02*
D03*
Y21982D02*
D03*
X134163Y39581D02*
D03*
Y35545D02*
D03*
Y46981D02*
D03*
Y42945D02*
D03*
X51200Y67518D02*
D03*
Y63482D02*
D03*
X40400Y67518D02*
D03*
Y63482D02*
D03*
X45600Y67518D02*
D03*
Y63482D02*
D03*
X36400Y67518D02*
D03*
Y63482D02*
D03*
X106000Y14018D02*
D03*
Y9982D02*
D03*
X121000Y68018D02*
D03*
Y63982D02*
D03*
X125000Y68018D02*
D03*
Y63982D02*
D03*
D23*
X63362Y41000D02*
D03*
X58638D02*
D03*
X58638Y22000D02*
D03*
X63362D02*
D03*
X58638Y14000D02*
D03*
X63362D02*
D03*
X58638Y31000D02*
D03*
X63362D02*
D03*
D47*
X112300Y10700D02*
D03*
X121000Y7000D02*
D03*
Y14400D02*
D03*
X164350Y28700D02*
D03*
Y21300D02*
D03*
X155650Y25000D02*
D03*
X149350Y18700D02*
D03*
Y11300D02*
D03*
X140650Y15000D02*
D03*
X105650Y66000D02*
D03*
X114350Y62300D02*
D03*
Y69700D02*
D03*
D48*
X53567Y45823D02*
D03*
Y35823D02*
D03*
Y25823D02*
D03*
X7110Y45823D02*
D03*
Y35823D02*
D03*
Y25823D02*
D03*
D49*
X30339Y56689D02*
D03*
Y14957D02*
D03*
D50*
X171050Y53000D02*
D03*
X164950D02*
D03*
D51*
X149175Y51943D02*
D03*
Y48006D02*
D03*
Y46037D02*
D03*
Y49974D02*
D03*
Y44068D02*
D03*
Y42100D02*
D03*
Y40131D02*
D03*
X138151Y51943D02*
D03*
Y49974D02*
D03*
Y48006D02*
D03*
Y44068D02*
D03*
Y42100D02*
D03*
Y46037D02*
D03*
Y40131D02*
D03*
D52*
X146379Y53124D02*
D03*
X144569D02*
D03*
X142757D02*
D03*
X146379Y38950D02*
D03*
X144569D02*
D03*
X142757D02*
D03*
X140946Y53124D02*
D03*
Y38950D02*
D03*
D54*
X164300Y43962D02*
D03*
Y39238D02*
D03*
D55*
X65400Y67600D02*
D03*
Y56600D02*
D03*
X107800Y46200D02*
D03*
Y35200D02*
D03*
X94000Y46100D02*
D03*
Y35100D02*
D03*
D56*
X123863Y43087D02*
D03*
Y36987D02*
D03*
X159400Y53750D02*
D03*
Y47650D02*
D03*
X153800Y53650D02*
D03*
Y47550D02*
D03*
X117800Y43050D02*
D03*
Y36950D02*
D03*
X129363Y43087D02*
D03*
Y36987D02*
D03*
X75400Y68550D02*
D03*
Y62450D02*
D03*
D110*
X146379Y51173D02*
D03*
X144568Y51174D02*
D03*
X142758Y51175D02*
D03*
X146379Y40901D02*
D03*
X144568Y40900D02*
D03*
X142758Y40900D02*
D03*
X140947Y51173D02*
D03*
X140947Y40901D02*
D03*
D111*
X145473Y48891D02*
D03*
X145473Y43184D02*
D03*
X141853Y48890D02*
D03*
X141853Y43183D02*
D03*
M02*
