G04 Layer_Color=8421504*
%FSLAX25Y25*%
%MOIN*%
G70*
G01*
G75*
%ADD10R,0.07874X0.04724*%
%ADD11R,0.15748X0.08268*%
%ADD12R,0.04134X0.03937*%
%ADD13R,0.08661X0.04134*%
%ADD18R,0.02756X0.02362*%
%ADD19R,0.02756X0.02362*%
%ADD20R,0.03858X0.13386*%
%ADD21R,0.02028X0.02362*%
%ADD22R,0.02362X0.02028*%
%ADD23R,0.03347X0.02559*%
%ADD78R,0.05118X0.02362*%
%ADD79R,0.02362X0.05118*%
%ADD80R,0.04134X0.04134*%
G36*
X28853Y14870D02*
X22750D01*
Y17823D01*
X28853D01*
Y14870D01*
D02*
G37*
G36*
X117731Y7488D02*
X114778D01*
Y13590D01*
X117731D01*
Y7488D01*
D02*
G37*
G36*
X28853Y19201D02*
X22750D01*
Y22153D01*
X28853D01*
Y19201D01*
D02*
G37*
G36*
X123144Y14870D02*
X117042D01*
Y17823D01*
X123144D01*
Y14870D01*
D02*
G37*
G36*
X104739Y7488D02*
X101786D01*
Y13590D01*
X104739D01*
Y7488D01*
D02*
G37*
G36*
X100408D02*
X97455D01*
Y13590D01*
X100408D01*
Y7488D01*
D02*
G37*
G36*
X113400D02*
X110447D01*
Y13590D01*
X113400D01*
Y7488D01*
D02*
G37*
G36*
X109069D02*
X106117D01*
Y13590D01*
X109069D01*
Y7488D01*
D02*
G37*
G36*
X28853Y32193D02*
X22750D01*
Y35146D01*
X28853D01*
Y32193D01*
D02*
G37*
G36*
X123144Y27862D02*
X117042D01*
Y30815D01*
X123144D01*
Y27862D01*
D02*
G37*
G36*
X28853Y36524D02*
X22750D01*
Y39476D01*
X28853D01*
Y36524D01*
D02*
G37*
G36*
X123144Y32193D02*
X117042D01*
Y35146D01*
X123144D01*
Y32193D01*
D02*
G37*
G36*
X28853Y23531D02*
X22750D01*
Y26484D01*
X28853D01*
Y23531D01*
D02*
G37*
G36*
X123144Y19201D02*
X117042D01*
Y22153D01*
X123144D01*
Y19201D01*
D02*
G37*
G36*
X28853Y27862D02*
X22750D01*
Y30815D01*
X28853D01*
Y27862D01*
D02*
G37*
G36*
X123144Y23531D02*
X117042D01*
Y26484D01*
X123144D01*
Y23531D01*
D02*
G37*
G36*
X52770Y7488D02*
X49817D01*
Y13590D01*
X52770D01*
Y7488D01*
D02*
G37*
G36*
X48439D02*
X45487D01*
Y13590D01*
X48439D01*
Y7488D01*
D02*
G37*
G36*
X61431D02*
X58479D01*
Y13590D01*
X61431D01*
Y7488D01*
D02*
G37*
G36*
X57101D02*
X54148D01*
Y13590D01*
X57101D01*
Y7488D01*
D02*
G37*
G36*
X35447D02*
X32495D01*
Y13590D01*
X35447D01*
Y7488D01*
D02*
G37*
G36*
X31117D02*
X28164D01*
Y13590D01*
X31117D01*
Y7488D01*
D02*
G37*
G36*
X44109D02*
X41156D01*
Y13590D01*
X44109D01*
Y7488D01*
D02*
G37*
G36*
X39778D02*
X36825D01*
Y13590D01*
X39778D01*
Y7488D01*
D02*
G37*
G36*
X87416D02*
X84463D01*
Y13590D01*
X87416D01*
Y7488D01*
D02*
G37*
G36*
X83085D02*
X80132D01*
Y13590D01*
X83085D01*
Y7488D01*
D02*
G37*
G36*
X96077D02*
X93125D01*
Y13590D01*
X96077D01*
Y7488D01*
D02*
G37*
G36*
X91746D02*
X88794D01*
Y13590D01*
X91746D01*
Y7488D01*
D02*
G37*
G36*
X70093D02*
X67140D01*
Y13590D01*
X70093D01*
Y7488D01*
D02*
G37*
G36*
X65762D02*
X62809D01*
Y13590D01*
X65762D01*
Y7488D01*
D02*
G37*
G36*
X78754D02*
X75802D01*
Y13590D01*
X78754D01*
Y7488D01*
D02*
G37*
G36*
X74424D02*
X71471D01*
Y13590D01*
X74424D01*
Y7488D01*
D02*
G37*
G36*
Y62410D02*
X71471D01*
Y68512D01*
X74424D01*
Y62410D01*
D02*
G37*
G36*
X70093D02*
X67140D01*
Y68512D01*
X70093D01*
Y62410D01*
D02*
G37*
G36*
X83085D02*
X80132D01*
Y68512D01*
X83085D01*
Y62410D01*
D02*
G37*
G36*
X78754D02*
X75802D01*
Y68512D01*
X78754D01*
Y62410D01*
D02*
G37*
G36*
X57101D02*
X54148D01*
Y68512D01*
X57101D01*
Y62410D01*
D02*
G37*
G36*
X52770D02*
X49817D01*
Y68512D01*
X52770D01*
Y62410D01*
D02*
G37*
G36*
X65762D02*
X62809D01*
Y68512D01*
X65762D01*
Y62410D01*
D02*
G37*
G36*
X61431D02*
X58479D01*
Y68512D01*
X61431D01*
Y62410D01*
D02*
G37*
G36*
X109069D02*
X106117D01*
Y68512D01*
X109069D01*
Y62410D01*
D02*
G37*
G36*
X104739D02*
X101786D01*
Y68512D01*
X104739D01*
Y62410D01*
D02*
G37*
G36*
X117731D02*
X114778D01*
Y68512D01*
X117731D01*
Y62410D01*
D02*
G37*
G36*
X113400D02*
X110447D01*
Y68512D01*
X113400D01*
Y62410D01*
D02*
G37*
G36*
X91746D02*
X88794D01*
Y68512D01*
X91746D01*
Y62410D01*
D02*
G37*
G36*
X87416D02*
X84463D01*
Y68512D01*
X87416D01*
Y62410D01*
D02*
G37*
G36*
X100408D02*
X97455D01*
Y68512D01*
X100408D01*
Y62410D01*
D02*
G37*
G36*
X96077D02*
X93125D01*
Y68512D01*
X96077D01*
Y62410D01*
D02*
G37*
G36*
X123144Y49516D02*
X117042D01*
Y52469D01*
X123144D01*
Y49516D01*
D02*
G37*
G36*
Y45185D02*
X117042D01*
Y48138D01*
X123144D01*
Y45185D01*
D02*
G37*
G36*
X28853Y53847D02*
X22750D01*
Y56799D01*
X28853D01*
Y53847D01*
D02*
G37*
G36*
Y49516D02*
X22750D01*
Y52469D01*
X28853D01*
Y49516D01*
D02*
G37*
G36*
Y40854D02*
X22750D01*
Y43807D01*
X28853D01*
Y40854D01*
D02*
G37*
G36*
X123144Y36524D02*
X117042D01*
Y39476D01*
X123144D01*
Y36524D01*
D02*
G37*
G36*
X28853Y45185D02*
X22750D01*
Y48138D01*
X28853D01*
Y45185D01*
D02*
G37*
G36*
X123144Y40854D02*
X117042D01*
Y43807D01*
X123144D01*
Y40854D01*
D02*
G37*
G36*
X39778Y62410D02*
X36825D01*
Y68512D01*
X39778D01*
Y62410D01*
D02*
G37*
G36*
X35447D02*
X32495D01*
Y68512D01*
X35447D01*
Y62410D01*
D02*
G37*
G36*
X48439D02*
X45487D01*
Y68512D01*
X48439D01*
Y62410D01*
D02*
G37*
G36*
X44109D02*
X41156D01*
Y68512D01*
X44109D01*
Y62410D01*
D02*
G37*
G36*
X28853Y58177D02*
X22750D01*
Y61130D01*
X28853D01*
Y58177D01*
D02*
G37*
G36*
X123144Y53847D02*
X117042D01*
Y56799D01*
X123144D01*
Y53847D01*
D02*
G37*
G36*
X31117Y62410D02*
X28164D01*
Y68512D01*
X31117D01*
Y62410D01*
D02*
G37*
G36*
X123144Y58177D02*
X117042D01*
Y61130D01*
X123144D01*
Y58177D01*
D02*
G37*
D10*
X161864Y33463D02*
D03*
Y41337D02*
D03*
Y23620D02*
D03*
Y51179D02*
D03*
D11*
X169541Y14368D02*
D03*
X169541Y60431D02*
D03*
D12*
X18004Y49500D02*
D03*
X5996D02*
D03*
D13*
X12000Y43693D02*
D03*
Y55307D02*
D03*
D18*
X6500Y9130D02*
D03*
X5500Y65570D02*
D03*
D19*
X6500Y12870D02*
D03*
X5500Y61830D02*
D03*
D20*
X146265Y62400D02*
D03*
X136935D02*
D03*
D21*
X132218Y42500D02*
D03*
X128182D02*
D03*
X132218Y46600D02*
D03*
X128182D02*
D03*
D22*
X10100Y65718D02*
D03*
Y61682D02*
D03*
X11100Y12818D02*
D03*
Y8782D02*
D03*
D23*
X132562Y51900D02*
D03*
X127838D02*
D03*
X132562Y37300D02*
D03*
X127838D02*
D03*
D78*
X119994Y59654D02*
D03*
Y55323D02*
D03*
Y50992D02*
D03*
Y46661D02*
D03*
Y42331D02*
D03*
Y38000D02*
D03*
Y33669D02*
D03*
Y29339D02*
D03*
Y25008D02*
D03*
Y20677D02*
D03*
Y16346D02*
D03*
X25900Y59654D02*
D03*
Y50992D02*
D03*
Y55323D02*
D03*
Y46661D02*
D03*
Y42331D02*
D03*
Y33669D02*
D03*
Y38000D02*
D03*
Y25008D02*
D03*
Y20677D02*
D03*
Y29339D02*
D03*
Y16346D02*
D03*
D79*
X116254Y65362D02*
D03*
X111924D02*
D03*
X107593D02*
D03*
X103262D02*
D03*
X94601D02*
D03*
X98931D02*
D03*
X90270D02*
D03*
X72947D02*
D03*
X77278D02*
D03*
X68617D02*
D03*
X85939D02*
D03*
X81609D02*
D03*
X116254Y10638D02*
D03*
X111924D02*
D03*
X107593D02*
D03*
X103262D02*
D03*
X94601D02*
D03*
X98931D02*
D03*
X90270D02*
D03*
X85939D02*
D03*
X81609D02*
D03*
X72947D02*
D03*
X68617D02*
D03*
X77278D02*
D03*
X64286Y65362D02*
D03*
X55624D02*
D03*
X59955D02*
D03*
X51294D02*
D03*
X42632D02*
D03*
X38302D02*
D03*
X46963D02*
D03*
X33971D02*
D03*
X29640D02*
D03*
X59955Y10638D02*
D03*
X51294D02*
D03*
X55625D02*
D03*
X46963D02*
D03*
X33971D02*
D03*
X64286D02*
D03*
X42632D02*
D03*
X38302D02*
D03*
X29640D02*
D03*
D80*
X113302Y58669D02*
D03*
Y50402D02*
D03*
Y42134D02*
D03*
X106215D02*
D03*
Y58669D02*
D03*
Y50402D02*
D03*
X99128Y58669D02*
D03*
X84955D02*
D03*
X113302Y33866D02*
D03*
X106215D02*
D03*
X113302Y25598D02*
D03*
Y17331D02*
D03*
X106215D02*
D03*
Y25598D02*
D03*
X99128Y17331D02*
D03*
X84955D02*
D03*
X46766Y58669D02*
D03*
X60939D02*
D03*
X39680D02*
D03*
Y42134D02*
D03*
Y50402D02*
D03*
X32593Y58669D02*
D03*
Y50402D02*
D03*
Y42134D02*
D03*
X60939Y17331D02*
D03*
X46766D02*
D03*
X39680Y25598D02*
D03*
Y17331D02*
D03*
Y33866D02*
D03*
X32593D02*
D03*
Y25598D02*
D03*
Y17331D02*
D03*
M02*
